<svg xmlns="http://www.w3.org/2000/svg" xmlns:xlink="http://www.w3.org/1999/xlink" contentStyleType="text/css" height="298px" preserveAspectRatio="none" style="width:368px;height:298px;background:#FFFFFF;" version="1.1" viewBox="0 0 368 298" width="368px" zoomAndPan="magnify"><defs/><g><!--cluster 64fbcdac1d2a342a3d1eb884b5f059ad--><g id="cluster_64fbcdac1d2a342a3d1eb884b5f059ad"><path d="M8.5,6 L67.5,6 A3.75,3.75 0 0 1 70,8.5 L77,28.2969 L358.5,28.2969 A2.5,2.5 0 0 1 361,30.7969 L361,288.58 A2.5,2.5 0 0 1 358.5,291.08 L8.5,291.08 A2.5,2.5 0 0 1 6,288.58 L6,8.5 A2.5,2.5 0 0 1 8.5,6 " fill="none" style="stroke:#000000;stroke-width:1.5;"/><line style="stroke:#000000;stroke-width:1.5;" x1="6" x2="77" y1="28.2969" y2="28.2969"/><text fill="#000000" font-family="sans-serif" font-size="14" font-weight="bold" lengthAdjust="spacing" textLength="58" x="10" y="20.9951">django/</text></g><!--entity 6596883f1f27f953c917d5eacc409661--><g id="elem_6596883f1f27f953c917d5eacc409661"><rect fill="#F1F1F1" height="95.1875" rx="2.5" ry="2.5" style="stroke:#181818;stroke-width:0.5;" width="101" x="56.5" y="41"/><rect fill="#F1F1F1" height="10" style="stroke:#181818;stroke-width:0.5;" width="15" x="137.5" y="46"/><rect fill="#F1F1F1" height="2" style="stroke:#181818;stroke-width:0.5;" width="4" x="135.5" y="48"/><rect fill="#F1F1F1" height="2" style="stroke:#181818;stroke-width:0.5;" width="4" x="135.5" y="52"/><text fill="#000000" font-family="sans-serif" font-size="14" font-weight="bold" lengthAdjust="spacing" textLength="30" x="71.5" y="73.9951">urls</text><text fill="#000000" font-family="sans-serif" font-size="14" lengthAdjust="spacing" textLength="4" x="71.5" y="90.292">&#160;</text><text fill="#000000" font-family="sans-serif" font-size="14" lengthAdjust="spacing" textLength="61" x="71.5" y="106.5889">text: text</text><text fill="#000000" font-family="sans-serif" font-size="14" lengthAdjust="spacing" textLength="4" x="71.5" y="122.8857">&#160;</text></g><!--entity f545ff0e5266ad04284a17002bf66cb4--><g id="elem_f545ff0e5266ad04284a17002bf66cb4"><rect fill="#F1F1F1" height="78.8906" rx="2.5" ry="2.5" style="stroke:#181818;stroke-width:0.5;" width="126" x="22" y="196.19"/><rect fill="#F1F1F1" height="10" style="stroke:#181818;stroke-width:0.5;" width="15" x="128" y="201.19"/><rect fill="#F1F1F1" height="2" style="stroke:#181818;stroke-width:0.5;" width="4" x="126" y="203.19"/><rect fill="#F1F1F1" height="2" style="stroke:#181818;stroke-width:0.5;" width="4" x="126" y="207.19"/><text fill="#000000" font-family="sans-serif" font-size="14" font-weight="bold" lengthAdjust="spacing" textLength="86" x="37" y="229.1851">views/auth</text><text fill="#000000" font-family="sans-serif" font-size="14" lengthAdjust="spacing" textLength="4" x="37" y="245.482">&#160;</text><text fill="#000000" font-family="sans-serif" font-size="14" lengthAdjust="spacing" textLength="4" x="37" y="261.7789">&#160;</text></g><!--entity 5a51648bd3995ff00e032cf8526d92de--><g id="elem_5a51648bd3995ff00e032cf8526d92de"><rect fill="#F1F1F1" height="78.8906" rx="2.5" ry="2.5" style="stroke:#181818;stroke-width:0.5;" width="162" x="183" y="196.19"/><rect fill="#F1F1F1" height="10" style="stroke:#181818;stroke-width:0.5;" width="15" x="325" y="201.19"/><rect fill="#F1F1F1" height="2" style="stroke:#181818;stroke-width:0.5;" width="4" x="323" y="203.19"/><rect fill="#F1F1F1" height="2" style="stroke:#181818;stroke-width:0.5;" width="4" x="323" y="207.19"/><text fill="#000000" font-family="sans-serif" font-size="14" font-weight="bold" lengthAdjust="spacing" textLength="122" x="198" y="229.1851">views/business</text><text fill="#000000" font-family="sans-serif" font-size="14" lengthAdjust="spacing" textLength="4" x="198" y="245.482">&#160;</text><text fill="#000000" font-family="sans-serif" font-size="14" lengthAdjust="spacing" textLength="4" x="198" y="261.7789">&#160;</text></g><!--entity 688bc681bfd124cc46618f33bdb6b623--><g id="elem_688bc681bfd124cc46618f33bdb6b623"><rect fill="#F1F1F1" height="78.8906" rx="2.5" ry="2.5" style="stroke:#181818;stroke-width:0.5;" width="97" x="215.5" y="49.15"/><rect fill="#F1F1F1" height="10" style="stroke:#181818;stroke-width:0.5;" width="15" x="292.5" y="54.15"/><rect fill="#F1F1F1" height="2" style="stroke:#181818;stroke-width:0.5;" width="4" x="290.5" y="56.15"/><rect fill="#F1F1F1" height="2" style="stroke:#181818;stroke-width:0.5;" width="4" x="290.5" y="60.15"/><text fill="#000000" font-family="sans-serif" font-size="14" font-weight="bold" lengthAdjust="spacing" textLength="57" x="230.5" y="82.1451">models</text><text fill="#000000" font-family="sans-serif" font-size="14" lengthAdjust="spacing" textLength="4" x="230.5" y="98.442">&#160;</text><text fill="#000000" font-family="sans-serif" font-size="14" lengthAdjust="spacing" textLength="4" x="230.5" y="114.7389">&#160;</text></g><!--link 6596883f1f27f953c917d5eacc409661 to f545ff0e5266ad04284a17002bf66cb4--><g id="link_6596883f1f27f953c917d5eacc409661_f545ff0e5266ad04284a17002bf66cb4"><path codeLine="25" d="M99.86,136.69 C96.95,155.88 94.5186,171.8577 91.7586,190.0777 " fill="none" id="6596883f1f27f953c917d5eacc409661-to-f545ff0e5266ad04284a17002bf66cb4" style="stroke:#181818;stroke-width:1.0;"/><polygon fill="#181818" points="90.86,196.01,96.1628,187.7106,91.6089,191.0664,88.2531,186.5124,90.86,196.01" style="stroke:#181818;stroke-width:1.0;"/></g><!--link 6596883f1f27f953c917d5eacc409661 to 5a51648bd3995ff00e032cf8526d92de--><g id="link_6596883f1f27f953c917d5eacc409661_5a51648bd3995ff00e032cf8526d92de"><path codeLine="26" d="M157.97,136.69 C178.66,155.79 197.8527,173.5286 217.5327,191.7086 " fill="none" id="6596883f1f27f953c917d5eacc409661-to-5a51648bd3995ff00e032cf8526d92de" style="stroke:#181818;stroke-width:1.0;"/><polygon fill="#181818" points="221.94,195.78,218.0433,186.7348,218.2673,192.3872,212.6149,192.6112,221.94,195.78" style="stroke:#181818;stroke-width:1.0;"/></g><!--link 688bc681bfd124cc46618f33bdb6b623 to 5a51648bd3995ff00e032cf8526d92de--><g id="link_688bc681bfd124cc46618f33bdb6b623_5a51648bd3995ff00e032cf8526d92de"><path codeLine="27" d="M264,128.46 C264,149.36 264,169.04 264,189.91 " fill="none" id="688bc681bfd124cc46618f33bdb6b623-to-5a51648bd3995ff00e032cf8526d92de" style="stroke:#181818;stroke-width:1.0;"/><polygon fill="#181818" points="264,195.91,268,186.91,264,190.91,260,186.91,264,195.91" style="stroke:#181818;stroke-width:1.0;"/></g><!--SRC=[ZS_BQiCm48NXlPv2P6a8qNKiPT4NALsCD9hKhI-Xjfj0wRlN3XHIkd0Mqkvyp8zjErowvjhq9t76_8wd8dVqXlrfEEmaZX8SfqoODHcqRdcaImh19S_AHoJv9VBGdOU-z9C47o44ovfDpT7R77LDlc3EJaK0BPz5LSqVxLXLGapbEXtb-WlnSeUmTvvP5My0a9GpmQ6kbJA90N9oD-IpAPVnWFFqkb9_zXwz1XSIsHXNI1LbJUQmU1GDbRjzciUcB-FuprWgKeQW4vCsRZb_EJwmjOaI933sPdG3bVPt-oqsu_UqVzgiUv3PYXIR1GynFm00]--></g></svg>