<?xml version="1.0" encoding="us-ascii" standalone="no"?><svg xmlns="http://www.w3.org/2000/svg" xmlns:xlink="http://www.w3.org/1999/xlink" contentStyleType="text/css" height="281px" preserveAspectRatio="none" style="width:368px;height:281px;background:#FFFFFF;" version="1.1" viewBox="0 0 368 281" width="368px" zoomAndPan="magnify"><defs/><g><!--cluster 64fbcdac1d2a342a3d1eb884b5f059ad--><g id="cluster_64fbcdac1d2a342a3d1eb884b5f059ad"><path d="M8.5,6 L140.5,6 A3.75,3.75 0 0 1 143,8.5 L150,28.2969 L358.5,28.2969 A2.5,2.5 0 0 1 361,30.7969 L361,272.28 A2.5,2.5 0 0 1 358.5,274.78 L8.5,274.78 A2.5,2.5 0 0 1 6,272.28 L6,8.5 A2.5,2.5 0 0 1 8.5,6 " fill="none" style="stroke:#000000;stroke-width:1.5;"/><line style="stroke:#000000;stroke-width:1.5;" x1="6" x2="150" y1="28.2969" y2="28.2969"/><text fill="#000000" font-family="sans-serif" font-size="14" font-weight="bold" lengthAdjust="spacing" textLength="131" x="10" y="20.9951">django_example/</text></g><!--entity 688bc681bfd124cc46618f33bdb6b623--><g id="elem_688bc681bfd124cc46618f33bdb6b623"><rect fill="#F1F1F1" height="78.8906" rx="2.5" ry="2.5" style="stroke:#181818;stroke-width:0.5;" width="97" x="54.5" y="41"/><rect fill="#F1F1F1" height="10" style="stroke:#181818;stroke-width:0.5;" width="15" x="131.5" y="46"/><rect fill="#F1F1F1" height="2" style="stroke:#181818;stroke-width:0.5;" width="4" x="129.5" y="48"/><rect fill="#F1F1F1" height="2" style="stroke:#181818;stroke-width:0.5;" width="4" x="129.5" y="52"/><text fill="#000000" font-family="sans-serif" font-size="14" font-weight="bold" lengthAdjust="spacing" textLength="57" x="69.5" y="73.9951">models</text><text fill="#000000" font-family="sans-serif" font-size="14" lengthAdjust="spacing" textLength="4" x="69.5" y="90.292">&#160;</text><text fill="#000000" font-family="sans-serif" font-size="14" lengthAdjust="spacing" textLength="4" x="69.5" y="106.5889">&#160;</text></g><!--entity 6596883f1f27f953c917d5eacc409661--><g id="elem_6596883f1f27f953c917d5eacc409661"><rect fill="#F1F1F1" height="78.8906" rx="2.5" ry="2.5" style="stroke:#181818;stroke-width:0.5;" width="70" x="216" y="41"/><rect fill="#F1F1F1" height="10" style="stroke:#181818;stroke-width:0.5;" width="15" x="266" y="46"/><rect fill="#F1F1F1" height="2" style="stroke:#181818;stroke-width:0.5;" width="4" x="264" y="48"/><rect fill="#F1F1F1" height="2" style="stroke:#181818;stroke-width:0.5;" width="4" x="264" y="52"/><text fill="#000000" font-family="sans-serif" font-size="14" font-weight="bold" lengthAdjust="spacing" textLength="30" x="231" y="73.9951">urls</text><text fill="#000000" font-family="sans-serif" font-size="14" lengthAdjust="spacing" textLength="4" x="231" y="90.292">&#160;</text><text fill="#000000" font-family="sans-serif" font-size="14" lengthAdjust="spacing" textLength="4" x="231" y="106.5889">&#160;</text></g><!--entity f545ff0e5266ad04284a17002bf66cb4--><g id="elem_f545ff0e5266ad04284a17002bf66cb4"><rect fill="#F1F1F1" height="78.8906" rx="2.5" ry="2.5" style="stroke:#181818;stroke-width:0.5;" width="126" x="219" y="179.89"/><rect fill="#F1F1F1" height="10" style="stroke:#181818;stroke-width:0.5;" width="15" x="325" y="184.89"/><rect fill="#F1F1F1" height="2" style="stroke:#181818;stroke-width:0.5;" width="4" x="323" y="186.89"/><rect fill="#F1F1F1" height="2" style="stroke:#181818;stroke-width:0.5;" width="4" x="323" y="190.89"/><text fill="#000000" font-family="sans-serif" font-size="14" font-weight="bold" lengthAdjust="spacing" textLength="86" x="234" y="212.8851">views/auth</text><text fill="#000000" font-family="sans-serif" font-size="14" lengthAdjust="spacing" textLength="4" x="234" y="229.182">&#160;</text><text fill="#000000" font-family="sans-serif" font-size="14" lengthAdjust="spacing" textLength="4" x="234" y="245.4789">&#160;</text></g><!--entity 5a51648bd3995ff00e032cf8526d92de--><g id="elem_5a51648bd3995ff00e032cf8526d92de"><rect fill="#F1F1F1" height="78.8906" rx="2.5" ry="2.5" style="stroke:#181818;stroke-width:0.5;" width="162" x="22" y="179.89"/><rect fill="#F1F1F1" height="10" style="stroke:#181818;stroke-width:0.5;" width="15" x="164" y="184.89"/><rect fill="#F1F1F1" height="2" style="stroke:#181818;stroke-width:0.5;" width="4" x="162" y="186.89"/><rect fill="#F1F1F1" height="2" style="stroke:#181818;stroke-width:0.5;" width="4" x="162" y="190.89"/><text fill="#000000" font-family="sans-serif" font-size="14" font-weight="bold" lengthAdjust="spacing" textLength="122" x="37" y="212.8851">views/business</text><text fill="#000000" font-family="sans-serif" font-size="14" lengthAdjust="spacing" textLength="4" x="37" y="229.182">&#160;</text><text fill="#000000" font-family="sans-serif" font-size="14" lengthAdjust="spacing" textLength="4" x="37" y="245.4789">&#160;</text></g><!--link 688bc681bfd124cc46618f33bdb6b623 to 5a51648bd3995ff00e032cf8526d92de--><g id="link_688bc681bfd124cc46618f33bdb6b623_5a51648bd3995ff00e032cf8526d92de"><path codeLine="24" d="M103,120.31 C103,138.96 103,155.24 103,173.85 " fill="none" id="688bc681bfd124cc46618f33bdb6b623-to-5a51648bd3995ff00e032cf8526d92de" style="stroke:#181818;stroke-width:1.0;"/><polygon fill="#181818" points="103,179.85,107,170.85,103,174.85,99,170.85,103,179.85" style="stroke:#181818;stroke-width:1.0;"/></g><!--link 6596883f1f27f953c917d5eacc409661 to f545ff0e5266ad04284a17002bf66cb4--><g id="link_6596883f1f27f953c917d5eacc409661_f545ff0e5266ad04284a17002bf66cb4"><path codeLine="25" d="M259.8,120.31 C264.02,138.96 267.7461,155.3879 271.9561,173.9979 " fill="none" id="6596883f1f27f953c917d5eacc409661-to-f545ff0e5266ad04284a17002bf66cb4" style="stroke:#181818;stroke-width:1.0;"/><polygon fill="#181818" points="273.28,179.85,275.1956,170.1892,272.1768,174.9732,267.3928,171.9544,273.28,179.85" style="stroke:#181818;stroke-width:1.0;"/></g><!--link 6596883f1f27f953c917d5eacc409661 to 5a51648bd3995ff00e032cf8526d92de--><g id="link_6596883f1f27f953c917d5eacc409661_5a51648bd3995ff00e032cf8526d92de"><path codeLine="26" d="M215.55,114.23 C194.34,133.85 171.6746,154.8157 149.4046,175.4157 " fill="none" id="6596883f1f27f953c917d5eacc409661-to-5a51648bd3995ff00e032cf8526d92de" style="stroke:#181818;stroke-width:1.0;"/><polygon fill="#181818" points="145,179.49,154.323,176.315,148.6705,176.0948,148.8907,170.4422,145,179.49" style="stroke:#181818;stroke-width:1.0;"/></g><!--SRC=[ZO_BQiCm44Nt-WgHfI54px6qoO-KKaQQaUlMB-gu2PJ-Urr38T22kvZbENCFTjruxTjREpHYmloA3Si3lU3GZ4zymtxg-7IGE4jm9MN2hCcWTUkHvXI2Ixue7v7aXyXZFuq33nS98QGCGQT2shYS7O0EnTf42H8OAnz4LVKZSJTNbH3YyPxrSSLjqSNK9NgRewx9CwuM5LVFnYvlVv35Er-AOcy0a9GpmQ6kbJAf0EJaDlAzvUjymkNo_8ltw3MuaCZ6-2rIhAp99Qm-YeRuZa_Bt0uy_spu5Bl5HpgUTp-8tVXDinVwJytUcYy0]--></g></svg>