<svg xmlns="http://www.w3.org/2000/svg" xmlns:xlink="http://www.w3.org/1999/xlink" contentStyleType="text/css" height="298px" preserveAspectRatio="none" style="width:368px;height:298px;background:#FFFFFF;" version="1.1" viewBox="0 0 368 298" width="368px" zoomAndPan="magnify"><defs/><g><!--cluster 2db7d8fdfd75b4d4b47990a00e64606d--><g id="cluster_2db7d8fdfd75b4d4b47990a00e64606d"><path d="M8.5,6 L67.5,6 A3.75,3.75 0 0 1 70,8.5 L77,28.2969 L358.5,28.2969 A2.5,2.5 0 0 1 361,30.7969 L361,288.58 A2.5,2.5 0 0 1 358.5,291.08 L8.5,291.08 A2.5,2.5 0 0 1 6,288.58 L6,8.5 A2.5,2.5 0 0 1 8.5,6 " fill="none" style="stroke:#000000;stroke-width:1.5;"/><line style="stroke:#000000;stroke-width:1.5;" x1="6" x2="77" y1="28.2969" y2="28.2969"/><text fill="#000000" font-family="sans-serif" font-size="14" font-weight="bold" lengthAdjust="spacing" textLength="58" x="10" y="20.9951">django/</text></g><!--entity 6edabb0a4f29497bbe6b83f221e8930a--><g id="elem_6edabb0a4f29497bbe6b83f221e8930a"><rect fill="#F1F1F1" height="78.8906" rx="2.5" ry="2.5" style="stroke:#181818;stroke-width:0.5;" width="70" x="80" y="41"/><rect fill="#F1F1F1" height="10" style="stroke:#181818;stroke-width:0.5;" width="15" x="130" y="46"/><rect fill="#F1F1F1" height="2" style="stroke:#181818;stroke-width:0.5;" width="4" x="128" y="48"/><rect fill="#F1F1F1" height="2" style="stroke:#181818;stroke-width:0.5;" width="4" x="128" y="52"/><text fill="#000000" font-family="sans-serif" font-size="14" font-weight="bold" lengthAdjust="spacing" textLength="30" x="95" y="73.9951">urls</text><text fill="#000000" font-family="sans-serif" font-size="14" lengthAdjust="spacing" textLength="4" x="95" y="90.292">&#160;</text><text fill="#000000" font-family="sans-serif" font-size="14" lengthAdjust="spacing" textLength="4" x="95" y="106.5889">&#160;</text></g><!--entity 5cab9a7b560dbcea052037d405503980--><g id="elem_5cab9a7b560dbcea052037d405503980"><rect fill="#F1F1F1" height="95.1875" rx="2.5" ry="2.5" style="stroke:#181818;stroke-width:0.5;" width="126" x="22" y="179.89"/><rect fill="#F1F1F1" height="10" style="stroke:#181818;stroke-width:0.5;" width="15" x="128" y="184.89"/><rect fill="#F1F1F1" height="2" style="stroke:#181818;stroke-width:0.5;" width="4" x="126" y="186.89"/><rect fill="#F1F1F1" height="2" style="stroke:#181818;stroke-width:0.5;" width="4" x="126" y="190.89"/><text fill="#000000" font-family="sans-serif" font-size="14" font-weight="bold" lengthAdjust="spacing" textLength="86" x="37" y="212.8851">views/auth</text><text fill="#000000" font-family="sans-serif" font-size="14" lengthAdjust="spacing" textLength="4" x="37" y="229.182">&#160;</text><text fill="#000000" font-family="sans-serif" font-size="14" lengthAdjust="spacing" textLength="61" x="37" y="245.4789">text: text</text><text fill="#000000" font-family="sans-serif" font-size="14" lengthAdjust="spacing" textLength="4" x="37" y="261.7757">&#160;</text></g><!--entity 59e930d9bdf16b2df79bb7449aa7db51--><g id="elem_59e930d9bdf16b2df79bb7449aa7db51"><rect fill="#F1F1F1" height="78.8906" rx="2.5" ry="2.5" style="stroke:#181818;stroke-width:0.5;" width="162" x="183" y="188.04"/><rect fill="#F1F1F1" height="10" style="stroke:#181818;stroke-width:0.5;" width="15" x="325" y="193.04"/><rect fill="#F1F1F1" height="2" style="stroke:#181818;stroke-width:0.5;" width="4" x="323" y="195.04"/><rect fill="#F1F1F1" height="2" style="stroke:#181818;stroke-width:0.5;" width="4" x="323" y="199.04"/><text fill="#000000" font-family="sans-serif" font-size="14" font-weight="bold" lengthAdjust="spacing" textLength="122" x="198" y="221.0351">views/business</text><text fill="#000000" font-family="sans-serif" font-size="14" lengthAdjust="spacing" textLength="4" x="198" y="237.332">&#160;</text><text fill="#000000" font-family="sans-serif" font-size="14" lengthAdjust="spacing" textLength="4" x="198" y="253.6289">&#160;</text></g><!--entity ccdc3cd06068e3bc0d950469cb4538cd--><g id="elem_ccdc3cd06068e3bc0d950469cb4538cd"><rect fill="#F1F1F1" height="78.8906" rx="2.5" ry="2.5" style="stroke:#181818;stroke-width:0.5;" width="97" x="215.5" y="41"/><rect fill="#F1F1F1" height="10" style="stroke:#181818;stroke-width:0.5;" width="15" x="292.5" y="46"/><rect fill="#F1F1F1" height="2" style="stroke:#181818;stroke-width:0.5;" width="4" x="290.5" y="48"/><rect fill="#F1F1F1" height="2" style="stroke:#181818;stroke-width:0.5;" width="4" x="290.5" y="52"/><text fill="#000000" font-family="sans-serif" font-size="14" font-weight="bold" lengthAdjust="spacing" textLength="57" x="230.5" y="73.9951">models</text><text fill="#000000" font-family="sans-serif" font-size="14" lengthAdjust="spacing" textLength="4" x="230.5" y="90.292">&#160;</text><text fill="#000000" font-family="sans-serif" font-size="14" lengthAdjust="spacing" textLength="4" x="230.5" y="106.5889">&#160;</text></g><!--link 6edabb0a4f29497bbe6b83f221e8930a to 5cab9a7b560dbcea052037d405503980--><g id="link_6edabb0a4f29497bbe6b83f221e8930a_5cab9a7b560dbcea052037d405503980"><path codeLine="25" d="M106.96,120.31 C103.19,138.52 99.8962,154.4946 95.9362,173.6246 " fill="none" id="6edabb0a4f29497bbe6b83f221e8930a-to-5cab9a7b560dbcea052037d405503980" style="stroke:#181818;stroke-width:1.0;"/><polygon fill="#181818" points="94.72,179.5,100.4613,171.4977,95.7335,174.6038,92.6274,169.876,94.72,179.5" style="stroke:#181818;stroke-width:1.0;"/></g><!--link 6edabb0a4f29497bbe6b83f221e8930a to 59e930d9bdf16b2df79bb7449aa7db51--><g id="link_6edabb0a4f29497bbe6b83f221e8930a_59e930d9bdf16b2df79bb7449aa7db51"><path codeLine="26" d="M150.31,115.82 C172.51,137.43 196.9117,161.1738 219.9117,183.5738 " fill="none" id="6edabb0a4f29497bbe6b83f221e8930a-to-59e930d9bdf16b2df79bb7449aa7db51" style="stroke:#181818;stroke-width:1.0;"/><polygon fill="#181818" points="224.21,187.76,220.5533,178.6151,220.6281,184.2715,214.9717,184.3462,224.21,187.76" style="stroke:#181818;stroke-width:1.0;"/></g><!--link ccdc3cd06068e3bc0d950469cb4538cd to 59e930d9bdf16b2df79bb7449aa7db51--><g id="link_ccdc3cd06068e3bc0d950469cb4538cd_59e930d9bdf16b2df79bb7449aa7db51"><path codeLine="27" d="M264,120.31 C264,141.21 264,160.89 264,181.76 " fill="none" id="ccdc3cd06068e3bc0d950469cb4538cd-to-59e930d9bdf16b2df79bb7449aa7db51" style="stroke:#181818;stroke-width:1.0;"/><polygon fill="#181818" points="264,187.76,268,178.76,264,182.76,260,178.76,264,187.76" style="stroke:#181818;stroke-width:1.0;"/></g><!--SRC=[ZO-xJiD044Nx_OfLIajHnllqfk174CNCpjWO_8YmJI8X_Xqd1OgWS9hfphbpiEl6SzzUsg5H9ypls8ZUyHiEpNZOQPoqOOfSrLnpzEJOaOif0G98S042wo-Ln_uq3ZBCEWWZ4Q2hJN8f4acWojR6b58b2wYVLL4i7zrK54gfbplIPwI4aNm0fYm8te2DxC1xiAc26_dPodawu3A_NlbPBlDHN-yVLP9rYnDnNGOoNCT459rBY979btSgMgPsaEd_EpbpjfbXBQp4Kbvr7bn8cPotLUQRenzPVbE-rMRydlTFcw6FQZOYrMR1GveV]--></g></svg>