<?xml version="1.0" encoding="us-ascii" standalone="no"?><svg xmlns="http://www.w3.org/2000/svg" xmlns:xlink="http://www.w3.org/1999/xlink" contentStyleType="text/css" height="281px" preserveAspectRatio="none" style="width:368px;height:281px;background:#FFFFFF;" version="1.1" viewBox="0 0 368 281" width="368px" zoomAndPan="magnify"><defs/><g><!--cluster 64fbcdac1d2a342a3d1eb884b5f059ad--><g id="cluster_64fbcdac1d2a342a3d1eb884b5f059ad"><path d="M8.5,6 L140.5,6 A3.75,3.75 0 0 1 143,8.5 L150,28.2969 L358.5,28.2969 A2.5,2.5 0 0 1 361,30.7969 L361,272.28 A2.5,2.5 0 0 1 358.5,274.78 L8.5,274.78 A2.5,2.5 0 0 1 6,272.28 L6,8.5 A2.5,2.5 0 0 1 8.5,6 " fill="none" style="stroke:#000000;stroke-width:1.5;"/><line style="stroke:#000000;stroke-width:1.5;" x1="6" x2="150" y1="28.2969" y2="28.2969"/><text fill="#000000" font-family="sans-serif" font-size="14" font-weight="bold" lengthAdjust="spacing" textLength="131" x="10" y="20.9951">django_example/</text></g><!--entity 6596883f1f27f953c917d5eacc409661--><g id="elem_6596883f1f27f953c917d5eacc409661"><rect fill="#F1F1F1" height="78.8906" rx="2.5" ry="2.5" style="stroke:#181818;stroke-width:0.5;" width="70" x="80" y="41"/><rect fill="#F1F1F1" height="10" style="stroke:#181818;stroke-width:0.5;" width="15" x="130" y="46"/><rect fill="#F1F1F1" height="2" style="stroke:#181818;stroke-width:0.5;" width="4" x="128" y="48"/><rect fill="#F1F1F1" height="2" style="stroke:#181818;stroke-width:0.5;" width="4" x="128" y="52"/><text fill="#000000" font-family="sans-serif" font-size="14" font-weight="bold" lengthAdjust="spacing" textLength="30" x="95" y="73.9951">urls</text><text fill="#000000" font-family="sans-serif" font-size="14" lengthAdjust="spacing" textLength="4" x="95" y="90.292">&#160;</text><text fill="#000000" font-family="sans-serif" font-size="14" lengthAdjust="spacing" textLength="4" x="95" y="106.5889">&#160;</text></g><!--entity f545ff0e5266ad04284a17002bf66cb4--><g id="elem_f545ff0e5266ad04284a17002bf66cb4"><rect fill="#F1F1F1" height="78.8906" rx="2.5" ry="2.5" style="stroke:#181818;stroke-width:0.5;" width="126" x="22" y="179.89"/><rect fill="#F1F1F1" height="10" style="stroke:#181818;stroke-width:0.5;" width="15" x="128" y="184.89"/><rect fill="#F1F1F1" height="2" style="stroke:#181818;stroke-width:0.5;" width="4" x="126" y="186.89"/><rect fill="#F1F1F1" height="2" style="stroke:#181818;stroke-width:0.5;" width="4" x="126" y="190.89"/><text fill="#000000" font-family="sans-serif" font-size="14" font-weight="bold" lengthAdjust="spacing" textLength="86" x="37" y="212.8851">views/auth</text><text fill="#000000" font-family="sans-serif" font-size="14" lengthAdjust="spacing" textLength="4" x="37" y="229.182">&#160;</text><text fill="#000000" font-family="sans-serif" font-size="14" lengthAdjust="spacing" textLength="4" x="37" y="245.4789">&#160;</text></g><!--entity 5a51648bd3995ff00e032cf8526d92de--><g id="elem_5a51648bd3995ff00e032cf8526d92de"><rect fill="#F1F1F1" height="78.8906" rx="2.5" ry="2.5" style="stroke:#181818;stroke-width:0.5;" width="162" x="183" y="179.89"/><rect fill="#F1F1F1" height="10" style="stroke:#181818;stroke-width:0.5;" width="15" x="325" y="184.89"/><rect fill="#F1F1F1" height="2" style="stroke:#181818;stroke-width:0.5;" width="4" x="323" y="186.89"/><rect fill="#F1F1F1" height="2" style="stroke:#181818;stroke-width:0.5;" width="4" x="323" y="190.89"/><text fill="#000000" font-family="sans-serif" font-size="14" font-weight="bold" lengthAdjust="spacing" textLength="122" x="198" y="212.8851">views/business</text><text fill="#000000" font-family="sans-serif" font-size="14" lengthAdjust="spacing" textLength="4" x="198" y="229.182">&#160;</text><text fill="#000000" font-family="sans-serif" font-size="14" lengthAdjust="spacing" textLength="4" x="198" y="245.4789">&#160;</text></g><!--entity 688bc681bfd124cc46618f33bdb6b623--><g id="elem_688bc681bfd124cc46618f33bdb6b623"><rect fill="#F1F1F1" height="78.8906" rx="2.5" ry="2.5" style="stroke:#181818;stroke-width:0.5;" width="97" x="215.5" y="41"/><rect fill="#F1F1F1" height="10" style="stroke:#181818;stroke-width:0.5;" width="15" x="292.5" y="46"/><rect fill="#F1F1F1" height="2" style="stroke:#181818;stroke-width:0.5;" width="4" x="290.5" y="48"/><rect fill="#F1F1F1" height="2" style="stroke:#181818;stroke-width:0.5;" width="4" x="290.5" y="52"/><text fill="#000000" font-family="sans-serif" font-size="14" font-weight="bold" lengthAdjust="spacing" textLength="57" x="230.5" y="73.9951">models</text><text fill="#000000" font-family="sans-serif" font-size="14" lengthAdjust="spacing" textLength="4" x="230.5" y="90.292">&#160;</text><text fill="#000000" font-family="sans-serif" font-size="14" lengthAdjust="spacing" textLength="4" x="230.5" y="106.5889">&#160;</text></g><!--link 6596883f1f27f953c917d5eacc409661 to f545ff0e5266ad04284a17002bf66cb4--><g id="link_6596883f1f27f953c917d5eacc409661_f545ff0e5266ad04284a17002bf66cb4"><path codeLine="24" d="M106.48,120.31 C102.4,138.96 98.7949,155.3792 94.7149,173.9892 " fill="none" id="6596883f1f27f953c917d5eacc409661-to-f545ff0e5266ad04284a17002bf66cb4" style="stroke:#181818;stroke-width:1.0;"/><polygon fill="#181818" points="93.43,179.85,99.2646,171.9154,94.5008,174.966,91.4502,170.2022,93.43,179.85" style="stroke:#181818;stroke-width:1.0;"/></g><!--link 6596883f1f27f953c917d5eacc409661 to 5a51648bd3995ff00e032cf8526d92de--><g id="link_6596883f1f27f953c917d5eacc409661_5a51648bd3995ff00e032cf8526d92de"><path codeLine="25" d="M150.31,113.89 C171.74,133.57 194.7911,154.7512 217.3711,175.4912 " fill="none" id="6596883f1f27f953c917d5eacc409661-to-5a51648bd3995ff00e032cf8526d92de" style="stroke:#181818;stroke-width:1.0;"/><polygon fill="#181818" points="221.79,179.55,217.8676,170.5159,218.1076,176.1677,212.4559,176.4077,221.79,179.55" style="stroke:#181818;stroke-width:1.0;"/></g><!--link 688bc681bfd124cc46618f33bdb6b623 to 5a51648bd3995ff00e032cf8526d92de--><g id="link_688bc681bfd124cc46618f33bdb6b623_5a51648bd3995ff00e032cf8526d92de"><path codeLine="26" d="M264,120.31 C264,138.96 264,155.24 264,173.85 " fill="none" id="688bc681bfd124cc46618f33bdb6b623-to-5a51648bd3995ff00e032cf8526d92de" style="stroke:#181818;stroke-width:1.0;"/><polygon fill="#181818" points="264,179.85,268,170.85,264,174.85,260,170.85,264,179.85" style="stroke:#181818;stroke-width:1.0;"/></g><!--SRC=[ZO-xQiD044Nx_GhXKc2yp_5kany98Spix2XAz2AoOaF8lqTn4GmkvEAMvt0kTjruxjjBEpHgmlo1JQbs_8v3CxwM2_PJLmwx2kSAl51cp8OjEh-EJQ4OFGNH8I5NtogF_JGEPJXL41B4wCI8FKeABYTpv50mPwyJWAcULLqldzrSrqgfbnjIWWyYkWGBWAozZHxDKMjB0f39Nycljfpd0owdjpi-O33W8x5BwK-aYtOsIrnzd2oN6vwMkHtAVD-mfbE6Q4ZOMByshyLHd2Cc8B3kwkX7Bl_zFshpyPxtJvll7jHidLIR3nxI_080]--></g></svg>