<?xml version="1.0" encoding="us-ascii" standalone="no"?><svg xmlns="http://www.w3.org/2000/svg" xmlns:xlink="http://www.w3.org/1999/xlink" contentStyleType="text/css" height="654px" preserveAspectRatio="none" style="width:792px;height:654px;background:#FFFFFF;" version="1.1" viewBox="0 0 792 654" width="792px" zoomAndPan="magnify"><defs/><g><!--cluster 824c25065ecc00b04cf456b18e172bba--><g id="cluster_824c25065ecc00b04cf456b18e172bba"><polygon fill="none" points="16,16,26,6,344,6,344,298.79,334,308.79,16,308.79,16,16" style="stroke:#181818;stroke-width:1.0;"/><line style="stroke:#181818;stroke-width:1.0;" x1="334" x2="344" y1="16" y2="6"/><line style="stroke:#181818;stroke-width:1.0;" x1="16" x2="334" y1="16" y2="16"/><line style="stroke:#181818;stroke-width:1.0;" x1="334" x2="334" y1="16" y2="308.79"/><text fill="#000000" font-family="sans-serif" font-size="14" font-weight="bold" lengthAdjust="spacing" textLength="125" x="113.5" y="31.9951">Plantuml-server</text></g><!--cluster d2a57dc1d883fd21fb9951699df71cc7--><g id="cluster_d2a57dc1d883fd21fb9951699df71cc7"><polygon fill="none" points="368,32.3,378,22.3,775,22.3,775,536.08,765,546.08,368,546.08,368,32.3" style="stroke:#181818;stroke-width:1.0;"/><line style="stroke:#181818;stroke-width:1.0;" x1="765" x2="775" y1="32.3" y2="22.3"/><line style="stroke:#181818;stroke-width:1.0;" x1="368" x2="765" y1="32.3" y2="32.3"/><line style="stroke:#181818;stroke-width:1.0;" x1="765" x2="765" y1="32.3" y2="546.08"/><text fill="#000000" font-family="sans-serif" font-size="14" font-weight="bold" lengthAdjust="spacing" textLength="31" x="552" y="48.2951">App</text></g><!--entity 6cec62b19a20c63d1b6535f2688de974--><g id="elem_6cec62b19a20c63d1b6535f2688de974"><rect fill="#F1F1F1" height="127.7813" rx="2.5" ry="2.5" style="stroke:#181818;stroke-width:0.5;" width="296" x="32" y="46"/><rect fill="#F1F1F1" height="10" style="stroke:#181818;stroke-width:0.5;" width="15" x="308" y="51"/><rect fill="#F1F1F1" height="2" style="stroke:#181818;stroke-width:0.5;" width="4" x="306" y="53"/><rect fill="#F1F1F1" height="2" style="stroke:#181818;stroke-width:0.5;" width="4" x="306" y="57"/><text fill="#000000" font-family="sans-serif" font-size="14" font-weight="bold" lengthAdjust="spacing" textLength="67" x="47" y="78.9951">Plantuml</text><text fill="#000000" font-family="sans-serif" font-size="14" lengthAdjust="spacing" textLength="4" x="47" y="95.292">&#160;</text><text fill="#000000" font-family="sans-serif" font-size="14" lengthAdjust="spacing" textLength="256" x="47" y="111.5889">image: plantuml/plantuml-server:jetty</text><text fill="#000000" font-family="sans-serif" font-size="14" lengthAdjust="spacing" textLength="247" x="47" y="127.8857">environment: BASE_URL=plantuml2</text><text fill="#000000" font-family="sans-serif" font-size="14" lengthAdjust="spacing" textLength="61" x="47" y="144.1826">text: text</text><text fill="#000000" font-family="sans-serif" font-size="14" lengthAdjust="spacing" textLength="4" x="47" y="160.4795">&#160;</text></g><!--entity 18eb8329fc6fdb6f429a02d04f286599--><g id="elem_18eb8329fc6fdb6f429a02d04f286599"><ellipse cx="180" cy="263.79" fill="#F1F1F1" rx="8" ry="8" style="stroke:#181818;stroke-width:0.5;"/><text fill="#000000" font-family="sans-serif" font-size="14" lengthAdjust="spacing" textLength="36" x="162" y="293.7851">8080</text></g><!--entity 90864b398c54ba1a31949f1dc8f522f9--><g id="elem_90864b398c54ba1a31949f1dc8f522f9"><rect fill="#F1F1F1" height="95.1875" rx="2.5" ry="2.5" style="stroke:#181818;stroke-width:0.5;" width="139" x="477.5" y="62.3"/><rect fill="#F1F1F1" height="10" style="stroke:#181818;stroke-width:0.5;" width="15" x="596.5" y="67.3"/><rect fill="#F1F1F1" height="2" style="stroke:#181818;stroke-width:0.5;" width="4" x="594.5" y="69.3"/><rect fill="#F1F1F1" height="2" style="stroke:#181818;stroke-width:0.5;" width="4" x="594.5" y="73.3"/><text fill="#000000" font-family="sans-serif" font-size="14" font-weight="bold" lengthAdjust="spacing" textLength="88" x="492.5" y="95.2951">django-app</text><text fill="#000000" font-family="sans-serif" font-size="14" lengthAdjust="spacing" textLength="4" x="492.5" y="111.592">&#160;</text><text fill="#000000" font-family="sans-serif" font-size="14" lengthAdjust="spacing" textLength="99" x="492.5" y="127.8889">restart: always</text><text fill="#000000" font-family="sans-serif" font-size="14" lengthAdjust="spacing" textLength="4" x="492.5" y="144.1857">&#160;</text></g><!--entity 48871f9ddd61de6056759e86342fe397--><g id="elem_48871f9ddd61de6056759e86342fe397"><rect fill="#F1F1F1" height="39.2969" rx="2.5" ry="2.5" style="stroke:#181818;stroke-width:0.5;" width="120" x="384" y="490.79"/><polygon fill="#F1F1F1" points="487,495.79,487,509.79,499,509.79,499,501.79,493,495.79,487,495.79" style="stroke:#181818;stroke-width:0.5;"/><line style="stroke:#181818;stroke-width:0.5;" x1="493" x2="493" y1="495.79" y2="501.79"/><line style="stroke:#181818;stroke-width:0.5;" x1="499" x2="493" y1="501.79" y2="501.79"/><text fill="#000000" font-family="sans-serif" font-size="14" lengthAdjust="spacing" textLength="90" x="394" y="516.7851">/infra_crawler</text></g><!--entity 5e07b5c6520b9f500d4b371c306e53c8--><g id="elem_5e07b5c6520b9f500d4b371c306e53c8"><rect fill="#F1F1F1" height="39.2969" rx="2.5" ry="2.5" style="stroke:#181818;stroke-width:0.5;" width="220" x="539" y="490.79"/><polygon fill="#F1F1F1" points="742,495.79,742,509.79,754,509.79,754,501.79,748,495.79,742,495.79" style="stroke:#181818;stroke-width:0.5;"/><line style="stroke:#181818;stroke-width:0.5;" x1="748" x2="748" y1="495.79" y2="501.79"/><line style="stroke:#181818;stroke-width:0.5;" x1="754" x2="748" y1="501.79" y2="501.79"/><text fill="#000000" font-family="sans-serif" font-size="14" lengthAdjust="spacing" textLength="190" x="549" y="516.7851">/infra_crawler/app/staticfiles</text></g><!--entity 600c44c1349e9154dce569ba37e2d70b--><g id="elem_600c44c1349e9154dce569ba37e2d70b"><ellipse cx="180" cy="400.79" fill="#F1F1F1" rx="8" ry="8" style="stroke:#181818;stroke-width:0.5;"/><text fill="#000000" font-family="sans-serif" font-size="14" lengthAdjust="spacing" textLength="36" x="162" y="430.7851">8080</text></g><!--entity 73d99f61cf21f8768f6271f1b1e3cb79--><g id="elem_73d99f61cf21f8768f6271f1b1e3cb79"><rect fill="#F1F1F1" height="39.2969" rx="2.5" ry="2.5" style="stroke:#181818;stroke-width:0.5;" width="124" x="382" y="609.08"/><polygon fill="#F1F1F1" points="489,614.08,489,628.08,501,628.08,501,620.08,495,614.08,489,614.08" style="stroke:#181818;stroke-width:0.5;"/><line style="stroke:#181818;stroke-width:0.5;" x1="495" x2="495" y1="614.08" y2="620.08"/><line style="stroke:#181818;stroke-width:0.5;" x1="501" x2="495" y1="620.08" y2="620.08"/><text fill="#000000" font-family="sans-serif" font-size="14" lengthAdjust="spacing" textLength="94" x="392" y="635.0751">./infra_crawler</text></g><!--entity 02333efa2bf4b0344924cb9dbec6e9b2--><g id="elem_02333efa2bf4b0344924cb9dbec6e9b2"><rect fill="#F1F1F1" height="39.2969" rx="2.5" ry="2.5" style="stroke:#181818;stroke-width:0.5;" width="124" x="587" y="609.08"/><polygon fill="#F1F1F1" points="694,614.08,694,628.08,706,628.08,706,620.08,700,614.08,694,614.08" style="stroke:#181818;stroke-width:0.5;"/><line style="stroke:#181818;stroke-width:0.5;" x1="700" x2="700" y1="614.08" y2="620.08"/><line style="stroke:#181818;stroke-width:0.5;" x1="706" x2="700" y1="620.08" y2="620.08"/><text fill="#000000" font-family="sans-serif" font-size="14" lengthAdjust="spacing" textLength="94" x="597" y="635.0751">static_volume</text></g><!--link 6cec62b19a20c63d1b6535f2688de974 to 18eb8329fc6fdb6f429a02d04f286599--><g id="link_6cec62b19a20c63d1b6535f2688de974_18eb8329fc6fdb6f429a02d04f286599"><path codeLine="26" d="M180,173.99 C180,205.62 180,240.3 180,255.25 " fill="none" id="6cec62b19a20c63d1b6535f2688de974-18eb8329fc6fdb6f429a02d04f286599" style="stroke:#181818;stroke-width:1.0;"/></g><!--link 18eb8329fc6fdb6f429a02d04f286599 to 600c44c1349e9154dce569ba37e2d70b--><g id="link_18eb8329fc6fdb6f429a02d04f286599_600c44c1349e9154dce569ba37e2d70b"><path codeLine="27" d="M180,272.43 C180,296.08 180,367.9 180,391.89 " fill="none" id="18eb8329fc6fdb6f429a02d04f286599-600c44c1349e9154dce569ba37e2d70b" style="stroke:#181818;stroke-width:1.0;"/></g><!--link 48871f9ddd61de6056759e86342fe397 to 73d99f61cf21f8768f6271f1b1e3cb79--><g id="link_48871f9ddd61de6056759e86342fe397_73d99f61cf21f8768f6271f1b1e3cb79"><path codeLine="28" d="M444,530.38 C444,552 444,587.17 444,608.8 " fill="none" id="48871f9ddd61de6056759e86342fe397-73d99f61cf21f8768f6271f1b1e3cb79" style="stroke:#181818;stroke-width:1.0;"/><text fill="#000000" font-family="sans-serif" font-size="13" lengthAdjust="spacing" textLength="14" x="445" y="575.1469">rw</text></g><!--link 90864b398c54ba1a31949f1dc8f522f9 to 48871f9ddd61de6056759e86342fe397--><g id="link_90864b398c54ba1a31949f1dc8f522f9_48871f9ddd61de6056759e86342fe397"><path codeLine="29" d="M534.88,157.79 C512.23,245.44 465.8621,424.8611 450.4121,484.6111 " fill="none" id="90864b398c54ba1a31949f1dc8f522f9-to-48871f9ddd61de6056759e86342fe397" style="stroke:#181818;stroke-width:1.0;stroke-dasharray:7.0,7.0;"/><polygon fill="#181818" points="448.91,490.42,455.0357,482.708,450.1617,485.5792,447.2905,480.7052,448.91,490.42" style="stroke:#181818;stroke-width:1.0;"/><text fill="#000000" font-family="sans-serif" font-size="13" lengthAdjust="spacing" textLength="23" x="492" y="337.8569">use</text></g><!--link 5e07b5c6520b9f500d4b371c306e53c8 to 02333efa2bf4b0344924cb9dbec6e9b2--><g id="link_5e07b5c6520b9f500d4b371c306e53c8_02333efa2bf4b0344924cb9dbec6e9b2"><path codeLine="30" d="M649,530.38 C649,552 649,587.17 649,608.8 " fill="none" id="5e07b5c6520b9f500d4b371c306e53c8-02333efa2bf4b0344924cb9dbec6e9b2" style="stroke:#181818;stroke-width:1.0;"/><text fill="#000000" font-family="sans-serif" font-size="13" lengthAdjust="spacing" textLength="14" x="650" y="575.1469">rw</text></g><!--link 90864b398c54ba1a31949f1dc8f522f9 to 5e07b5c6520b9f500d4b371c306e53c8--><g id="link_90864b398c54ba1a31949f1dc8f522f9_5e07b5c6520b9f500d4b371c306e53c8"><path codeLine="31" d="M559,157.79 C581.43,245.44 627.3525,424.8573 642.6425,484.6073 " fill="none" id="90864b398c54ba1a31949f1dc8f522f9-to-5e07b5c6520b9f500d4b371c306e53c8" style="stroke:#181818;stroke-width:1.0;stroke-dasharray:7.0,7.0;"/><polygon fill="#181818" points="644.13,490.42,645.7739,480.7093,642.8904,485.5761,638.0237,482.6926,644.13,490.42" style="stroke:#181818;stroke-width:1.0;"/><text fill="#000000" font-family="sans-serif" font-size="13" lengthAdjust="spacing" textLength="23" x="606" y="337.8569">use</text></g><!--SRC=[bP9BYzim58Nt-XN2gpQGH6_f1bgOGdTTb9QkIWbwN0KFVk4uoGob_xsAcu49j9Xk3BPrx_dEqV5Dqr_Q-gdk3gJh4zBgS-ExwTGswoEEPnmhwe_K2HM5PaPZZ8m5fc9MsWJka5iHWgS_2OrzE_GTTXCr4QCHWOCNB1gPU31QwYoCSmd1AlgTh5OlCgiL8NNh3xYZm-tJThX7s3tYD3qJxCxrs7TjaTZH3mzVF-w_VVdqxkMi81C-bH_N9o4_o9ktj7BCiPc_W0Od1UHeSWecAm6UYSHK5ive0FBhPlvX6EQ19BosAVBadCn9y1m0D3S0ALiUexqt3CmP5IIug5Nmt4iE2Z9FqMKjH8RPS7hqtQ5V-s6uMXxnEFcnyFhcuf-FL-BoMcSV9rfjwowFVXz7VsbkDw2Sipn3IidmX8PfOpMWCrA9Z1BiFwUtHN1RjAOwvhh1uxnD8xD1HwC52v0rOwdW5sEI6TGokfB7NNw6iQXKv5810jSgHTG6WfSMHR8il5BV_0NUoWIG3O-v9EciSTc8ueO7ZZ862w_6_v3kptrpQd4UPa9AYTcBa5LWKYaePGoGGYaPGX1aiMxhj5vkmDA1USjY3alND6zPYeFkQ3LUAh9OgyqcRJRl5xjntNSwOaMMhdscMyhxV-aMHMzqlm40]--></g></svg>