<svg xmlns="http://www.w3.org/2000/svg" xmlns:xlink="http://www.w3.org/1999/xlink" contentStyleType="text/css" height="638px" preserveAspectRatio="none" style="width:3209px;height:638px;background:#FFFFFF;" version="1.1" viewBox="0 0 3209 638" width="3209px" zoomAndPan="magnify"><defs/><g><!--cluster 824c25065ecc00b04cf456b18e172bba--><g id="cluster_824c25065ecc00b04cf456b18e172bba"><polygon fill="none" points="16,16,26,6,344,6,344,282.49,334,292.49,16,292.49,16,16" style="stroke:#181818;stroke-width:1.0;"/><line style="stroke:#181818;stroke-width:1.0;" x1="334" x2="344" y1="16" y2="6"/><line style="stroke:#181818;stroke-width:1.0;" x1="16" x2="334" y1="16" y2="16"/><line style="stroke:#181818;stroke-width:1.0;" x1="334" x2="334" y1="16" y2="292.49"/><text fill="#000000" font-family="sans-serif" font-size="14" font-weight="bold" lengthAdjust="spacing" textLength="125" x="113.5" y="31.9951">Plantuml-server</text></g><!--cluster 2199ace55d43ccccac9c1d7a9f4a5b7b--><g id="cluster_2199ace55d43ccccac9c1d7a9f4a5b7b"><polygon fill="none" points="368,24.15,378,14.15,720,14.15,720,282.49,710,292.49,368,292.49,368,24.15" style="stroke:#181818;stroke-width:1.0;"/><line style="stroke:#181818;stroke-width:1.0;" x1="710" x2="720" y1="24.15" y2="14.15"/><line style="stroke:#181818;stroke-width:1.0;" x1="368" x2="710" y1="24.15" y2="24.15"/><line style="stroke:#181818;stroke-width:1.0;" x1="710" x2="710" y1="24.15" y2="292.49"/><text fill="#000000" font-family="sans-serif" font-size="14" font-weight="bold" lengthAdjust="spacing" textLength="87" x="496.5" y="40.1451">Zookeeper</text></g><!--cluster 541661622185851c248b41bf0cea7ad0--><g id="cluster_541661622185851c248b41bf0cea7ad0"><polygon fill="none" points="744,24.15,754,14.15,1058,14.15,1058,282.49,1048,292.49,744,292.49,744,24.15" style="stroke:#181818;stroke-width:1.0;"/><line style="stroke:#181818;stroke-width:1.0;" x1="1048" x2="1058" y1="24.15" y2="14.15"/><line style="stroke:#181818;stroke-width:1.0;" x1="744" x2="1048" y1="24.15" y2="24.15"/><line style="stroke:#181818;stroke-width:1.0;" x1="1048" x2="1048" y1="24.15" y2="292.49"/><text fill="#000000" font-family="sans-serif" font-size="14" font-weight="bold" lengthAdjust="spacing" textLength="44" x="875" y="40.1451">Kafka</text></g><!--cluster d2a57dc1d883fd21fb9951699df71cc7--><g id="cluster_d2a57dc1d883fd21fb9951699df71cc7"><polygon fill="none" points="1082,24.15,1092,14.15,1489,14.15,1489,519.78,1479,529.78,1082,529.78,1082,24.15" style="stroke:#181818;stroke-width:1.0;"/><line style="stroke:#181818;stroke-width:1.0;" x1="1479" x2="1489" y1="24.15" y2="14.15"/><line style="stroke:#181818;stroke-width:1.0;" x1="1082" x2="1479" y1="24.15" y2="24.15"/><line style="stroke:#181818;stroke-width:1.0;" x1="1479" x2="1479" y1="24.15" y2="529.78"/><text fill="#000000" font-family="sans-serif" font-size="14" font-weight="bold" lengthAdjust="spacing" textLength="31" x="1266" y="40.1451">App</text></g><!--cluster ee434023cf89d7dfb21f63d64f0f9d74--><g id="cluster_ee434023cf89d7dfb21f63d64f0f9d74"><polygon fill="none" points="1668,24.15,1678,14.15,2463,14.15,2463,519.78,2453,529.78,1668,529.78,1668,24.15" style="stroke:#181818;stroke-width:1.0;"/><line style="stroke:#181818;stroke-width:1.0;" x1="2453" x2="2463" y1="24.15" y2="14.15"/><line style="stroke:#181818;stroke-width:1.0;" x1="1668" x2="2453" y1="24.15" y2="24.15"/><line style="stroke:#181818;stroke-width:1.0;" x1="2453" x2="2453" y1="24.15" y2="529.78"/><text fill="#000000" font-family="sans-serif" font-size="14" font-weight="bold" lengthAdjust="spacing" textLength="44" x="2039.5" y="40.1451">Nginx</text></g><!--cluster c90005181a2b6cbfffcbb134179c59b8--><g id="cluster_c90005181a2b6cbfffcbb134179c59b8"><polygon fill="none" points="2487,32.3,2497,22.3,2842,22.3,2842,519.78,2832,529.78,2487,529.78,2487,32.3" style="stroke:#181818;stroke-width:1.0;"/><line style="stroke:#181818;stroke-width:1.0;" x1="2832" x2="2842" y1="32.3" y2="22.3"/><line style="stroke:#181818;stroke-width:1.0;" x1="2487" x2="2832" y1="32.3" y2="32.3"/><line style="stroke:#181818;stroke-width:1.0;" x1="2832" x2="2832" y1="32.3" y2="529.78"/><text fill="#000000" font-family="sans-serif" font-size="14" font-weight="bold" lengthAdjust="spacing" textLength="60" x="2630.5" y="48.2951">Certbot</text></g><!--cluster 9d3bb895f22bf0afa958d68c2a58ded7--><g id="cluster_9d3bb895f22bf0afa958d68c2a58ded7"><polygon fill="none" points="2866,24.15,2876,14.15,3192,14.15,3192,519.78,3182,529.78,2866,529.78,2866,24.15" style="stroke:#181818;stroke-width:1.0;"/><line style="stroke:#181818;stroke-width:1.0;" x1="3182" x2="3192" y1="24.15" y2="14.15"/><line style="stroke:#181818;stroke-width:1.0;" x1="2866" x2="3182" y1="24.15" y2="24.15"/><line style="stroke:#181818;stroke-width:1.0;" x1="3182" x2="3182" y1="24.15" y2="529.78"/><text fill="#000000" font-family="sans-serif" font-size="14" font-weight="bold" lengthAdjust="spacing" textLength="38" x="3006" y="40.1451">Cron</text></g><!--entity 6cec62b19a20c63d1b6535f2688de974--><g id="elem_6cec62b19a20c63d1b6535f2688de974"><rect fill="#F1F1F1" height="111.4844" rx="2.5" ry="2.5" style="stroke:#181818;stroke-width:0.5;" width="296" x="32" y="46"/><rect fill="#F1F1F1" height="10" style="stroke:#181818;stroke-width:0.5;" width="15" x="308" y="51"/><rect fill="#F1F1F1" height="2" style="stroke:#181818;stroke-width:0.5;" width="4" x="306" y="53"/><rect fill="#F1F1F1" height="2" style="stroke:#181818;stroke-width:0.5;" width="4" x="306" y="57"/><text fill="#000000" font-family="sans-serif" font-size="14" font-weight="bold" lengthAdjust="spacing" textLength="125" x="47" y="78.9951">plantuml-server</text><text fill="#000000" font-family="sans-serif" font-size="14" lengthAdjust="spacing" textLength="4" x="47" y="95.292">&#160;</text><text fill="#000000" font-family="sans-serif" font-size="14" lengthAdjust="spacing" textLength="256" x="47" y="111.5889">image: plantuml/plantuml-server:jetty</text><text fill="#000000" font-family="sans-serif" font-size="14" lengthAdjust="spacing" textLength="238" x="47" y="127.8857">environment: BASE_URL=plantuml</text><text fill="#000000" font-family="sans-serif" font-size="14" lengthAdjust="spacing" textLength="4" x="47" y="144.1826">&#160;</text></g><!--entity 18eb8329fc6fdb6f429a02d04f286599--><g id="elem_18eb8329fc6fdb6f429a02d04f286599"><ellipse cx="180" cy="247.49" fill="#F1F1F1" rx="8" ry="8" style="stroke:#181818;stroke-width:0.5;"/><text fill="#000000" font-family="sans-serif" font-size="14" lengthAdjust="spacing" textLength="36" x="162" y="277.4851">8080</text></g><!--entity e08de8ee1b7bd0e45201edaf78ba4697--><g id="elem_e08de8ee1b7bd0e45201edaf78ba4697"><rect fill="#F1F1F1" height="95.1875" rx="2.5" ry="2.5" style="stroke:#181818;stroke-width:0.5;" width="321" x="383.5" y="54.15"/><rect fill="#F1F1F1" height="10" style="stroke:#181818;stroke-width:0.5;" width="15" x="684.5" y="59.15"/><rect fill="#F1F1F1" height="2" style="stroke:#181818;stroke-width:0.5;" width="4" x="682.5" y="61.15"/><rect fill="#F1F1F1" height="2" style="stroke:#181818;stroke-width:0.5;" width="4" x="682.5" y="65.15"/><text fill="#000000" font-family="sans-serif" font-size="14" font-weight="bold" lengthAdjust="spacing" textLength="85" x="398.5" y="87.1451">zookeeper</text><text fill="#000000" font-family="sans-serif" font-size="14" lengthAdjust="spacing" textLength="4" x="398.5" y="103.442">&#160;</text><text fill="#000000" font-family="sans-serif" font-size="14" lengthAdjust="spacing" textLength="281" x="398.5" y="119.7389">image: confluentinc/cp-zookeeper:latest</text><text fill="#000000" font-family="sans-serif" font-size="14" lengthAdjust="spacing" textLength="4" x="398.5" y="136.0357">&#160;</text></g><!--entity ece32d11de04ea9b6e1403bb711bc958--><g id="elem_ece32d11de04ea9b6e1403bb711bc958"><ellipse cx="544" cy="247.49" fill="#F1F1F1" rx="8" ry="8" style="stroke:#181818;stroke-width:0.5;"/><text fill="#000000" font-family="sans-serif" font-size="14" lengthAdjust="spacing" textLength="36" x="526" y="277.4851">2181</text></g><!--entity 349a83bb472f89aafc32c286b36aadbc--><g id="elem_349a83bb472f89aafc32c286b36aadbc"><rect fill="#F1F1F1" height="95.1875" rx="2.5" ry="2.5" style="stroke:#181818;stroke-width:0.5;" width="282" x="760" y="54.15"/><rect fill="#F1F1F1" height="10" style="stroke:#181818;stroke-width:0.5;" width="15" x="1022" y="59.15"/><rect fill="#F1F1F1" height="2" style="stroke:#181818;stroke-width:0.5;" width="4" x="1020" y="61.15"/><rect fill="#F1F1F1" height="2" style="stroke:#181818;stroke-width:0.5;" width="4" x="1020" y="65.15"/><text fill="#000000" font-family="sans-serif" font-size="14" font-weight="bold" lengthAdjust="spacing" textLength="42" x="775" y="87.1451">kafka</text><text fill="#000000" font-family="sans-serif" font-size="14" lengthAdjust="spacing" textLength="4" x="775" y="103.442">&#160;</text><text fill="#000000" font-family="sans-serif" font-size="14" lengthAdjust="spacing" textLength="242" x="775" y="119.7389">image: confluentinc/cp-kafka:latest</text><text fill="#000000" font-family="sans-serif" font-size="14" lengthAdjust="spacing" textLength="4" x="775" y="136.0357">&#160;</text></g><!--entity 6adbba7d1bab26e0203b790ae0adb380--><g id="elem_6adbba7d1bab26e0203b790ae0adb380"><ellipse cx="901" cy="247.49" fill="#F1F1F1" rx="8" ry="8" style="stroke:#181818;stroke-width:0.5;"/><text fill="#000000" font-family="sans-serif" font-size="14" lengthAdjust="spacing" textLength="45" x="878.5" y="277.4851">29092</text></g><!--entity 90864b398c54ba1a31949f1dc8f522f9--><g id="elem_90864b398c54ba1a31949f1dc8f522f9"><rect fill="#F1F1F1" height="95.1875" rx="2.5" ry="2.5" style="stroke:#181818;stroke-width:0.5;" width="139" x="1191.5" y="54.15"/><rect fill="#F1F1F1" height="10" style="stroke:#181818;stroke-width:0.5;" width="15" x="1310.5" y="59.15"/><rect fill="#F1F1F1" height="2" style="stroke:#181818;stroke-width:0.5;" width="4" x="1308.5" y="61.15"/><rect fill="#F1F1F1" height="2" style="stroke:#181818;stroke-width:0.5;" width="4" x="1308.5" y="65.15"/><text fill="#000000" font-family="sans-serif" font-size="14" font-weight="bold" lengthAdjust="spacing" textLength="88" x="1206.5" y="87.1451">django-app</text><text fill="#000000" font-family="sans-serif" font-size="14" lengthAdjust="spacing" textLength="4" x="1206.5" y="103.442">&#160;</text><text fill="#000000" font-family="sans-serif" font-size="14" lengthAdjust="spacing" textLength="99" x="1206.5" y="119.7389">restart: always</text><text fill="#000000" font-family="sans-serif" font-size="14" lengthAdjust="spacing" textLength="4" x="1206.5" y="136.0357">&#160;</text></g><!--entity 48871f9ddd61de6056759e86342fe397--><g id="elem_48871f9ddd61de6056759e86342fe397"><rect fill="#F1F1F1" height="39.2969" rx="2.5" ry="2.5" style="stroke:#181818;stroke-width:0.5;" width="120" x="1098" y="474.49"/><polygon fill="#F1F1F1" points="1201,479.49,1201,493.49,1213,493.49,1213,485.49,1207,479.49,1201,479.49" style="stroke:#181818;stroke-width:0.5;"/><line style="stroke:#181818;stroke-width:0.5;" x1="1207" x2="1207" y1="479.49" y2="485.49"/><line style="stroke:#181818;stroke-width:0.5;" x1="1213" x2="1207" y1="485.49" y2="485.49"/><text fill="#000000" font-family="sans-serif" font-size="14" lengthAdjust="spacing" textLength="90" x="1108" y="500.4851">/infra_crawler</text></g><!--entity 5e07b5c6520b9f500d4b371c306e53c8--><g id="elem_5e07b5c6520b9f500d4b371c306e53c8"><rect fill="#F1F1F1" height="39.2969" rx="2.5" ry="2.5" style="stroke:#181818;stroke-width:0.5;" width="220" x="1253" y="474.49"/><polygon fill="#F1F1F1" points="1456,479.49,1456,493.49,1468,493.49,1468,485.49,1462,479.49,1456,479.49" style="stroke:#181818;stroke-width:0.5;"/><line style="stroke:#181818;stroke-width:0.5;" x1="1462" x2="1462" y1="479.49" y2="485.49"/><line style="stroke:#181818;stroke-width:0.5;" x1="1468" x2="1462" y1="485.49" y2="485.49"/><text fill="#000000" font-family="sans-serif" font-size="14" lengthAdjust="spacing" textLength="190" x="1263" y="500.4851">/infra_crawler/app/staticfiles</text></g><!--entity 02afd862d04e83ed8e2004eacc5b6db9--><g id="elem_02afd862d04e83ed8e2004eacc5b6db9"><rect fill="#F1F1F1" height="95.1875" rx="2.5" ry="2.5" style="stroke:#181818;stroke-width:0.5;" width="203" x="1871.5" y="54.15"/><rect fill="#F1F1F1" height="10" style="stroke:#181818;stroke-width:0.5;" width="15" x="2054.5" y="59.15"/><rect fill="#F1F1F1" height="2" style="stroke:#181818;stroke-width:0.5;" width="4" x="2052.5" y="61.15"/><rect fill="#F1F1F1" height="2" style="stroke:#181818;stroke-width:0.5;" width="4" x="2052.5" y="65.15"/><text fill="#000000" font-family="sans-serif" font-size="14" font-weight="bold" lengthAdjust="spacing" textLength="101" x="1886.5" y="87.1451">nginx-server</text><text fill="#000000" font-family="sans-serif" font-size="14" lengthAdjust="spacing" textLength="4" x="1886.5" y="103.442">&#160;</text><text fill="#000000" font-family="sans-serif" font-size="14" lengthAdjust="spacing" textLength="163" x="1886.5" y="119.7389">restart: unless-stopped</text><text fill="#000000" font-family="sans-serif" font-size="14" lengthAdjust="spacing" textLength="4" x="1886.5" y="136.0357">&#160;</text></g><!--entity 3a61031652ff80665f419f821c1ac407--><g id="elem_3a61031652ff80665f419f821c1ac407"><ellipse cx="1864" cy="247.49" fill="#F1F1F1" rx="8" ry="8" style="stroke:#181818;stroke-width:0.5;"/><text fill="#000000" font-family="sans-serif" font-size="14" lengthAdjust="spacing" textLength="27" x="1850.5" y="277.4851">443</text></g><!--entity 97b04832e42a04c7beb04c21e560b3fb--><g id="elem_97b04832e42a04c7beb04c21e560b3fb"><ellipse cx="1754" cy="247.49" fill="#F1F1F1" rx="8" ry="8" style="stroke:#181818;stroke-width:0.5;"/><text fill="#000000" font-family="sans-serif" font-size="14" lengthAdjust="spacing" textLength="18" x="1745" y="277.4851">80</text></g><!--entity feb445bcd0c040198341918ff2d4fe78--><g id="elem_feb445bcd0c040198341918ff2d4fe78"><rect fill="#F1F1F1" height="39.2969" rx="2.5" ry="2.5" style="stroke:#181818;stroke-width:0.5;" width="220" x="1684" y="474.49"/><polygon fill="#F1F1F1" points="1887,479.49,1887,493.49,1899,493.49,1899,485.49,1893,479.49,1887,479.49" style="stroke:#181818;stroke-width:0.5;"/><line style="stroke:#181818;stroke-width:0.5;" x1="1893" x2="1893" y1="479.49" y2="485.49"/><line style="stroke:#181818;stroke-width:0.5;" x1="1899" x2="1893" y1="485.49" y2="485.49"/><text fill="#000000" font-family="sans-serif" font-size="14" lengthAdjust="spacing" textLength="190" x="1694" y="500.4851">/infra_crawler/app/staticfiles</text></g><!--entity 2fa7031e2dc022b03ff52ea31d0b38a8--><g id="elem_2fa7031e2dc022b03ff52ea31d0b38a8"><rect fill="#F1F1F1" height="39.2969" rx="2.5" ry="2.5" style="stroke:#181818;stroke-width:0.5;" width="139" x="2124.5" y="474.49"/><polygon fill="#F1F1F1" points="2246.5,479.49,2246.5,493.49,2258.5,493.49,2258.5,485.49,2252.5,479.49,2246.5,479.49" style="stroke:#181818;stroke-width:0.5;"/><line style="stroke:#181818;stroke-width:0.5;" x1="2252.5" x2="2252.5" y1="479.49" y2="485.49"/><line style="stroke:#181818;stroke-width:0.5;" x1="2258.5" x2="2252.5" y1="485.49" y2="485.49"/><text fill="#000000" font-family="sans-serif" font-size="14" lengthAdjust="spacing" textLength="109" x="2134.5" y="500.4851">/etc/letsencrypt</text></g><!--entity d8a3f0fbb8decd75a2abaa2cf0995f5e--><g id="elem_d8a3f0fbb8decd75a2abaa2cf0995f5e"><rect fill="#F1F1F1" height="39.2969" rx="2.5" ry="2.5" style="stroke:#181818;stroke-width:0.5;" width="148" x="2299" y="474.49"/><polygon fill="#F1F1F1" points="2430,479.49,2430,493.49,2442,493.49,2442,485.49,2436,479.49,2430,479.49" style="stroke:#181818;stroke-width:0.5;"/><line style="stroke:#181818;stroke-width:0.5;" x1="2436" x2="2436" y1="479.49" y2="485.49"/><line style="stroke:#181818;stroke-width:0.5;" x1="2442" x2="2436" y1="485.49" y2="485.49"/><text fill="#000000" font-family="sans-serif" font-size="14" lengthAdjust="spacing" textLength="118" x="2309" y="500.4851">/var/www/certbot</text></g><!--entity 23b1b729f9899522b85a42067de034a3--><g id="elem_23b1b729f9899522b85a42067de034a3"><rect fill="#F1F1F1" height="39.2969" rx="2.5" ry="2.5" style="stroke:#181818;stroke-width:0.5;" width="150" x="1939" y="474.49"/><polygon fill="#F1F1F1" points="2072,479.49,2072,493.49,2084,493.49,2084,485.49,2078,479.49,2072,479.49" style="stroke:#181818;stroke-width:0.5;"/><line style="stroke:#181818;stroke-width:0.5;" x1="2078" x2="2078" y1="479.49" y2="485.49"/><line style="stroke:#181818;stroke-width:0.5;" x1="2084" x2="2078" y1="485.49" y2="485.49"/><text fill="#000000" font-family="sans-serif" font-size="14" lengthAdjust="spacing" textLength="120" x="1949" y="500.4851">/etc/nginx/vhosts</text></g><!--entity b2e5a6b1daa1b905edcf88ba35110a2c--><g id="elem_b2e5a6b1daa1b905edcf88ba35110a2c"><rect fill="#F1F1F1" height="78.8906" rx="2.5" ry="2.5" style="stroke:#181818;stroke-width:0.5;" width="81" x="2621.5" y="62.3"/><rect fill="#F1F1F1" height="10" style="stroke:#181818;stroke-width:0.5;" width="15" x="2682.5" y="67.3"/><rect fill="#F1F1F1" height="2" style="stroke:#181818;stroke-width:0.5;" width="4" x="2680.5" y="69.3"/><rect fill="#F1F1F1" height="2" style="stroke:#181818;stroke-width:0.5;" width="4" x="2680.5" y="73.3"/><text fill="#000000" font-family="sans-serif" font-size="14" font-weight="bold" lengthAdjust="spacing" textLength="41" x="2636.5" y="95.2951">certs</text><text fill="#000000" font-family="sans-serif" font-size="14" lengthAdjust="spacing" textLength="4" x="2636.5" y="111.592">&#160;</text><text fill="#000000" font-family="sans-serif" font-size="14" lengthAdjust="spacing" textLength="4" x="2636.5" y="127.8889">&#160;</text></g><!--entity 4f5bbfba023abcad1d457e30dd56ffa2--><g id="elem_4f5bbfba023abcad1d457e30dd56ffa2"><rect fill="#F1F1F1" height="39.2969" rx="2.5" ry="2.5" style="stroke:#181818;stroke-width:0.5;" width="139" x="2503.5" y="474.49"/><polygon fill="#F1F1F1" points="2625.5,479.49,2625.5,493.49,2637.5,493.49,2637.5,485.49,2631.5,479.49,2625.5,479.49" style="stroke:#181818;stroke-width:0.5;"/><line style="stroke:#181818;stroke-width:0.5;" x1="2631.5" x2="2631.5" y1="479.49" y2="485.49"/><line style="stroke:#181818;stroke-width:0.5;" x1="2637.5" x2="2631.5" y1="485.49" y2="485.49"/><text fill="#000000" font-family="sans-serif" font-size="14" lengthAdjust="spacing" textLength="109" x="2513.5" y="500.4851">/etc/letsencrypt</text></g><!--entity adb224ccfeb4c419f45fa9b10375c326--><g id="elem_adb224ccfeb4c419f45fa9b10375c326"><rect fill="#F1F1F1" height="39.2969" rx="2.5" ry="2.5" style="stroke:#181818;stroke-width:0.5;" width="148" x="2678" y="474.49"/><polygon fill="#F1F1F1" points="2809,479.49,2809,493.49,2821,493.49,2821,485.49,2815,479.49,2809,479.49" style="stroke:#181818;stroke-width:0.5;"/><line style="stroke:#181818;stroke-width:0.5;" x1="2815" x2="2815" y1="479.49" y2="485.49"/><line style="stroke:#181818;stroke-width:0.5;" x1="2821" x2="2815" y1="485.49" y2="485.49"/><text fill="#000000" font-family="sans-serif" font-size="14" lengthAdjust="spacing" textLength="118" x="2688" y="500.4851">/var/www/certbot</text></g><!--entity ede0da965a02d6ed8de7d7a0ab067969--><g id="elem_ede0da965a02d6ed8de7d7a0ab067969"><rect fill="#F1F1F1" height="95.1875" rx="2.5" ry="2.5" style="stroke:#181818;stroke-width:0.5;" width="203" x="2922.5" y="54.15"/><rect fill="#F1F1F1" height="10" style="stroke:#181818;stroke-width:0.5;" width="15" x="3105.5" y="59.15"/><rect fill="#F1F1F1" height="2" style="stroke:#181818;stroke-width:0.5;" width="4" x="3103.5" y="61.15"/><rect fill="#F1F1F1" height="2" style="stroke:#181818;stroke-width:0.5;" width="4" x="3103.5" y="65.15"/><text fill="#000000" font-family="sans-serif" font-size="14" font-weight="bold" lengthAdjust="spacing" textLength="36" x="2937.5" y="87.1451">cron</text><text fill="#000000" font-family="sans-serif" font-size="14" lengthAdjust="spacing" textLength="4" x="2937.5" y="103.442">&#160;</text><text fill="#000000" font-family="sans-serif" font-size="14" lengthAdjust="spacing" textLength="163" x="2937.5" y="119.7389">restart: unless-stopped</text><text fill="#000000" font-family="sans-serif" font-size="14" lengthAdjust="spacing" textLength="4" x="2937.5" y="136.0357">&#160;</text></g><!--entity 107ea90b85e17faf4f7afc86017a48ab--><g id="elem_107ea90b85e17faf4f7afc86017a48ab"><rect fill="#F1F1F1" height="39.2969" rx="2.5" ry="2.5" style="stroke:#181818;stroke-width:0.5;" width="173" x="2882.5" y="474.49"/><polygon fill="#F1F1F1" points="3038.5,479.49,3038.5,493.49,3050.5,493.49,3050.5,485.49,3044.5,479.49,3038.5,479.49" style="stroke:#181818;stroke-width:0.5;"/><line style="stroke:#181818;stroke-width:0.5;" x1="3044.5" x2="3044.5" y1="479.49" y2="485.49"/><line style="stroke:#181818;stroke-width:0.5;" x1="3050.5" x2="3044.5" y1="485.49" y2="485.49"/><text fill="#000000" font-family="sans-serif" font-size="14" lengthAdjust="spacing" textLength="143" x="2892.5" y="500.4851">/var/run/docker.sock</text></g><!--entity 4859b8c3887a1d16eb0586611fc3ae0e--><g id="elem_4859b8c3887a1d16eb0586611fc3ae0e"><rect fill="#F1F1F1" height="39.2969" rx="2.5" ry="2.5" style="stroke:#181818;stroke-width:0.5;" width="85" x="3090.5" y="474.49"/><polygon fill="#F1F1F1" points="3158.5,479.49,3158.5,493.49,3170.5,493.49,3170.5,485.49,3164.5,479.49,3158.5,479.49" style="stroke:#181818;stroke-width:0.5;"/><line style="stroke:#181818;stroke-width:0.5;" x1="3164.5" x2="3164.5" y1="479.49" y2="485.49"/><line style="stroke:#181818;stroke-width:0.5;" x1="3170.5" x2="3164.5" y1="485.49" y2="485.49"/><text fill="#000000" font-family="sans-serif" font-size="14" lengthAdjust="spacing" textLength="55" x="3100.5" y="500.4851">/workdir</text></g><!--entity 600c44c1349e9154dce569ba37e2d70b--><g id="elem_600c44c1349e9154dce569ba37e2d70b"><ellipse cx="180" cy="384.49" fill="#F1F1F1" rx="8" ry="8" style="stroke:#181818;stroke-width:0.5;"/><text fill="#000000" font-family="sans-serif" font-size="14" lengthAdjust="spacing" textLength="36" x="162" y="414.4851">8080</text></g><!--entity 09459082643d79967357df725fa5f7f3--><g id="elem_09459082643d79967357df725fa5f7f3"><ellipse cx="544" cy="384.49" fill="#F1F1F1" rx="8" ry="8" style="stroke:#181818;stroke-width:0.5;"/><text fill="#000000" font-family="sans-serif" font-size="14" lengthAdjust="spacing" textLength="45" x="521.5" y="414.4851">22181</text></g><!--entity 51644e9b83b8cfce8c3c8531f9c1db78--><g id="elem_51644e9b83b8cfce8c3c8531f9c1db78"><ellipse cx="901" cy="384.49" fill="#F1F1F1" rx="8" ry="8" style="stroke:#181818;stroke-width:0.5;"/><text fill="#000000" font-family="sans-serif" font-size="14" lengthAdjust="spacing" textLength="45" x="878.5" y="414.4851">29092</text></g><!--entity 8a81c9bb0ec23d07684c1472053c60fe--><g id="elem_8a81c9bb0ec23d07684c1472053c60fe"><ellipse cx="1625" cy="384.49" fill="#F1F1F1" rx="8" ry="8" style="stroke:#181818;stroke-width:0.5;"/><text fill="#000000" font-family="sans-serif" font-size="14" lengthAdjust="spacing" textLength="27" x="1611.5" y="414.4851">443</text></g><!--entity dba3f4d0bb5aa6fcfa18da2c1f7a9775--><g id="elem_dba3f4d0bb5aa6fcfa18da2c1f7a9775"><ellipse cx="1536" cy="384.49" fill="#F1F1F1" rx="8" ry="8" style="stroke:#181818;stroke-width:0.5;"/><text fill="#000000" font-family="sans-serif" font-size="14" lengthAdjust="spacing" textLength="18" x="1527" y="414.4851">80</text></g><!--entity 73d99f61cf21f8768f6271f1b1e3cb79--><g id="elem_73d99f61cf21f8768f6271f1b1e3cb79"><rect fill="#F1F1F1" height="39.2969" rx="2.5" ry="2.5" style="stroke:#181818;stroke-width:0.5;" width="124" x="1096" y="592.78"/><polygon fill="#F1F1F1" points="1203,597.78,1203,611.78,1215,611.78,1215,603.78,1209,597.78,1203,597.78" style="stroke:#181818;stroke-width:0.5;"/><line style="stroke:#181818;stroke-width:0.5;" x1="1209" x2="1209" y1="597.78" y2="603.78"/><line style="stroke:#181818;stroke-width:0.5;" x1="1215" x2="1209" y1="603.78" y2="603.78"/><text fill="#000000" font-family="sans-serif" font-size="14" lengthAdjust="spacing" textLength="94" x="1106" y="618.7751">./infra_crawler</text></g><!--entity 02333efa2bf4b0344924cb9dbec6e9b2--><g id="elem_02333efa2bf4b0344924cb9dbec6e9b2"><rect fill="#F1F1F1" height="39.2969" rx="2.5" ry="2.5" style="stroke:#181818;stroke-width:0.5;" width="124" x="1470" y="592.78"/><polygon fill="#F1F1F1" points="1577,597.78,1577,611.78,1589,611.78,1589,603.78,1583,597.78,1577,597.78" style="stroke:#181818;stroke-width:0.5;"/><line style="stroke:#181818;stroke-width:0.5;" x1="1583" x2="1583" y1="597.78" y2="603.78"/><line style="stroke:#181818;stroke-width:0.5;" x1="1589" x2="1583" y1="603.78" y2="603.78"/><text fill="#000000" font-family="sans-serif" font-size="14" lengthAdjust="spacing" textLength="94" x="1480" y="618.7751">static_volume</text></g><!--entity 9af05835fa384a0cf483e5aa169630e7--><g id="elem_9af05835fa384a0cf483e5aa169630e7"><rect fill="#F1F1F1" height="39.2969" rx="2.5" ry="2.5" style="stroke:#181818;stroke-width:0.5;" width="149" x="2226.5" y="592.78"/><polygon fill="#F1F1F1" points="2358.5,597.78,2358.5,611.78,2370.5,611.78,2370.5,603.78,2364.5,597.78,2358.5,597.78" style="stroke:#181818;stroke-width:0.5;"/><line style="stroke:#181818;stroke-width:0.5;" x1="2364.5" x2="2364.5" y1="597.78" y2="603.78"/><line style="stroke:#181818;stroke-width:0.5;" x1="2370.5" x2="2364.5" y1="603.78" y2="603.78"/><text fill="#000000" font-family="sans-serif" font-size="14" lengthAdjust="spacing" textLength="119" x="2236.5" y="618.7751">letsencrypt_certs</text></g><!--entity 8504fa92da4ace279fcef4b85abf09a2--><g id="elem_8504fa92da4ace279fcef4b85abf09a2"><rect fill="#F1F1F1" height="39.2969" rx="2.5" ry="2.5" style="stroke:#181818;stroke-width:0.5;" width="199" x="2424.5" y="592.78"/><polygon fill="#F1F1F1" points="2606.5,597.78,2606.5,611.78,2618.5,611.78,2618.5,603.78,2612.5,597.78,2606.5,597.78" style="stroke:#181818;stroke-width:0.5;"/><line style="stroke:#181818;stroke-width:0.5;" x1="2612.5" x2="2612.5" y1="597.78" y2="603.78"/><line style="stroke:#181818;stroke-width:0.5;" x1="2618.5" x2="2612.5" y1="603.78" y2="603.78"/><text fill="#000000" font-family="sans-serif" font-size="14" lengthAdjust="spacing" textLength="169" x="2434.5" y="618.7751">certbot_acme_challenge</text></g><!--entity 7a1e35394eba22ed61abc2695ba701c3--><g id="elem_7a1e35394eba22ed61abc2695ba701c3"><rect fill="#F1F1F1" height="39.2969" rx="2.5" ry="2.5" style="stroke:#181818;stroke-width:0.5;" width="151" x="1938.5" y="592.78"/><polygon fill="#F1F1F1" points="2072.5,597.78,2072.5,611.78,2084.5,611.78,2084.5,603.78,2078.5,597.78,2072.5,597.78" style="stroke:#181818;stroke-width:0.5;"/><line style="stroke:#181818;stroke-width:0.5;" x1="2078.5" x2="2078.5" y1="597.78" y2="603.78"/><line style="stroke:#181818;stroke-width:0.5;" x1="2084.5" x2="2078.5" y1="603.78" y2="603.78"/><text fill="#000000" font-family="sans-serif" font-size="14" lengthAdjust="spacing" textLength="121" x="1948.5" y="618.7751">./local-env/vhosts</text></g><!--entity d2e4048eb785166d505ec373eb6db9fc--><g id="elem_d2e4048eb785166d505ec373eb6db9fc"><rect fill="#F1F1F1" height="39.2969" rx="2.5" ry="2.5" style="stroke:#181818;stroke-width:0.5;" width="173" x="2882.5" y="592.78"/><polygon fill="#F1F1F1" points="3038.5,597.78,3038.5,611.78,3050.5,611.78,3050.5,603.78,3044.5,597.78,3038.5,597.78" style="stroke:#181818;stroke-width:0.5;"/><line style="stroke:#181818;stroke-width:0.5;" x1="3044.5" x2="3044.5" y1="597.78" y2="603.78"/><line style="stroke:#181818;stroke-width:0.5;" x1="3050.5" x2="3044.5" y1="603.78" y2="603.78"/><text fill="#000000" font-family="sans-serif" font-size="14" lengthAdjust="spacing" textLength="143" x="2892.5" y="618.7751">/var/run/docker.sock</text></g><!--entity 4ee4e842a5b02b96710ef6f54e60eaf4--><g id="elem_4ee4e842a5b02b96710ef6f54e60eaf4"><rect fill="#F1F1F1" height="39.2969" rx="2.5" ry="2.5" style="stroke:#181818;stroke-width:0.5;" width="39" x="3113.5" y="592.78"/><polygon fill="#F1F1F1" points="3135.5,597.78,3135.5,611.78,3147.5,611.78,3147.5,603.78,3141.5,597.78,3135.5,597.78" style="stroke:#181818;stroke-width:0.5;"/><line style="stroke:#181818;stroke-width:0.5;" x1="3141.5" x2="3141.5" y1="597.78" y2="603.78"/><line style="stroke:#181818;stroke-width:0.5;" x1="3147.5" x2="3141.5" y1="603.78" y2="603.78"/><text fill="#000000" font-family="sans-serif" font-size="14" lengthAdjust="spacing" textLength="9" x="3123.5" y="618.7751">./</text></g><!--link 6cec62b19a20c63d1b6535f2688de974 to 18eb8329fc6fdb6f429a02d04f286599--><g id="link_6cec62b19a20c63d1b6535f2688de974_18eb8329fc6fdb6f429a02d04f286599"><path codeLine="85" d="M180,157.91 C180,188.63 180,223.66 180,238.82 " fill="none" id="6cec62b19a20c63d1b6535f2688de974-18eb8329fc6fdb6f429a02d04f286599" style="stroke:#181818;stroke-width:1.0;"/></g><!--link 18eb8329fc6fdb6f429a02d04f286599 to 600c44c1349e9154dce569ba37e2d70b--><g id="link_18eb8329fc6fdb6f429a02d04f286599_600c44c1349e9154dce569ba37e2d70b"><path codeLine="86" d="M180,256.13 C180,279.78 180,351.6 180,375.59 " fill="none" id="18eb8329fc6fdb6f429a02d04f286599-600c44c1349e9154dce569ba37e2d70b" style="stroke:#181818;stroke-width:1.0;"/></g><!--link e08de8ee1b7bd0e45201edaf78ba4697 to ece32d11de04ea9b6e1403bb711bc958--><g id="link_e08de8ee1b7bd0e45201edaf78ba4697_ece32d11de04ea9b6e1403bb711bc958"><path codeLine="87" d="M544,149.81 C544,182.07 544,221.93 544,238.59 " fill="none" id="e08de8ee1b7bd0e45201edaf78ba4697-ece32d11de04ea9b6e1403bb711bc958" style="stroke:#181818;stroke-width:1.0;"/></g><!--link ece32d11de04ea9b6e1403bb711bc958 to 09459082643d79967357df725fa5f7f3--><g id="link_ece32d11de04ea9b6e1403bb711bc958_09459082643d79967357df725fa5f7f3"><path codeLine="88" d="M544,256.13 C544,279.78 544,351.6 544,375.59 " fill="none" id="ece32d11de04ea9b6e1403bb711bc958-09459082643d79967357df725fa5f7f3" style="stroke:#181818;stroke-width:1.0;"/></g><!--link 349a83bb472f89aafc32c286b36aadbc to 6adbba7d1bab26e0203b790ae0adb380--><g id="link_349a83bb472f89aafc32c286b36aadbc_6adbba7d1bab26e0203b790ae0adb380"><path codeLine="89" d="M901,149.81 C901,182.07 901,221.93 901,238.59 " fill="none" id="349a83bb472f89aafc32c286b36aadbc-6adbba7d1bab26e0203b790ae0adb380" style="stroke:#181818;stroke-width:1.0;"/></g><!--link 6adbba7d1bab26e0203b790ae0adb380 to 51644e9b83b8cfce8c3c8531f9c1db78--><g id="link_6adbba7d1bab26e0203b790ae0adb380_51644e9b83b8cfce8c3c8531f9c1db78"><path codeLine="90" d="M901,256.13 C901,279.78 901,351.6 901,375.59 " fill="none" id="6adbba7d1bab26e0203b790ae0adb380-51644e9b83b8cfce8c3c8531f9c1db78" style="stroke:#181818;stroke-width:1.0;"/></g><!--link 48871f9ddd61de6056759e86342fe397 to 73d99f61cf21f8768f6271f1b1e3cb79--><g id="link_48871f9ddd61de6056759e86342fe397_73d99f61cf21f8768f6271f1b1e3cb79"><path codeLine="91" d="M1158,514.08 C1158,535.7 1158,570.87 1158,592.5 " fill="none" id="48871f9ddd61de6056759e86342fe397-73d99f61cf21f8768f6271f1b1e3cb79" style="stroke:#181818;stroke-width:1.0;"/><text fill="#000000" font-family="sans-serif" font-size="13" lengthAdjust="spacing" textLength="14" x="1159" y="558.8469">rw</text></g><!--link 90864b398c54ba1a31949f1dc8f522f9 to 48871f9ddd61de6056759e86342fe397--><g id="link_90864b398c54ba1a31949f1dc8f522f9_48871f9ddd61de6056759e86342fe397"><path codeLine="92" d="M1248.58,149.83 C1225.84,236.02 1179.9706,409.8685 1164.5206,468.4285 " fill="none" id="90864b398c54ba1a31949f1dc8f522f9-to-48871f9ddd61de6056759e86342fe397" style="stroke:#181818;stroke-width:1.0;stroke-dasharray:7.0,7.0;"/><polygon fill="#181818" points="1162.99,474.23,1169.1536,466.5482,1164.2655,469.3954,1161.4183,464.5074,1162.99,474.23" style="stroke:#181818;stroke-width:1.0;"/><text fill="#000000" font-family="sans-serif" font-size="13" lengthAdjust="spacing" textLength="23" x="1207" y="321.5569">use</text></g><!--link 5e07b5c6520b9f500d4b371c306e53c8 to 02333efa2bf4b0344924cb9dbec6e9b2--><g id="link_5e07b5c6520b9f500d4b371c306e53c8_02333efa2bf4b0344924cb9dbec6e9b2"><path codeLine="93" d="M1390.53,514.08 C1421.86,535.64 1472.76,570.66 1504.2,592.3 " fill="none" id="5e07b5c6520b9f500d4b371c306e53c8-02333efa2bf4b0344924cb9dbec6e9b2" style="stroke:#181818;stroke-width:1.0;"/><text fill="#000000" font-family="sans-serif" font-size="13" lengthAdjust="spacing" textLength="14" x="1458" y="558.8469">rw</text></g><!--link 90864b398c54ba1a31949f1dc8f522f9 to 5e07b5c6520b9f500d4b371c306e53c8--><g id="link_90864b398c54ba1a31949f1dc8f522f9_5e07b5c6520b9f500d4b371c306e53c8"><path codeLine="94" d="M1273.3,149.83 C1295.82,236.02 1341.2433,409.8649 1356.5433,468.4249 " fill="none" id="90864b398c54ba1a31949f1dc8f522f9-to-5e07b5c6520b9f500d4b371c306e53c8" style="stroke:#181818;stroke-width:1.0;stroke-dasharray:7.0,7.0;"/><polygon fill="#181818" points="1358.06,474.23,1359.655,464.5112,1356.7961,469.3924,1351.9148,466.5334,1358.06,474.23" style="stroke:#181818;stroke-width:1.0;"/><text fill="#000000" font-family="sans-serif" font-size="13" lengthAdjust="spacing" textLength="23" x="1320" y="321.5569">use</text></g><!--link 02afd862d04e83ed8e2004eacc5b6db9 to 3a61031652ff80665f419f821c1ac407--><g id="link_02afd862d04e83ed8e2004eacc5b6db9_3a61031652ff80665f419f821c1ac407"><path codeLine="95" d="M1937.31,149.81 C1912.85,182.07 1882.62,221.93 1869.99,238.59 " fill="none" id="02afd862d04e83ed8e2004eacc5b6db9-3a61031652ff80665f419f821c1ac407" style="stroke:#181818;stroke-width:1.0;"/></g><!--link 3a61031652ff80665f419f821c1ac407 to 8a81c9bb0ec23d07684c1472053c60fe--><g id="link_3a61031652ff80665f419f821c1ac407_8a81c9bb0ec23d07684c1472053c60fe"><path codeLine="96" d="M1855.73,256.37 C1843.9,267.34 1821.11,287.35 1799,300.49 C1744.71,332.74 1723.79,325.92 1668,355.49 C1655.72,361.99 1642.44,370.97 1633.94,376.99 " fill="none" id="3a61031652ff80665f419f821c1ac407-8a81c9bb0ec23d07684c1472053c60fe" style="stroke:#181818;stroke-width:1.0;"/></g><!--link 02afd862d04e83ed8e2004eacc5b6db9 to 97b04832e42a04c7beb04c21e560b3fb--><g id="link_02afd862d04e83ed8e2004eacc5b6db9_97b04832e42a04c7beb04c21e560b3fb"><path codeLine="97" d="M1901.29,149.81 C1849.9,183.54 1785.84,225.59 1762.78,240.72 " fill="none" id="02afd862d04e83ed8e2004eacc5b6db9-97b04832e42a04c7beb04c21e560b3fb" style="stroke:#181818;stroke-width:1.0;"/></g><!--link 97b04832e42a04c7beb04c21e560b3fb to dba3f4d0bb5aa6fcfa18da2c1f7a9775--><g id="link_97b04832e42a04c7beb04c21e560b3fb_dba3f4d0bb5aa6fcfa18da2c1f7a9775"><path codeLine="98" d="M1745.13,249.47 C1717.9,252.88 1634.21,266.43 1582,308.49 C1558.92,327.08 1544.41,360.56 1538.73,375.69 " fill="none" id="97b04832e42a04c7beb04c21e560b3fb-dba3f4d0bb5aa6fcfa18da2c1f7a9775" style="stroke:#181818;stroke-width:1.0;"/></g><!--link feb445bcd0c040198341918ff2d4fe78 to 02333efa2bf4b0344924cb9dbec6e9b2--><g id="link_feb445bcd0c040198341918ff2d4fe78_02333efa2bf4b0344924cb9dbec6e9b2"><path codeLine="99" d="M1751.03,514.21 C1702.4,535.8 1623.64,570.76 1574.99,592.35 " fill="none" id="feb445bcd0c040198341918ff2d4fe78-02333efa2bf4b0344924cb9dbec6e9b2" style="stroke:#181818;stroke-width:1.0;"/><text fill="#000000" font-family="sans-serif" font-size="13" lengthAdjust="spacing" textLength="14" x="1679" y="558.8469">rw</text></g><!--link 02afd862d04e83ed8e2004eacc5b6db9 to feb445bcd0c040198341918ff2d4fe78--><g id="link_02afd862d04e83ed8e2004eacc5b6db9_feb445bcd0c040198341918ff2d4fe78"><path codeLine="100" d="M1961,149.8 C1949.84,190.58 1931.57,250.7 1909,300.49 C1878.61,367.54 1833.8114,435.6473 1810.6614,469.2873 " fill="none" id="02afd862d04e83ed8e2004eacc5b6db9-to-feb445bcd0c040198341918ff2d4fe78" style="stroke:#181818;stroke-width:1.0;stroke-dasharray:7.0,7.0;"/><polygon fill="#181818" points="1807.26,474.23,1815.6573,469.0836,1810.0945,470.1111,1809.067,464.5483,1807.26,474.23" style="stroke:#181818;stroke-width:1.0;"/><text fill="#000000" font-family="sans-serif" font-size="13" lengthAdjust="spacing" textLength="23" x="1906" y="321.5569">use</text></g><!--link 2fa7031e2dc022b03ff52ea31d0b38a8 to 9af05835fa384a0cf483e5aa169630e7--><g id="link_2fa7031e2dc022b03ff52ea31d0b38a8_9af05835fa384a0cf483e5aa169630e7"><path codeLine="101" d="M2211.43,514.08 C2231.33,535.7 2263.68,570.87 2283.58,592.5 " fill="none" id="2fa7031e2dc022b03ff52ea31d0b38a8-9af05835fa384a0cf483e5aa169630e7" style="stroke:#181818;stroke-width:1.0;"/><text fill="#000000" font-family="sans-serif" font-size="13" lengthAdjust="spacing" textLength="14" x="2254" y="558.8469">rw</text></g><!--link 02afd862d04e83ed8e2004eacc5b6db9 to 2fa7031e2dc022b03ff52ea31d0b38a8--><g id="link_02afd862d04e83ed8e2004eacc5b6db9_2fa7031e2dc022b03ff52ea31d0b38a8"><path codeLine="102" d="M1999.66,149.83 C2048.45,236.02 2147.1942,410.4486 2180.3442,469.0086 " fill="none" id="02afd862d04e83ed8e2004eacc5b6db9-to-2fa7031e2dc022b03ff52ea31d0b38a8" style="stroke:#181818;stroke-width:1.0;stroke-dasharray:7.0,7.0;"/><polygon fill="#181818" points="2183.3,474.23,2182.3473,464.4273,2180.8368,469.8788,2175.3854,468.3684,2183.3,474.23" style="stroke:#181818;stroke-width:1.0;"/><text fill="#000000" font-family="sans-serif" font-size="13" lengthAdjust="spacing" textLength="23" x="2099" y="321.5569">use</text></g><!--link d8a3f0fbb8decd75a2abaa2cf0995f5e to 8504fa92da4ace279fcef4b85abf09a2--><g id="link_d8a3f0fbb8decd75a2abaa2cf0995f5e_8504fa92da4ace279fcef4b85abf09a2"><path codeLine="103" d="M2397.6,514.08 C2425.59,535.64 2471.07,570.66 2499.16,592.3 " fill="none" id="d8a3f0fbb8decd75a2abaa2cf0995f5e-8504fa92da4ace279fcef4b85abf09a2" style="stroke:#181818;stroke-width:1.0;"/><text fill="#000000" font-family="sans-serif" font-size="13" lengthAdjust="spacing" textLength="14" x="2458" y="558.8469">rw</text></g><!--link 02afd862d04e83ed8e2004eacc5b6db9 to d8a3f0fbb8decd75a2abaa2cf0995f5e--><g id="link_02afd862d04e83ed8e2004eacc5b6db9_d8a3f0fbb8decd75a2abaa2cf0995f5e"><path codeLine="104" d="M2021.25,149.83 C2109.56,236.02 2289.3361,411.4792 2349.3361,470.0392 " fill="none" id="02afd862d04e83ed8e2004eacc5b6db9-to-d8a3f0fbb8decd75a2abaa2cf0995f5e" style="stroke:#181818;stroke-width:1.0;stroke-dasharray:7.0,7.0;"/><polygon fill="#181818" points="2353.63,474.23,2349.9831,465.0812,2350.0518,470.7377,2344.3954,470.8064,2353.63,474.23" style="stroke:#181818;stroke-width:1.0;"/><text fill="#000000" font-family="sans-serif" font-size="13" lengthAdjust="spacing" textLength="23" x="2201" y="321.5569">use</text></g><!--link 23b1b729f9899522b85a42067de034a3 to 7a1e35394eba22ed61abc2695ba701c3--><g id="link_23b1b729f9899522b85a42067de034a3_7a1e35394eba22ed61abc2695ba701c3"><path codeLine="105" d="M2014,514.08 C2014,535.7 2014,570.87 2014,592.5 " fill="none" id="23b1b729f9899522b85a42067de034a3-7a1e35394eba22ed61abc2695ba701c3" style="stroke:#181818;stroke-width:1.0;"/><text fill="#000000" font-family="sans-serif" font-size="13" lengthAdjust="spacing" textLength="14" x="2015" y="558.8469">rw</text></g><!--link 02afd862d04e83ed8e2004eacc5b6db9 to 23b1b729f9899522b85a42067de034a3--><g id="link_02afd862d04e83ed8e2004eacc5b6db9_23b1b729f9899522b85a42067de034a3"><path codeLine="106" d="M1977.95,149.83 C1987,236.02 2005.2333,409.7028 2011.3833,468.2628 " fill="none" id="02afd862d04e83ed8e2004eacc5b6db9-to-23b1b729f9899522b85a42067de034a3" style="stroke:#181818;stroke-width:1.0;stroke-dasharray:7.0,7.0;"/><polygon fill="#181818" points="2012.01,474.23,2015.0481,464.8614,2011.4878,469.2573,2007.0919,465.697,2012.01,474.23" style="stroke:#181818;stroke-width:1.0;"/><text fill="#000000" font-family="sans-serif" font-size="13" lengthAdjust="spacing" textLength="23" x="1997" y="321.5569">use</text></g><!--link 4f5bbfba023abcad1d457e30dd56ffa2 to 9af05835fa384a0cf483e5aa169630e7--><g id="link_4f5bbfba023abcad1d457e30dd56ffa2_9af05835fa384a0cf483e5aa169630e7"><path codeLine="107" d="M2552.17,513.99 C2534.41,529.15 2507.61,549.96 2481,562.78 C2448.05,578.66 2409.11,590 2375.9,597.71 " fill="none" id="4f5bbfba023abcad1d457e30dd56ffa2-9af05835fa384a0cf483e5aa169630e7" style="stroke:#181818;stroke-width:1.0;"/><text fill="#000000" font-family="sans-serif" font-size="13" lengthAdjust="spacing" textLength="14" x="2509" y="558.8469">rw</text></g><!--link b2e5a6b1daa1b905edcf88ba35110a2c to 4f5bbfba023abcad1d457e30dd56ffa2--><g id="link_b2e5a6b1daa1b905edcf88ba35110a2c_4f5bbfba023abcad1d457e30dd56ffa2"><path codeLine="108" d="M2653.14,141.6 C2634.37,223.96 2592.5041,407.6002 2578.6741,468.2402 " fill="none" id="b2e5a6b1daa1b905edcf88ba35110a2c-to-4f5bbfba023abcad1d457e30dd56ffa2" style="stroke:#181818;stroke-width:1.0;stroke-dasharray:7.0,7.0;"/><polygon fill="#181818" points="2577.34,474.09,2583.2411,466.2047,2578.4518,469.2152,2575.4414,464.4259,2577.34,474.09" style="stroke:#181818;stroke-width:1.0;"/><text fill="#000000" font-family="sans-serif" font-size="13" lengthAdjust="spacing" textLength="23" x="2615" y="321.5569">use</text></g><!--link adb224ccfeb4c419f45fa9b10375c326 to 8504fa92da4ace279fcef4b85abf09a2--><g id="link_adb224ccfeb4c419f45fa9b10375c326_8504fa92da4ace279fcef4b85abf09a2"><path codeLine="109" d="M2714.61,514.21 C2672.28,535.8 2603.74,570.76 2561.41,592.35 " fill="none" id="adb224ccfeb4c419f45fa9b10375c326-8504fa92da4ace279fcef4b85abf09a2" style="stroke:#181818;stroke-width:1.0;"/><text fill="#000000" font-family="sans-serif" font-size="13" lengthAdjust="spacing" textLength="14" x="2652" y="558.8469">rw</text></g><!--link b2e5a6b1daa1b905edcf88ba35110a2c to adb224ccfeb4c419f45fa9b10375c326--><g id="link_b2e5a6b1daa1b905edcf88ba35110a2c_adb224ccfeb4c419f45fa9b10375c326"><path codeLine="110" d="M2670.96,141.6 C2689.94,223.96 2732.2821,407.6034 2746.2621,468.2434 " fill="none" id="b2e5a6b1daa1b905edcf88ba35110a2c-to-adb224ccfeb4c419f45fa9b10375c326" style="stroke:#181818;stroke-width:1.0;stroke-dasharray:7.0,7.0;"/><polygon fill="#181818" points="2747.61,474.09,2749.4859,464.4214,2746.4868,469.2178,2741.6904,466.2186,2747.61,474.09" style="stroke:#181818;stroke-width:1.0;"/><text fill="#000000" font-family="sans-serif" font-size="13" lengthAdjust="spacing" textLength="23" x="2714" y="321.5569">use</text></g><!--link 107ea90b85e17faf4f7afc86017a48ab to d2e4048eb785166d505ec373eb6db9fc--><g id="link_107ea90b85e17faf4f7afc86017a48ab_d2e4048eb785166d505ec373eb6db9fc"><path codeLine="111" d="M2969,514.08 C2969,535.7 2969,570.87 2969,592.5 " fill="none" id="107ea90b85e17faf4f7afc86017a48ab-d2e4048eb785166d505ec373eb6db9fc" style="stroke:#181818;stroke-width:1.0;"/><text fill="#000000" font-family="sans-serif" font-size="13" lengthAdjust="spacing" textLength="14" x="2970" y="558.8469">rw</text></g><!--link ede0da965a02d6ed8de7d7a0ab067969 to 107ea90b85e17faf4f7afc86017a48ab--><g id="link_ede0da965a02d6ed8de7d7a0ab067969_107ea90b85e17faf4f7afc86017a48ab"><path codeLine="112" d="M3017.37,149.83 C3005.22,236.02 2980.747,409.7287 2972.497,468.2887 " fill="none" id="ede0da965a02d6ed8de7d7a0ab067969-to-107ea90b85e17faf4f7afc86017a48ab" style="stroke:#181818;stroke-width:1.0;stroke-dasharray:7.0,7.0;"/><polygon fill="#181818" points="2971.66,474.23,2976.8764,465.876,2972.3575,469.2789,2968.9546,464.76,2971.66,474.23" style="stroke:#181818;stroke-width:1.0;"/><text fill="#000000" font-family="sans-serif" font-size="13" lengthAdjust="spacing" textLength="23" x="2995" y="321.5569">use</text></g><!--link 4859b8c3887a1d16eb0586611fc3ae0e to 4ee4e842a5b02b96710ef6f54e60eaf4--><g id="link_4859b8c3887a1d16eb0586611fc3ae0e_4ee4e842a5b02b96710ef6f54e60eaf4"><path codeLine="113" d="M3133,514.08 C3133,535.7 3133,570.87 3133,592.5 " fill="none" id="4859b8c3887a1d16eb0586611fc3ae0e-4ee4e842a5b02b96710ef6f54e60eaf4" style="stroke:#181818;stroke-width:1.0;"/><text fill="#000000" font-family="sans-serif" font-size="13" lengthAdjust="spacing" textLength="13" x="3134" y="558.8469">ro</text></g><!--link ede0da965a02d6ed8de7d7a0ab067969 to 4859b8c3887a1d16eb0586611fc3ae0e--><g id="link_ede0da965a02d6ed8de7d7a0ab067969_4859b8c3887a1d16eb0586611fc3ae0e"><path codeLine="114" d="M3037.15,149.83 C3061.21,236.02 3109.7565,409.891 3126.1065,468.451 " fill="none" id="ede0da965a02d6ed8de7d7a0ab067969-to-4859b8c3887a1d16eb0586611fc3ae0e" style="stroke:#181818;stroke-width:1.0;stroke-dasharray:7.0,7.0;"/><polygon fill="#181818" points="3127.72,474.23,3129.1524,464.4859,3126.3754,469.4142,3121.4471,466.6372,3127.72,474.23" style="stroke:#181818;stroke-width:1.0;"/><text fill="#000000" font-family="sans-serif" font-size="13" lengthAdjust="spacing" textLength="23" x="3087" y="321.5569">use</text></g><!--SRC=[bLPTRoF74Npdho3q51yWSRu_1CI04-GfGM0ay8k3GEZfwP5fKRi4IKa-1_xlAUwAEb9mCgTx4GwSxQxkhgukscp6byVrB-lXVZ6CLPPNtszeE3mzRgxtidkMtTMIzija71klWXTcfOfot9mFHIVHqPH2o_yibZm-RiT1XiCoi70mHMSoYeEjkWHlVJCXfIevkkM_5fy-RI_JVFgqMAmVwLvkbwTVLk-UtFuiXyFdXGpFwzquF2BJxV9Ft_tpBtS__EDlVpozNIp-lVZ3Dykhf9AQe0DZITRang7L4fepcPIfoZMJWizvyTjhtJ-EuuF8zhLYetCc5k-hiun_n9brZPIR8rzYkQnO52fB8Xg_L2NE6wMbKekfa0ivJXN_UafmLYkFGziy8SHwu1Llhz_Ut6xe8Fl3gHoZavvm2OirLUigoWdb4aGxPKk9MXVEFhsLyrTg3pHzufqEGGU363vvpSQbudHfYeKYLNLPYdMP4WAwQ5hAH8sjORIgs41K2q-bF1o3_vyofj_Vbv1LDXEWW3Y58dX1nGHH1WN4h4WKVh19lTNmtNOxVL0D-LZH_vHigqQtahFN8UVQecQEbnLabO8hDYVshf0cgxFBJLTEpHlJybH1_Pc6-_6QjjjZ6JlWf1tuH9iN-hm_GiP_rutuiBnQhOUseplUqSlcbHqkfQXRhhK6J28e7wBFae9rfedDyNz-lKB25N8TrjpM6zdF0n8LY-S0rfJSl58Ly56OLK6yvIyp_VlzUlXbfe4uwvInZ1dLM5j1Kx1fmJK5M5YnYuueGwscS6Iz92irYL57-Z3x4cgPEp8SWvzjurjFdWO0tL_l3-DsA_KqJkViXCHIqCfgW6yjgH1ySpgtP3HhOgVYwpPERtE4T60PnHc2XiGYHoanMdnGnRRoiROrASxvmbMnSahdP95PfzPCTKrYEeyc1rvjvB2NWNUVjuTvnHj581TJMHbJb6tWXu0k5M0INNp_JBlLoylBYcLtAEFyVKraqUvIiFjSeoT3XSXmKs1dy_8-_zJWrVDFu_um5s1iWM10cdB25u2GF3cZGiHoMqVsRUv_FilAMIdb8GTaIk3IMkDID4gFcNqkwNBonOWd27KbqYKhBnMCWIXPhxK2rcdonwBsnv5VqlxtUkQQBwKLAAYbmbHrTJwALRNwq1gPNi-mu0QtX8-puoDHd6zGCJ0eUWXD-58o97xcJ8KO9JGK_McAyDgd6X934j3t-cxt1Qshb8C_Qdm0qwj4gBQYWhRcC3ET4Rl3y7Tbx9w6LHtvGNOtU_oP3ukA4625eU48DcgkHOXb2af7SeakoFmoxXxg-gGTnp6nXOIGhZfW1to2G6ieBIHGq8AB0nQKOkSO8ywIjNSLLobaZ322kL6LMLpV3eJApaC1JN2snfn3j93E5Wtwx5jizfqMGqQT4m2omDHO08oJjn0to6t14ftlEfP2Sov52HjRLGm9k70e55Ggg2Rdkrw1i3ciKl54eN4ZdIeOfz6c7AC_Qy_DxoXij3Nd5ZGtA5j2fXOC95SNBPPnBSu-dtNXxddSF3tAt0DZhHNGiJI7lNOkWtCbrm9VWbhFMNf6yBjf3sRIKSDGu5d89aSARWUoYJfmSu9LSgxlh-o-8twKE_w9DXiPxcSOoSDbK3QL7Ao4YV0W0a3OSZ0vNopBpMepCcskOMxE5G8C4UjjTbB86C6rmTQPa3tEfyA1-1gULiWjL5SmJ0mxL0yLO1kjJDBV-0B5p51S5qdGQ5-KAQ2GLj92ymwNJa3qHTVWNTVhll7gFPYYTDdVjLx7A5tNr7imHUckLjSxJHNrt4_lmHIbkxSzYp95wMtPydPvjNkvMdGjrSrDlRdvjkkBZl6UzdArw5cUkT-TDVuekcxI4xgkNpgYwngVteCfIbTIlmfBrrZr7anHkfBTSrmVcbgtiDUfTPEUfjRpStEdEih-KNJTf2TqFRSuiw5pCJwAhflqhNSTApghHUSQVRXtlQGdT3tN-Q79TYtnISjwIK_eUfxsGvFzMdJTf2TqFPiwRtx78vpGTUtrAxfkqhV9TipmXAxdHoPquzUZwoPzHVTV]--></g></svg>