<?xml version="1.0" encoding="us-ascii" standalone="no"?><svg xmlns="http://www.w3.org/2000/svg" xmlns:xlink="http://www.w3.org/1999/xlink" contentStyleType="text/css" height="670px" preserveAspectRatio="none" style="width:3376px;height:670px;background:#FFFFFF;" version="1.1" viewBox="0 0 3376 670" width="3376px" zoomAndPan="magnify"><defs/><g><!--cluster 824c25065ecc00b04cf456b18e172bba--><g id="cluster_824c25065ecc00b04cf456b18e172bba"><polygon fill="none" points="16,16,26,6,435,6,435,315.08,425,325.08,16,325.08,16,16" style="stroke:#181818;stroke-width:1.0;"/><line style="stroke:#181818;stroke-width:1.0;" x1="425" x2="435" y1="16" y2="6"/><line style="stroke:#181818;stroke-width:1.0;" x1="16" x2="425" y1="16" y2="16"/><line style="stroke:#181818;stroke-width:1.0;" x1="425" x2="425" y1="16" y2="325.08"/><text fill="#000000" font-family="sans-serif" font-size="14" font-weight="bold" lengthAdjust="spacing" textLength="125" x="159" y="31.9951">Plantuml-server</text></g><!--cluster 2199ace55d43ccccac9c1d7a9f4a5b7b--><g id="cluster_2199ace55d43ccccac9c1d7a9f4a5b7b"><polygon fill="none" points="459,40.44,469,30.44,811,30.44,811,315.08,801,325.08,459,325.08,459,40.44" style="stroke:#181818;stroke-width:1.0;"/><line style="stroke:#181818;stroke-width:1.0;" x1="801" x2="811" y1="40.44" y2="30.44"/><line style="stroke:#181818;stroke-width:1.0;" x1="459" x2="801" y1="40.44" y2="40.44"/><line style="stroke:#181818;stroke-width:1.0;" x1="801" x2="801" y1="40.44" y2="325.08"/><text fill="#000000" font-family="sans-serif" font-size="14" font-weight="bold" lengthAdjust="spacing" textLength="87" x="587.5" y="56.4351">Zookeeper</text></g><!--cluster 541661622185851c248b41bf0cea7ad0--><g id="cluster_541661622185851c248b41bf0cea7ad0"><polygon fill="none" points="835,40.44,845,30.44,1149,30.44,1149,315.08,1139,325.08,835,325.08,835,40.44" style="stroke:#181818;stroke-width:1.0;"/><line style="stroke:#181818;stroke-width:1.0;" x1="1139" x2="1149" y1="40.44" y2="30.44"/><line style="stroke:#181818;stroke-width:1.0;" x1="835" x2="1139" y1="40.44" y2="40.44"/><line style="stroke:#181818;stroke-width:1.0;" x1="1139" x2="1139" y1="40.44" y2="325.08"/><text fill="#000000" font-family="sans-serif" font-size="14" font-weight="bold" lengthAdjust="spacing" textLength="44" x="966" y="56.4351">Kafka</text></g><!--cluster d2a57dc1d883fd21fb9951699df71cc7--><g id="cluster_d2a57dc1d883fd21fb9951699df71cc7"><polygon fill="none" points="1173,40.44,1183,30.44,1580,30.44,1580,552.37,1570,562.37,1173,562.37,1173,40.44" style="stroke:#181818;stroke-width:1.0;"/><line style="stroke:#181818;stroke-width:1.0;" x1="1570" x2="1580" y1="40.44" y2="30.44"/><line style="stroke:#181818;stroke-width:1.0;" x1="1173" x2="1570" y1="40.44" y2="40.44"/><line style="stroke:#181818;stroke-width:1.0;" x1="1570" x2="1570" y1="40.44" y2="562.37"/><text fill="#000000" font-family="sans-serif" font-size="14" font-weight="bold" lengthAdjust="spacing" textLength="31" x="1357" y="56.4351">App</text></g><!--cluster ee434023cf89d7dfb21f63d64f0f9d74--><g id="cluster_ee434023cf89d7dfb21f63d64f0f9d74"><polygon fill="none" points="1755,40.44,1765,30.44,2550,30.44,2550,552.37,2540,562.37,1755,562.37,1755,40.44" style="stroke:#181818;stroke-width:1.0;"/><line style="stroke:#181818;stroke-width:1.0;" x1="2540" x2="2550" y1="40.44" y2="30.44"/><line style="stroke:#181818;stroke-width:1.0;" x1="1755" x2="2540" y1="40.44" y2="40.44"/><line style="stroke:#181818;stroke-width:1.0;" x1="2540" x2="2540" y1="40.44" y2="562.37"/><text fill="#000000" font-family="sans-serif" font-size="14" font-weight="bold" lengthAdjust="spacing" textLength="44" x="2126.5" y="56.4351">Nginx</text></g><!--cluster c90005181a2b6cbfffcbb134179c59b8--><g id="cluster_c90005181a2b6cbfffcbb134179c59b8"><polygon fill="none" points="2574,48.59,2584,38.59,2929,38.59,2929,552.37,2919,562.37,2574,562.37,2574,48.59" style="stroke:#181818;stroke-width:1.0;"/><line style="stroke:#181818;stroke-width:1.0;" x1="2919" x2="2929" y1="48.59" y2="38.59"/><line style="stroke:#181818;stroke-width:1.0;" x1="2574" x2="2919" y1="48.59" y2="48.59"/><line style="stroke:#181818;stroke-width:1.0;" x1="2919" x2="2919" y1="48.59" y2="562.37"/><text fill="#000000" font-family="sans-serif" font-size="14" font-weight="bold" lengthAdjust="spacing" textLength="60" x="2717.5" y="64.5851">Certbot</text></g><!--cluster 9d3bb895f22bf0afa958d68c2a58ded7--><g id="cluster_9d3bb895f22bf0afa958d68c2a58ded7"><polygon fill="none" points="2953,40.44,2963,30.44,3279,30.44,3279,552.37,3269,562.37,2953,562.37,2953,40.44" style="stroke:#181818;stroke-width:1.0;"/><line style="stroke:#181818;stroke-width:1.0;" x1="3269" x2="3279" y1="40.44" y2="30.44"/><line style="stroke:#181818;stroke-width:1.0;" x1="2953" x2="3269" y1="40.44" y2="40.44"/><line style="stroke:#181818;stroke-width:1.0;" x1="3269" x2="3269" y1="40.44" y2="562.37"/><text fill="#000000" font-family="sans-serif" font-size="14" font-weight="bold" lengthAdjust="spacing" textLength="38" x="3093" y="56.4351">Cron</text></g><!--entity 6cec62b19a20c63d1b6535f2688de974--><g id="elem_6cec62b19a20c63d1b6535f2688de974"><rect fill="#F1F1F1" height="144.0781" rx="2.5" ry="2.5" style="stroke:#181818;stroke-width:0.5;" width="296" x="32" y="46"/><rect fill="#F1F1F1" height="10" style="stroke:#181818;stroke-width:0.5;" width="15" x="308" y="51"/><rect fill="#F1F1F1" height="2" style="stroke:#181818;stroke-width:0.5;" width="4" x="306" y="53"/><rect fill="#F1F1F1" height="2" style="stroke:#181818;stroke-width:0.5;" width="4" x="306" y="57"/><text fill="#000000" font-family="sans-serif" font-size="14" font-weight="bold" lengthAdjust="spacing" textLength="67" x="47" y="78.9951">Plantuml</text><text fill="#000000" font-family="sans-serif" font-size="14" lengthAdjust="spacing" textLength="4" x="47" y="95.292">&#160;</text><text fill="#000000" font-family="sans-serif" font-size="14" lengthAdjust="spacing" textLength="256" x="47" y="111.5889">image: plantuml/plantuml-server:jetty</text><text fill="#000000" font-family="sans-serif" font-size="14" lengthAdjust="spacing" textLength="238" x="47" y="127.8857">environment: BASE_URL=plantuml</text><text fill="#000000" font-family="sans-serif" font-size="14" lengthAdjust="spacing" textLength="61" x="47" y="144.1826">text: text</text><text fill="#000000" font-family="sans-serif" font-size="14" lengthAdjust="spacing" textLength="61" x="47" y="160.4795">text: text</text><text fill="#000000" font-family="sans-serif" font-size="14" lengthAdjust="spacing" textLength="4" x="47" y="176.7764">&#160;</text></g><!--entity 5c92c67fafd184b1a6b61f1a78254743--><g id="elem_5c92c67fafd184b1a6b61f1a78254743"><rect fill="#F1F1F1" height="39.2969" rx="2.5" ry="2.5" style="stroke:#181818;stroke-width:0.5;" width="56" x="363" y="98.39"/><polygon fill="#F1F1F1" points="402,103.39,402,117.39,414,117.39,414,109.39,408,103.39,402,103.39" style="stroke:#181818;stroke-width:0.5;"/><line style="stroke:#181818;stroke-width:0.5;" x1="408" x2="408" y1="103.39" y2="109.39"/><line style="stroke:#181818;stroke-width:0.5;" x1="414" x2="408" y1="109.39" y2="109.39"/><text fill="#000000" font-family="sans-serif" font-size="14" lengthAdjust="spacing" textLength="26" x="373" y="124.3851">text</text></g><!--entity 18eb8329fc6fdb6f429a02d04f286599--><g id="elem_18eb8329fc6fdb6f429a02d04f286599"><ellipse cx="180" cy="280.08" fill="#F1F1F1" rx="8" ry="8" style="stroke:#181818;stroke-width:0.5;"/><text fill="#000000" font-family="sans-serif" font-size="14" lengthAdjust="spacing" textLength="36" x="162" y="310.0751">8080</text></g><!--entity e08de8ee1b7bd0e45201edaf78ba4697--><g id="elem_e08de8ee1b7bd0e45201edaf78ba4697"><rect fill="#F1F1F1" height="95.1875" rx="2.5" ry="2.5" style="stroke:#181818;stroke-width:0.5;" width="321" x="474.5" y="70.44"/><rect fill="#F1F1F1" height="10" style="stroke:#181818;stroke-width:0.5;" width="15" x="775.5" y="75.44"/><rect fill="#F1F1F1" height="2" style="stroke:#181818;stroke-width:0.5;" width="4" x="773.5" y="77.44"/><rect fill="#F1F1F1" height="2" style="stroke:#181818;stroke-width:0.5;" width="4" x="773.5" y="81.44"/><text fill="#000000" font-family="sans-serif" font-size="14" font-weight="bold" lengthAdjust="spacing" textLength="85" x="489.5" y="103.4351">zookeeper</text><text fill="#000000" font-family="sans-serif" font-size="14" lengthAdjust="spacing" textLength="4" x="489.5" y="119.732">&#160;</text><text fill="#000000" font-family="sans-serif" font-size="14" lengthAdjust="spacing" textLength="281" x="489.5" y="136.0289">image: confluentinc/cp-zookeeper:latest</text><text fill="#000000" font-family="sans-serif" font-size="14" lengthAdjust="spacing" textLength="4" x="489.5" y="152.3257">&#160;</text></g><!--entity ece32d11de04ea9b6e1403bb711bc958--><g id="elem_ece32d11de04ea9b6e1403bb711bc958"><ellipse cx="635" cy="280.08" fill="#F1F1F1" rx="8" ry="8" style="stroke:#181818;stroke-width:0.5;"/><text fill="#000000" font-family="sans-serif" font-size="14" lengthAdjust="spacing" textLength="36" x="617" y="310.0751">2181</text></g><!--entity 349a83bb472f89aafc32c286b36aadbc--><g id="elem_349a83bb472f89aafc32c286b36aadbc"><rect fill="#F1F1F1" height="95.1875" rx="2.5" ry="2.5" style="stroke:#181818;stroke-width:0.5;" width="282" x="851" y="70.44"/><rect fill="#F1F1F1" height="10" style="stroke:#181818;stroke-width:0.5;" width="15" x="1113" y="75.44"/><rect fill="#F1F1F1" height="2" style="stroke:#181818;stroke-width:0.5;" width="4" x="1111" y="77.44"/><rect fill="#F1F1F1" height="2" style="stroke:#181818;stroke-width:0.5;" width="4" x="1111" y="81.44"/><text fill="#000000" font-family="sans-serif" font-size="14" font-weight="bold" lengthAdjust="spacing" textLength="42" x="866" y="103.4351">kafka</text><text fill="#000000" font-family="sans-serif" font-size="14" lengthAdjust="spacing" textLength="4" x="866" y="119.732">&#160;</text><text fill="#000000" font-family="sans-serif" font-size="14" lengthAdjust="spacing" textLength="242" x="866" y="136.0289">image: confluentinc/cp-kafka:latest</text><text fill="#000000" font-family="sans-serif" font-size="14" lengthAdjust="spacing" textLength="4" x="866" y="152.3257">&#160;</text></g><!--entity 6adbba7d1bab26e0203b790ae0adb380--><g id="elem_6adbba7d1bab26e0203b790ae0adb380"><ellipse cx="992" cy="280.08" fill="#F1F1F1" rx="8" ry="8" style="stroke:#181818;stroke-width:0.5;"/><text fill="#000000" font-family="sans-serif" font-size="14" lengthAdjust="spacing" textLength="45" x="969.5" y="310.0751">29092</text></g><!--entity 90864b398c54ba1a31949f1dc8f522f9--><g id="elem_90864b398c54ba1a31949f1dc8f522f9"><rect fill="#F1F1F1" height="95.1875" rx="2.5" ry="2.5" style="stroke:#181818;stroke-width:0.5;" width="139" x="1282.5" y="70.44"/><rect fill="#F1F1F1" height="10" style="stroke:#181818;stroke-width:0.5;" width="15" x="1401.5" y="75.44"/><rect fill="#F1F1F1" height="2" style="stroke:#181818;stroke-width:0.5;" width="4" x="1399.5" y="77.44"/><rect fill="#F1F1F1" height="2" style="stroke:#181818;stroke-width:0.5;" width="4" x="1399.5" y="81.44"/><text fill="#000000" font-family="sans-serif" font-size="14" font-weight="bold" lengthAdjust="spacing" textLength="88" x="1297.5" y="103.4351">django-app</text><text fill="#000000" font-family="sans-serif" font-size="14" lengthAdjust="spacing" textLength="4" x="1297.5" y="119.732">&#160;</text><text fill="#000000" font-family="sans-serif" font-size="14" lengthAdjust="spacing" textLength="99" x="1297.5" y="136.0289">restart: always</text><text fill="#000000" font-family="sans-serif" font-size="14" lengthAdjust="spacing" textLength="4" x="1297.5" y="152.3257">&#160;</text></g><!--entity 48871f9ddd61de6056759e86342fe397--><g id="elem_48871f9ddd61de6056759e86342fe397"><rect fill="#F1F1F1" height="39.2969" rx="2.5" ry="2.5" style="stroke:#181818;stroke-width:0.5;" width="120" x="1189" y="507.08"/><polygon fill="#F1F1F1" points="1292,512.08,1292,526.08,1304,526.08,1304,518.08,1298,512.08,1292,512.08" style="stroke:#181818;stroke-width:0.5;"/><line style="stroke:#181818;stroke-width:0.5;" x1="1298" x2="1298" y1="512.08" y2="518.08"/><line style="stroke:#181818;stroke-width:0.5;" x1="1304" x2="1298" y1="518.08" y2="518.08"/><text fill="#000000" font-family="sans-serif" font-size="14" lengthAdjust="spacing" textLength="90" x="1199" y="533.0751">/infra_crawler</text></g><!--entity 5e07b5c6520b9f500d4b371c306e53c8--><g id="elem_5e07b5c6520b9f500d4b371c306e53c8"><rect fill="#F1F1F1" height="39.2969" rx="2.5" ry="2.5" style="stroke:#181818;stroke-width:0.5;" width="220" x="1344" y="507.08"/><polygon fill="#F1F1F1" points="1547,512.08,1547,526.08,1559,526.08,1559,518.08,1553,512.08,1547,512.08" style="stroke:#181818;stroke-width:0.5;"/><line style="stroke:#181818;stroke-width:0.5;" x1="1553" x2="1553" y1="512.08" y2="518.08"/><line style="stroke:#181818;stroke-width:0.5;" x1="1559" x2="1553" y1="518.08" y2="518.08"/><text fill="#000000" font-family="sans-serif" font-size="14" lengthAdjust="spacing" textLength="190" x="1354" y="533.0751">/infra_crawler/app/staticfiles</text></g><!--entity 02afd862d04e83ed8e2004eacc5b6db9--><g id="elem_02afd862d04e83ed8e2004eacc5b6db9"><rect fill="#F1F1F1" height="95.1875" rx="2.5" ry="2.5" style="stroke:#181818;stroke-width:0.5;" width="203" x="1958.5" y="70.44"/><rect fill="#F1F1F1" height="10" style="stroke:#181818;stroke-width:0.5;" width="15" x="2141.5" y="75.44"/><rect fill="#F1F1F1" height="2" style="stroke:#181818;stroke-width:0.5;" width="4" x="2139.5" y="77.44"/><rect fill="#F1F1F1" height="2" style="stroke:#181818;stroke-width:0.5;" width="4" x="2139.5" y="81.44"/><text fill="#000000" font-family="sans-serif" font-size="14" font-weight="bold" lengthAdjust="spacing" textLength="101" x="1973.5" y="103.4351">nginx-server</text><text fill="#000000" font-family="sans-serif" font-size="14" lengthAdjust="spacing" textLength="4" x="1973.5" y="119.732">&#160;</text><text fill="#000000" font-family="sans-serif" font-size="14" lengthAdjust="spacing" textLength="163" x="1973.5" y="136.0289">restart: unless-stopped</text><text fill="#000000" font-family="sans-serif" font-size="14" lengthAdjust="spacing" textLength="4" x="1973.5" y="152.3257">&#160;</text></g><!--entity 3a61031652ff80665f419f821c1ac407--><g id="elem_3a61031652ff80665f419f821c1ac407"><ellipse cx="1951" cy="280.08" fill="#F1F1F1" rx="8" ry="8" style="stroke:#181818;stroke-width:0.5;"/><text fill="#000000" font-family="sans-serif" font-size="14" lengthAdjust="spacing" textLength="27" x="1937.5" y="310.0751">443</text></g><!--entity 97b04832e42a04c7beb04c21e560b3fb--><g id="elem_97b04832e42a04c7beb04c21e560b3fb"><ellipse cx="1841" cy="280.08" fill="#F1F1F1" rx="8" ry="8" style="stroke:#181818;stroke-width:0.5;"/><text fill="#000000" font-family="sans-serif" font-size="14" lengthAdjust="spacing" textLength="18" x="1832" y="310.0751">80</text></g><!--entity feb445bcd0c040198341918ff2d4fe78--><g id="elem_feb445bcd0c040198341918ff2d4fe78"><rect fill="#F1F1F1" height="39.2969" rx="2.5" ry="2.5" style="stroke:#181818;stroke-width:0.5;" width="220" x="1771" y="507.08"/><polygon fill="#F1F1F1" points="1974,512.08,1974,526.08,1986,526.08,1986,518.08,1980,512.08,1974,512.08" style="stroke:#181818;stroke-width:0.5;"/><line style="stroke:#181818;stroke-width:0.5;" x1="1980" x2="1980" y1="512.08" y2="518.08"/><line style="stroke:#181818;stroke-width:0.5;" x1="1986" x2="1980" y1="518.08" y2="518.08"/><text fill="#000000" font-family="sans-serif" font-size="14" lengthAdjust="spacing" textLength="190" x="1781" y="533.0751">/infra_crawler/app/staticfiles</text></g><!--entity 2fa7031e2dc022b03ff52ea31d0b38a8--><g id="elem_2fa7031e2dc022b03ff52ea31d0b38a8"><rect fill="#F1F1F1" height="39.2969" rx="2.5" ry="2.5" style="stroke:#181818;stroke-width:0.5;" width="139" x="2211.5" y="507.08"/><polygon fill="#F1F1F1" points="2333.5,512.08,2333.5,526.08,2345.5,526.08,2345.5,518.08,2339.5,512.08,2333.5,512.08" style="stroke:#181818;stroke-width:0.5;"/><line style="stroke:#181818;stroke-width:0.5;" x1="2339.5" x2="2339.5" y1="512.08" y2="518.08"/><line style="stroke:#181818;stroke-width:0.5;" x1="2345.5" x2="2339.5" y1="518.08" y2="518.08"/><text fill="#000000" font-family="sans-serif" font-size="14" lengthAdjust="spacing" textLength="109" x="2221.5" y="533.0751">/etc/letsencrypt</text></g><!--entity d8a3f0fbb8decd75a2abaa2cf0995f5e--><g id="elem_d8a3f0fbb8decd75a2abaa2cf0995f5e"><rect fill="#F1F1F1" height="39.2969" rx="2.5" ry="2.5" style="stroke:#181818;stroke-width:0.5;" width="148" x="2386" y="507.08"/><polygon fill="#F1F1F1" points="2517,512.08,2517,526.08,2529,526.08,2529,518.08,2523,512.08,2517,512.08" style="stroke:#181818;stroke-width:0.5;"/><line style="stroke:#181818;stroke-width:0.5;" x1="2523" x2="2523" y1="512.08" y2="518.08"/><line style="stroke:#181818;stroke-width:0.5;" x1="2529" x2="2523" y1="518.08" y2="518.08"/><text fill="#000000" font-family="sans-serif" font-size="14" lengthAdjust="spacing" textLength="118" x="2396" y="533.0751">/var/www/certbot</text></g><!--entity 23b1b729f9899522b85a42067de034a3--><g id="elem_23b1b729f9899522b85a42067de034a3"><rect fill="#F1F1F1" height="39.2969" rx="2.5" ry="2.5" style="stroke:#181818;stroke-width:0.5;" width="150" x="2026" y="507.08"/><polygon fill="#F1F1F1" points="2159,512.08,2159,526.08,2171,526.08,2171,518.08,2165,512.08,2159,512.08" style="stroke:#181818;stroke-width:0.5;"/><line style="stroke:#181818;stroke-width:0.5;" x1="2165" x2="2165" y1="512.08" y2="518.08"/><line style="stroke:#181818;stroke-width:0.5;" x1="2171" x2="2165" y1="518.08" y2="518.08"/><text fill="#000000" font-family="sans-serif" font-size="14" lengthAdjust="spacing" textLength="120" x="2036" y="533.0751">/etc/nginx/vhosts</text></g><!--entity b2e5a6b1daa1b905edcf88ba35110a2c--><g id="elem_b2e5a6b1daa1b905edcf88ba35110a2c"><rect fill="#F1F1F1" height="78.8906" rx="2.5" ry="2.5" style="stroke:#181818;stroke-width:0.5;" width="81" x="2708.5" y="78.59"/><rect fill="#F1F1F1" height="10" style="stroke:#181818;stroke-width:0.5;" width="15" x="2769.5" y="83.59"/><rect fill="#F1F1F1" height="2" style="stroke:#181818;stroke-width:0.5;" width="4" x="2767.5" y="85.59"/><rect fill="#F1F1F1" height="2" style="stroke:#181818;stroke-width:0.5;" width="4" x="2767.5" y="89.59"/><text fill="#000000" font-family="sans-serif" font-size="14" font-weight="bold" lengthAdjust="spacing" textLength="41" x="2723.5" y="111.5851">certs</text><text fill="#000000" font-family="sans-serif" font-size="14" lengthAdjust="spacing" textLength="4" x="2723.5" y="127.882">&#160;</text><text fill="#000000" font-family="sans-serif" font-size="14" lengthAdjust="spacing" textLength="4" x="2723.5" y="144.1789">&#160;</text></g><!--entity 4f5bbfba023abcad1d457e30dd56ffa2--><g id="elem_4f5bbfba023abcad1d457e30dd56ffa2"><rect fill="#F1F1F1" height="39.2969" rx="2.5" ry="2.5" style="stroke:#181818;stroke-width:0.5;" width="139" x="2590.5" y="507.08"/><polygon fill="#F1F1F1" points="2712.5,512.08,2712.5,526.08,2724.5,526.08,2724.5,518.08,2718.5,512.08,2712.5,512.08" style="stroke:#181818;stroke-width:0.5;"/><line style="stroke:#181818;stroke-width:0.5;" x1="2718.5" x2="2718.5" y1="512.08" y2="518.08"/><line style="stroke:#181818;stroke-width:0.5;" x1="2724.5" x2="2718.5" y1="518.08" y2="518.08"/><text fill="#000000" font-family="sans-serif" font-size="14" lengthAdjust="spacing" textLength="109" x="2600.5" y="533.0751">/etc/letsencrypt</text></g><!--entity adb224ccfeb4c419f45fa9b10375c326--><g id="elem_adb224ccfeb4c419f45fa9b10375c326"><rect fill="#F1F1F1" height="39.2969" rx="2.5" ry="2.5" style="stroke:#181818;stroke-width:0.5;" width="148" x="2765" y="507.08"/><polygon fill="#F1F1F1" points="2896,512.08,2896,526.08,2908,526.08,2908,518.08,2902,512.08,2896,512.08" style="stroke:#181818;stroke-width:0.5;"/><line style="stroke:#181818;stroke-width:0.5;" x1="2902" x2="2902" y1="512.08" y2="518.08"/><line style="stroke:#181818;stroke-width:0.5;" x1="2908" x2="2902" y1="518.08" y2="518.08"/><text fill="#000000" font-family="sans-serif" font-size="14" lengthAdjust="spacing" textLength="118" x="2775" y="533.0751">/var/www/certbot</text></g><!--entity ede0da965a02d6ed8de7d7a0ab067969--><g id="elem_ede0da965a02d6ed8de7d7a0ab067969"><rect fill="#F1F1F1" height="95.1875" rx="2.5" ry="2.5" style="stroke:#181818;stroke-width:0.5;" width="203" x="3008.5" y="70.44"/><rect fill="#F1F1F1" height="10" style="stroke:#181818;stroke-width:0.5;" width="15" x="3191.5" y="75.44"/><rect fill="#F1F1F1" height="2" style="stroke:#181818;stroke-width:0.5;" width="4" x="3189.5" y="77.44"/><rect fill="#F1F1F1" height="2" style="stroke:#181818;stroke-width:0.5;" width="4" x="3189.5" y="81.44"/><text fill="#000000" font-family="sans-serif" font-size="14" font-weight="bold" lengthAdjust="spacing" textLength="36" x="3023.5" y="103.4351">cron</text><text fill="#000000" font-family="sans-serif" font-size="14" lengthAdjust="spacing" textLength="4" x="3023.5" y="119.732">&#160;</text><text fill="#000000" font-family="sans-serif" font-size="14" lengthAdjust="spacing" textLength="163" x="3023.5" y="136.0289">restart: unless-stopped</text><text fill="#000000" font-family="sans-serif" font-size="14" lengthAdjust="spacing" textLength="4" x="3023.5" y="152.3257">&#160;</text></g><!--entity 107ea90b85e17faf4f7afc86017a48ab--><g id="elem_107ea90b85e17faf4f7afc86017a48ab"><rect fill="#F1F1F1" height="39.2969" rx="2.5" ry="2.5" style="stroke:#181818;stroke-width:0.5;" width="173" x="2969.5" y="507.08"/><polygon fill="#F1F1F1" points="3125.5,512.08,3125.5,526.08,3137.5,526.08,3137.5,518.08,3131.5,512.08,3125.5,512.08" style="stroke:#181818;stroke-width:0.5;"/><line style="stroke:#181818;stroke-width:0.5;" x1="3131.5" x2="3131.5" y1="512.08" y2="518.08"/><line style="stroke:#181818;stroke-width:0.5;" x1="3137.5" x2="3131.5" y1="518.08" y2="518.08"/><text fill="#000000" font-family="sans-serif" font-size="14" lengthAdjust="spacing" textLength="143" x="2979.5" y="533.0751">/var/run/docker.sock</text></g><!--entity 4859b8c3887a1d16eb0586611fc3ae0e--><g id="elem_4859b8c3887a1d16eb0586611fc3ae0e"><rect fill="#F1F1F1" height="39.2969" rx="2.5" ry="2.5" style="stroke:#181818;stroke-width:0.5;" width="85" x="3177.5" y="507.08"/><polygon fill="#F1F1F1" points="3245.5,512.08,3245.5,526.08,3257.5,526.08,3257.5,518.08,3251.5,512.08,3245.5,512.08" style="stroke:#181818;stroke-width:0.5;"/><line style="stroke:#181818;stroke-width:0.5;" x1="3251.5" x2="3251.5" y1="512.08" y2="518.08"/><line style="stroke:#181818;stroke-width:0.5;" x1="3257.5" x2="3251.5" y1="518.08" y2="518.08"/><text fill="#000000" font-family="sans-serif" font-size="14" lengthAdjust="spacing" textLength="55" x="3187.5" y="533.0751">/workdir</text></g><!--entity 600c44c1349e9154dce569ba37e2d70b--><g id="elem_600c44c1349e9154dce569ba37e2d70b"><ellipse cx="180" cy="417.08" fill="#F1F1F1" rx="8" ry="8" style="stroke:#181818;stroke-width:0.5;"/><text fill="#000000" font-family="sans-serif" font-size="14" lengthAdjust="spacing" textLength="36" x="162" y="447.0751">8080</text></g><!--entity 09459082643d79967357df725fa5f7f3--><g id="elem_09459082643d79967357df725fa5f7f3"><ellipse cx="635" cy="417.08" fill="#F1F1F1" rx="8" ry="8" style="stroke:#181818;stroke-width:0.5;"/><text fill="#000000" font-family="sans-serif" font-size="14" lengthAdjust="spacing" textLength="45" x="612.5" y="447.0751">22181</text></g><!--entity 51644e9b83b8cfce8c3c8531f9c1db78--><g id="elem_51644e9b83b8cfce8c3c8531f9c1db78"><ellipse cx="992" cy="417.08" fill="#F1F1F1" rx="8" ry="8" style="stroke:#181818;stroke-width:0.5;"/><text fill="#000000" font-family="sans-serif" font-size="14" lengthAdjust="spacing" textLength="45" x="969.5" y="447.0751">29092</text></g><!--entity 8a81c9bb0ec23d07684c1472053c60fe--><g id="elem_8a81c9bb0ec23d07684c1472053c60fe"><ellipse cx="1712" cy="417.08" fill="#F1F1F1" rx="8" ry="8" style="stroke:#181818;stroke-width:0.5;"/><text fill="#000000" font-family="sans-serif" font-size="14" lengthAdjust="spacing" textLength="27" x="1698.5" y="447.0751">443</text></g><!--entity dba3f4d0bb5aa6fcfa18da2c1f7a9775--><g id="elem_dba3f4d0bb5aa6fcfa18da2c1f7a9775"><ellipse cx="1623" cy="417.08" fill="#F1F1F1" rx="8" ry="8" style="stroke:#181818;stroke-width:0.5;"/><text fill="#000000" font-family="sans-serif" font-size="14" lengthAdjust="spacing" textLength="18" x="1614" y="447.0751">80</text></g><!--entity 73d99f61cf21f8768f6271f1b1e3cb79--><g id="elem_73d99f61cf21f8768f6271f1b1e3cb79"><rect fill="#F1F1F1" height="39.2969" rx="2.5" ry="2.5" style="stroke:#181818;stroke-width:0.5;" width="124" x="1187" y="625.37"/><polygon fill="#F1F1F1" points="1294,630.37,1294,644.37,1306,644.37,1306,636.37,1300,630.37,1294,630.37" style="stroke:#181818;stroke-width:0.5;"/><line style="stroke:#181818;stroke-width:0.5;" x1="1300" x2="1300" y1="630.37" y2="636.37"/><line style="stroke:#181818;stroke-width:0.5;" x1="1306" x2="1300" y1="636.37" y2="636.37"/><text fill="#000000" font-family="sans-serif" font-size="14" lengthAdjust="spacing" textLength="94" x="1197" y="651.3651">./infra_crawler</text></g><!--entity 02333efa2bf4b0344924cb9dbec6e9b2--><g id="elem_02333efa2bf4b0344924cb9dbec6e9b2"><rect fill="#F1F1F1" height="39.2969" rx="2.5" ry="2.5" style="stroke:#181818;stroke-width:0.5;" width="124" x="1559" y="625.37"/><polygon fill="#F1F1F1" points="1666,630.37,1666,644.37,1678,644.37,1678,636.37,1672,630.37,1666,630.37" style="stroke:#181818;stroke-width:0.5;"/><line style="stroke:#181818;stroke-width:0.5;" x1="1672" x2="1672" y1="630.37" y2="636.37"/><line style="stroke:#181818;stroke-width:0.5;" x1="1678" x2="1672" y1="636.37" y2="636.37"/><text fill="#000000" font-family="sans-serif" font-size="14" lengthAdjust="spacing" textLength="94" x="1569" y="651.3651">static_volume</text></g><!--entity 9af05835fa384a0cf483e5aa169630e7--><g id="elem_9af05835fa384a0cf483e5aa169630e7"><rect fill="#F1F1F1" height="39.2969" rx="2.5" ry="2.5" style="stroke:#181818;stroke-width:0.5;" width="149" x="2313.5" y="625.37"/><polygon fill="#F1F1F1" points="2445.5,630.37,2445.5,644.37,2457.5,644.37,2457.5,636.37,2451.5,630.37,2445.5,630.37" style="stroke:#181818;stroke-width:0.5;"/><line style="stroke:#181818;stroke-width:0.5;" x1="2451.5" x2="2451.5" y1="630.37" y2="636.37"/><line style="stroke:#181818;stroke-width:0.5;" x1="2457.5" x2="2451.5" y1="636.37" y2="636.37"/><text fill="#000000" font-family="sans-serif" font-size="14" lengthAdjust="spacing" textLength="119" x="2323.5" y="651.3651">letsencrypt_certs</text></g><!--entity 8504fa92da4ace279fcef4b85abf09a2--><g id="elem_8504fa92da4ace279fcef4b85abf09a2"><rect fill="#F1F1F1" height="39.2969" rx="2.5" ry="2.5" style="stroke:#181818;stroke-width:0.5;" width="199" x="2511.5" y="625.37"/><polygon fill="#F1F1F1" points="2693.5,630.37,2693.5,644.37,2705.5,644.37,2705.5,636.37,2699.5,630.37,2693.5,630.37" style="stroke:#181818;stroke-width:0.5;"/><line style="stroke:#181818;stroke-width:0.5;" x1="2699.5" x2="2699.5" y1="630.37" y2="636.37"/><line style="stroke:#181818;stroke-width:0.5;" x1="2705.5" x2="2699.5" y1="636.37" y2="636.37"/><text fill="#000000" font-family="sans-serif" font-size="14" lengthAdjust="spacing" textLength="169" x="2521.5" y="651.3651">certbot_acme_challenge</text></g><!--entity 7a1e35394eba22ed61abc2695ba701c3--><g id="elem_7a1e35394eba22ed61abc2695ba701c3"><rect fill="#F1F1F1" height="39.2969" rx="2.5" ry="2.5" style="stroke:#181818;stroke-width:0.5;" width="151" x="2025.5" y="625.37"/><polygon fill="#F1F1F1" points="2159.5,630.37,2159.5,644.37,2171.5,644.37,2171.5,636.37,2165.5,630.37,2159.5,630.37" style="stroke:#181818;stroke-width:0.5;"/><line style="stroke:#181818;stroke-width:0.5;" x1="2165.5" x2="2165.5" y1="630.37" y2="636.37"/><line style="stroke:#181818;stroke-width:0.5;" x1="2171.5" x2="2165.5" y1="636.37" y2="636.37"/><text fill="#000000" font-family="sans-serif" font-size="14" lengthAdjust="spacing" textLength="121" x="2035.5" y="651.3651">./local-env/vhosts</text></g><!--entity d2e4048eb785166d505ec373eb6db9fc--><g id="elem_d2e4048eb785166d505ec373eb6db9fc"><rect fill="#F1F1F1" height="39.2969" rx="2.5" ry="2.5" style="stroke:#181818;stroke-width:0.5;" width="173" x="2969.5" y="625.37"/><polygon fill="#F1F1F1" points="3125.5,630.37,3125.5,644.37,3137.5,644.37,3137.5,636.37,3131.5,630.37,3125.5,630.37" style="stroke:#181818;stroke-width:0.5;"/><line style="stroke:#181818;stroke-width:0.5;" x1="3131.5" x2="3131.5" y1="630.37" y2="636.37"/><line style="stroke:#181818;stroke-width:0.5;" x1="3137.5" x2="3131.5" y1="636.37" y2="636.37"/><text fill="#000000" font-family="sans-serif" font-size="14" lengthAdjust="spacing" textLength="143" x="2979.5" y="651.3651">/var/run/docker.sock</text></g><!--entity 4ee4e842a5b02b96710ef6f54e60eaf4--><g id="elem_4ee4e842a5b02b96710ef6f54e60eaf4"><rect fill="#F1F1F1" height="39.2969" rx="2.5" ry="2.5" style="stroke:#181818;stroke-width:0.5;" width="39" x="3200.5" y="625.37"/><polygon fill="#F1F1F1" points="3222.5,630.37,3222.5,644.37,3234.5,644.37,3234.5,636.37,3228.5,630.37,3222.5,630.37" style="stroke:#181818;stroke-width:0.5;"/><line style="stroke:#181818;stroke-width:0.5;" x1="3228.5" x2="3228.5" y1="630.37" y2="636.37"/><line style="stroke:#181818;stroke-width:0.5;" x1="3234.5" x2="3228.5" y1="636.37" y2="636.37"/><text fill="#000000" font-family="sans-serif" font-size="14" lengthAdjust="spacing" textLength="9" x="3210.5" y="651.3651">./</text></g><!--entity ed422b3fce7d00db2cdf5baae2758cc0--><g id="elem_ed422b3fce7d00db2cdf5baae2758cc0"><rect fill="#F1F1F1" height="78.8906" rx="2.5" ry="2.5" style="stroke:#181818;stroke-width:0.5;" width="75" x="3295.5" y="78.59"/><rect fill="#F1F1F1" height="10" style="stroke:#181818;stroke-width:0.5;" width="15" x="3350.5" y="83.59"/><rect fill="#F1F1F1" height="2" style="stroke:#181818;stroke-width:0.5;" width="4" x="3348.5" y="85.59"/><rect fill="#F1F1F1" height="2" style="stroke:#181818;stroke-width:0.5;" width="4" x="3348.5" y="89.59"/><text fill="#000000" font-family="sans-serif" font-size="14" font-weight="bold" lengthAdjust="spacing" textLength="35" x="3310.5" y="111.5851">Text</text><text fill="#000000" font-family="sans-serif" font-size="14" lengthAdjust="spacing" textLength="4" x="3310.5" y="127.882">&#160;</text><text fill="#000000" font-family="sans-serif" font-size="14" lengthAdjust="spacing" textLength="4" x="3310.5" y="144.1789">&#160;</text></g><!--link 6cec62b19a20c63d1b6535f2688de974 to 18eb8329fc6fdb6f429a02d04f286599--><g id="link_6cec62b19a20c63d1b6535f2688de974_18eb8329fc6fdb6f429a02d04f286599"><path codeLine="88" d="M180,190.16 C180,222.22 180,256.21 180,271.19 " fill="none" id="6cec62b19a20c63d1b6535f2688de974-18eb8329fc6fdb6f429a02d04f286599" style="stroke:#181818;stroke-width:1.0;"/></g><!--link 18eb8329fc6fdb6f429a02d04f286599 to 600c44c1349e9154dce569ba37e2d70b--><g id="link_18eb8329fc6fdb6f429a02d04f286599_600c44c1349e9154dce569ba37e2d70b"><path codeLine="89" d="M180,288.72 C180,312.37 180,384.19 180,408.18 " fill="none" id="18eb8329fc6fdb6f429a02d04f286599-600c44c1349e9154dce569ba37e2d70b" style="stroke:#181818;stroke-width:1.0;"/></g><!--link e08de8ee1b7bd0e45201edaf78ba4697 to ece32d11de04ea9b6e1403bb711bc958--><g id="link_e08de8ee1b7bd0e45201edaf78ba4697_ece32d11de04ea9b6e1403bb711bc958"><path codeLine="90" d="M635,165.76 C635,203.22 635,252.52 635,271.33 " fill="none" id="e08de8ee1b7bd0e45201edaf78ba4697-ece32d11de04ea9b6e1403bb711bc958" style="stroke:#181818;stroke-width:1.0;"/></g><!--link ece32d11de04ea9b6e1403bb711bc958 to 09459082643d79967357df725fa5f7f3--><g id="link_ece32d11de04ea9b6e1403bb711bc958_09459082643d79967357df725fa5f7f3"><path codeLine="91" d="M635,288.72 C635,312.37 635,384.19 635,408.18 " fill="none" id="ece32d11de04ea9b6e1403bb711bc958-09459082643d79967357df725fa5f7f3" style="stroke:#181818;stroke-width:1.0;"/></g><!--link 349a83bb472f89aafc32c286b36aadbc to 6adbba7d1bab26e0203b790ae0adb380--><g id="link_349a83bb472f89aafc32c286b36aadbc_6adbba7d1bab26e0203b790ae0adb380"><path codeLine="92" d="M992,165.76 C992,203.22 992,252.52 992,271.33 " fill="none" id="349a83bb472f89aafc32c286b36aadbc-6adbba7d1bab26e0203b790ae0adb380" style="stroke:#181818;stroke-width:1.0;"/></g><!--link 6adbba7d1bab26e0203b790ae0adb380 to 51644e9b83b8cfce8c3c8531f9c1db78--><g id="link_6adbba7d1bab26e0203b790ae0adb380_51644e9b83b8cfce8c3c8531f9c1db78"><path codeLine="93" d="M992,288.72 C992,312.37 992,384.19 992,408.18 " fill="none" id="6adbba7d1bab26e0203b790ae0adb380-51644e9b83b8cfce8c3c8531f9c1db78" style="stroke:#181818;stroke-width:1.0;"/></g><!--link 48871f9ddd61de6056759e86342fe397 to 73d99f61cf21f8768f6271f1b1e3cb79--><g id="link_48871f9ddd61de6056759e86342fe397_73d99f61cf21f8768f6271f1b1e3cb79"><path codeLine="94" d="M1249,546.67 C1249,568.29 1249,603.46 1249,625.09 " fill="none" id="48871f9ddd61de6056759e86342fe397-73d99f61cf21f8768f6271f1b1e3cb79" style="stroke:#181818;stroke-width:1.0;"/><text fill="#000000" font-family="sans-serif" font-size="13" lengthAdjust="spacing" textLength="14" x="1250" y="591.4369">rw</text></g><!--link 90864b398c54ba1a31949f1dc8f522f9 to 48871f9ddd61de6056759e86342fe397--><g id="link_90864b398c54ba1a31949f1dc8f522f9_48871f9ddd61de6056759e86342fe397"><path codeLine="95" d="M1340.08,166.09 C1317.47,255.37 1270.6925,440.0535 1255.3025,500.8435 " fill="none" id="90864b398c54ba1a31949f1dc8f522f9-to-48871f9ddd61de6056759e86342fe397" style="stroke:#181818;stroke-width:1.0;stroke-dasharray:7.0,7.0;"/><polygon fill="#181818" points="1253.83,506.66,1259.9165,498.917,1255.0571,501.8129,1252.1612,496.9536,1253.83,506.66" style="stroke:#181818;stroke-width:1.0;"/><text fill="#000000" font-family="sans-serif" font-size="13" lengthAdjust="spacing" textLength="23" x="1297" y="354.1469">use</text></g><!--link 5e07b5c6520b9f500d4b371c306e53c8 to 02333efa2bf4b0344924cb9dbec6e9b2--><g id="link_5e07b5c6520b9f500d4b371c306e53c8_02333efa2bf4b0344924cb9dbec6e9b2"><path codeLine="96" d="M1481.2,546.67 C1512.17,568.23 1562.46,603.25 1593.53,624.89 " fill="none" id="5e07b5c6520b9f500d4b371c306e53c8-02333efa2bf4b0344924cb9dbec6e9b2" style="stroke:#181818;stroke-width:1.0;"/><text fill="#000000" font-family="sans-serif" font-size="13" lengthAdjust="spacing" textLength="14" x="1549" y="591.4369">rw</text></g><!--link 90864b398c54ba1a31949f1dc8f522f9 to 5e07b5c6520b9f500d4b371c306e53c8--><g id="link_90864b398c54ba1a31949f1dc8f522f9_5e07b5c6520b9f500d4b371c306e53c8"><path codeLine="97" d="M1363.8,166.09 C1386.19,255.37 1432.5101,440.0503 1447.7601,500.8403 " fill="none" id="90864b398c54ba1a31949f1dc8f522f9-to-5e07b5c6520b9f500d4b371c306e53c8" style="stroke:#181818;stroke-width:1.0;stroke-dasharray:7.0,7.0;"/><polygon fill="#181818" points="1449.22,506.66,1450.9099,496.9572,1448.0034,501.8103,1443.1503,498.9038,1449.22,506.66" style="stroke:#181818;stroke-width:1.0;"/><text fill="#000000" font-family="sans-serif" font-size="13" lengthAdjust="spacing" textLength="23" x="1413" y="354.1469">use</text></g><!--link 02afd862d04e83ed8e2004eacc5b6db9 to 3a61031652ff80665f419f821c1ac407--><g id="link_02afd862d04e83ed8e2004eacc5b6db9_3a61031652ff80665f419f821c1ac407"><path codeLine="98" d="M2028.18,165.76 C2002.67,203.22 1969.09,252.52 1956.27,271.33 " fill="none" id="02afd862d04e83ed8e2004eacc5b6db9-3a61031652ff80665f419f821c1ac407" style="stroke:#181818;stroke-width:1.0;"/></g><!--link 3a61031652ff80665f419f821c1ac407 to 8a81c9bb0ec23d07684c1472053c60fe--><g id="link_3a61031652ff80665f419f821c1ac407_8a81c9bb0ec23d07684c1472053c60fe"><path codeLine="99" d="M1942.73,288.96 C1930.9,299.93 1908.11,319.94 1886,333.08 C1831.71,365.33 1810.79,358.51 1755,388.08 C1742.72,394.58 1729.44,403.56 1720.94,409.58 " fill="none" id="3a61031652ff80665f419f821c1ac407-8a81c9bb0ec23d07684c1472053c60fe" style="stroke:#181818;stroke-width:1.0;"/></g><!--link 02afd862d04e83ed8e2004eacc5b6db9 to 97b04832e42a04c7beb04c21e560b3fb--><g id="link_02afd862d04e83ed8e2004eacc5b6db9_97b04832e42a04c7beb04c21e560b3fb"><path codeLine="100" d="M1995.77,165.97 C1943.27,204.34 1873.91,255.03 1849.75,272.69 " fill="none" id="02afd862d04e83ed8e2004eacc5b6db9-97b04832e42a04c7beb04c21e560b3fb" style="stroke:#181818;stroke-width:1.0;"/></g><!--link 97b04832e42a04c7beb04c21e560b3fb to dba3f4d0bb5aa6fcfa18da2c1f7a9775--><g id="link_97b04832e42a04c7beb04c21e560b3fb_dba3f4d0bb5aa6fcfa18da2c1f7a9775"><path codeLine="101" d="M1832.21,282.85 C1807.32,288.21 1735.06,306 1686,341.08 C1659.16,360.26 1636.82,393.44 1627.57,408.39 " fill="none" id="97b04832e42a04c7beb04c21e560b3fb-dba3f4d0bb5aa6fcfa18da2c1f7a9775" style="stroke:#181818;stroke-width:1.0;"/></g><!--link feb445bcd0c040198341918ff2d4fe78 to 02333efa2bf4b0344924cb9dbec6e9b2--><g id="link_feb445bcd0c040198341918ff2d4fe78_02333efa2bf4b0344924cb9dbec6e9b2"><path codeLine="102" d="M1838.36,546.8 C1790.1,568.39 1711.94,603.35 1663.67,624.94 " fill="none" id="feb445bcd0c040198341918ff2d4fe78-02333efa2bf4b0344924cb9dbec6e9b2" style="stroke:#181818;stroke-width:1.0;"/><text fill="#000000" font-family="sans-serif" font-size="13" lengthAdjust="spacing" textLength="14" x="1767" y="591.4369">rw</text></g><!--link 02afd862d04e83ed8e2004eacc5b6db9 to feb445bcd0c040198341918ff2d4fe78--><g id="link_02afd862d04e83ed8e2004eacc5b6db9_feb445bcd0c040198341918ff2d4fe78"><path codeLine="103" d="M2049.59,165.72 C2038.91,209.89 2020.44,277.51 1996,333.08 C1966.44,400.29 1921.4908,468.0476 1898.0308,501.7076 " fill="none" id="02afd862d04e83ed8e2004eacc5b6db9-to-feb445bcd0c040198341918ff2d4fe78" style="stroke:#181818;stroke-width:1.0;stroke-dasharray:7.0,7.0;"/><polygon fill="#181818" points="1894.6,506.63,1903.0277,501.5336,1897.459,502.528,1896.4645,496.9592,1894.6,506.63" style="stroke:#181818;stroke-width:1.0;"/><text fill="#000000" font-family="sans-serif" font-size="13" lengthAdjust="spacing" textLength="23" x="1993" y="354.1469">use</text></g><!--link 2fa7031e2dc022b03ff52ea31d0b38a8 to 9af05835fa384a0cf483e5aa169630e7--><g id="link_2fa7031e2dc022b03ff52ea31d0b38a8_9af05835fa384a0cf483e5aa169630e7"><path codeLine="104" d="M2298.43,546.67 C2318.33,568.29 2350.68,603.46 2370.58,625.09 " fill="none" id="2fa7031e2dc022b03ff52ea31d0b38a8-9af05835fa384a0cf483e5aa169630e7" style="stroke:#181818;stroke-width:1.0;"/><text fill="#000000" font-family="sans-serif" font-size="13" lengthAdjust="spacing" textLength="14" x="2341" y="591.4369">rw</text></g><!--link 02afd862d04e83ed8e2004eacc5b6db9 to 2fa7031e2dc022b03ff52ea31d0b38a8--><g id="link_02afd862d04e83ed8e2004eacc5b6db9_2fa7031e2dc022b03ff52ea31d0b38a8"><path codeLine="105" d="M2085.57,166.09 C2134.08,255.37 2234.7455,440.598 2267.7755,501.388 " fill="none" id="02afd862d04e83ed8e2004eacc5b6db9-to-2fa7031e2dc022b03ff52ea31d0b38a8" style="stroke:#181818;stroke-width:1.0;stroke-dasharray:7.0,7.0;"/><polygon fill="#181818" points="2270.64,506.66,2269.8579,496.8422,2268.2529,502.2666,2262.8285,500.6616,2270.64,506.66" style="stroke:#181818;stroke-width:1.0;"/><text fill="#000000" font-family="sans-serif" font-size="13" lengthAdjust="spacing" textLength="23" x="2190" y="354.1469">use</text></g><!--link d8a3f0fbb8decd75a2abaa2cf0995f5e to 8504fa92da4ace279fcef4b85abf09a2--><g id="link_d8a3f0fbb8decd75a2abaa2cf0995f5e_8504fa92da4ace279fcef4b85abf09a2"><path codeLine="106" d="M2484.6,546.67 C2512.59,568.23 2558.07,603.25 2586.16,624.89 " fill="none" id="d8a3f0fbb8decd75a2abaa2cf0995f5e-8504fa92da4ace279fcef4b85abf09a2" style="stroke:#181818;stroke-width:1.0;"/><text fill="#000000" font-family="sans-serif" font-size="13" lengthAdjust="spacing" textLength="14" x="2545" y="591.4369">rw</text></g><!--link 02afd862d04e83ed8e2004eacc5b6db9 to d8a3f0fbb8decd75a2abaa2cf0995f5e--><g id="link_02afd862d04e83ed8e2004eacc5b6db9_d8a3f0fbb8decd75a2abaa2cf0995f5e"><path codeLine="107" d="M2106.28,166.09 C2194.09,255.37 2377.2527,441.5923 2437.0427,502.3823 " fill="none" id="02afd862d04e83ed8e2004eacc5b6db9-to-d8a3f0fbb8decd75a2abaa2cf0995f5e" style="stroke:#181818;stroke-width:1.0;stroke-dasharray:7.0,7.0;"/><polygon fill="#181818" points="2441.25,506.66,2437.7908,497.4386,2437.7439,503.0953,2432.0872,503.0484,2441.25,506.66" style="stroke:#181818;stroke-width:1.0;"/><text fill="#000000" font-family="sans-serif" font-size="13" lengthAdjust="spacing" textLength="23" x="2295" y="354.1469">use</text></g><!--link 23b1b729f9899522b85a42067de034a3 to 7a1e35394eba22ed61abc2695ba701c3--><g id="link_23b1b729f9899522b85a42067de034a3_7a1e35394eba22ed61abc2695ba701c3"><path codeLine="108" d="M2101,546.67 C2101,568.29 2101,603.46 2101,625.09 " fill="none" id="23b1b729f9899522b85a42067de034a3-7a1e35394eba22ed61abc2695ba701c3" style="stroke:#181818;stroke-width:1.0;"/><text fill="#000000" font-family="sans-serif" font-size="13" lengthAdjust="spacing" textLength="14" x="2102" y="591.4369">rw</text></g><!--link 02afd862d04e83ed8e2004eacc5b6db9 to 23b1b729f9899522b85a42067de034a3--><g id="link_02afd862d04e83ed8e2004eacc5b6db9_23b1b729f9899522b85a42067de034a3"><path codeLine="109" d="M2064.74,166.09 C2073.74,255.37 2092.348,439.9003 2098.478,500.6903 " fill="none" id="02afd862d04e83ed8e2004eacc5b6db9-to-23b1b729f9899522b85a42067de034a3" style="stroke:#181818;stroke-width:1.0;stroke-dasharray:7.0,7.0;"/><polygon fill="#181818" points="2099.08,506.66,2102.1568,497.3041,2098.5783,501.6852,2094.1972,498.1067,2099.08,506.66" style="stroke:#181818;stroke-width:1.0;"/><text fill="#000000" font-family="sans-serif" font-size="13" lengthAdjust="spacing" textLength="23" x="2085" y="354.1469">use</text></g><!--link 4f5bbfba023abcad1d457e30dd56ffa2 to 9af05835fa384a0cf483e5aa169630e7--><g id="link_4f5bbfba023abcad1d457e30dd56ffa2_9af05835fa384a0cf483e5aa169630e7"><path codeLine="110" d="M2639.17,546.58 C2621.41,561.74 2594.61,582.55 2568,595.37 C2535.05,611.25 2496.11,622.59 2462.9,630.3 " fill="none" id="4f5bbfba023abcad1d457e30dd56ffa2-9af05835fa384a0cf483e5aa169630e7" style="stroke:#181818;stroke-width:1.0;"/><text fill="#000000" font-family="sans-serif" font-size="13" lengthAdjust="spacing" textLength="14" x="2596" y="591.4369">rw</text></g><!--link b2e5a6b1daa1b905edcf88ba35110a2c to 4f5bbfba023abcad1d457e30dd56ffa2--><g id="link_b2e5a6b1daa1b905edcf88ba35110a2c_4f5bbfba023abcad1d457e30dd56ffa2"><path codeLine="111" d="M2740.55,157.66 C2721.89,242.92 2679.0429,438.7188 2665.3829,501.1288 " fill="none" id="b2e5a6b1daa1b905edcf88ba35110a2c-to-4f5bbfba023abcad1d457e30dd56ffa2" style="stroke:#181818;stroke-width:1.0;stroke-dasharray:7.0,7.0;"/><polygon fill="#181818" points="2664.1,506.99,2669.9318,499.0534,2665.1691,502.1056,2662.1168,497.3429,2664.1,506.99" style="stroke:#181818;stroke-width:1.0;"/><text fill="#000000" font-family="sans-serif" font-size="13" lengthAdjust="spacing" textLength="23" x="2701" y="354.1469">use</text></g><!--link adb224ccfeb4c419f45fa9b10375c326 to 8504fa92da4ace279fcef4b85abf09a2--><g id="link_adb224ccfeb4c419f45fa9b10375c326_8504fa92da4ace279fcef4b85abf09a2"><path codeLine="112" d="M2801.61,546.8 C2759.28,568.39 2690.74,603.35 2648.41,624.94 " fill="none" id="adb224ccfeb4c419f45fa9b10375c326-8504fa92da4ace279fcef4b85abf09a2" style="stroke:#181818;stroke-width:1.0;"/><text fill="#000000" font-family="sans-serif" font-size="13" lengthAdjust="spacing" textLength="14" x="2739" y="591.4369">rw</text></g><!--link b2e5a6b1daa1b905edcf88ba35110a2c to adb224ccfeb4c419f45fa9b10375c326--><g id="link_b2e5a6b1daa1b905edcf88ba35110a2c_adb224ccfeb4c419f45fa9b10375c326"><path codeLine="113" d="M2757.55,157.66 C2776.42,242.92 2819.7437,438.7217 2833.5537,501.1317 " fill="none" id="b2e5a6b1daa1b905edcf88ba35110a2c-to-adb224ccfeb4c419f45fa9b10375c326" style="stroke:#181818;stroke-width:1.0;stroke-dasharray:7.0,7.0;"/><polygon fill="#181818" points="2834.85,506.99,2836.8111,497.3384,2833.7697,502.1081,2829,499.0668,2834.85,506.99" style="stroke:#181818;stroke-width:1.0;"/><text fill="#000000" font-family="sans-serif" font-size="13" lengthAdjust="spacing" textLength="23" x="2802" y="354.1469">use</text></g><!--link 107ea90b85e17faf4f7afc86017a48ab to d2e4048eb785166d505ec373eb6db9fc--><g id="link_107ea90b85e17faf4f7afc86017a48ab_d2e4048eb785166d505ec373eb6db9fc"><path codeLine="114" d="M3056,546.67 C3056,568.29 3056,603.46 3056,625.09 " fill="none" id="107ea90b85e17faf4f7afc86017a48ab-d2e4048eb785166d505ec373eb6db9fc" style="stroke:#181818;stroke-width:1.0;"/><text fill="#000000" font-family="sans-serif" font-size="13" lengthAdjust="spacing" textLength="14" x="3057" y="591.4369">rw</text></g><!--link ede0da965a02d6ed8de7d7a0ab067969 to 107ea90b85e17faf4f7afc86017a48ab--><g id="link_ede0da965a02d6ed8de7d7a0ab067969_107ea90b85e17faf4f7afc86017a48ab"><path codeLine="115" d="M3103.75,166.09 C3091.9,255.37 3067.3896,439.9222 3059.3196,500.7122 " fill="none" id="ede0da965a02d6ed8de7d7a0ab067969-to-107ea90b85e17faf4f7afc86017a48ab" style="stroke:#181818;stroke-width:1.0;stroke-dasharray:7.0,7.0;"/><polygon fill="#181818" points="3058.53,506.66,3063.6796,498.2647,3059.188,501.7035,3055.7492,497.2119,3058.53,506.66" style="stroke:#181818;stroke-width:1.0;"/><text fill="#000000" font-family="sans-serif" font-size="13" lengthAdjust="spacing" textLength="23" x="3081" y="354.1469">use</text></g><!--link 4859b8c3887a1d16eb0586611fc3ae0e to 4ee4e842a5b02b96710ef6f54e60eaf4--><g id="link_4859b8c3887a1d16eb0586611fc3ae0e_4ee4e842a5b02b96710ef6f54e60eaf4"><path codeLine="116" d="M3220,546.67 C3220,568.29 3220,603.46 3220,625.09 " fill="none" id="4859b8c3887a1d16eb0586611fc3ae0e-4ee4e842a5b02b96710ef6f54e60eaf4" style="stroke:#181818;stroke-width:1.0;"/><text fill="#000000" font-family="sans-serif" font-size="13" lengthAdjust="spacing" textLength="13" x="3221" y="591.4369">ro</text></g><!--link ede0da965a02d6ed8de7d7a0ab067969 to 4859b8c3887a1d16eb0586611fc3ae0e--><g id="link_ede0da965a02d6ed8de7d7a0ab067969_4859b8c3887a1d16eb0586611fc3ae0e"><path codeLine="117" d="M3122.73,166.09 C3146.87,255.37 3196.8336,440.0781 3213.2736,500.8681 " fill="none" id="ede0da965a02d6ed8de7d7a0ab067969-to-4859b8c3887a1d16eb0586611fc3ae0e" style="stroke:#181818;stroke-width:1.0;stroke-dasharray:7.0,7.0;"/><polygon fill="#181818" points="3214.84,506.66,3216.3517,496.9279,3213.5347,501.8334,3208.6292,499.0163,3214.84,506.66" style="stroke:#181818;stroke-width:1.0;"/><text fill="#000000" font-family="sans-serif" font-size="13" lengthAdjust="spacing" textLength="23" x="3175" y="354.1469">use</text></g><!--SRC=[bLTTRoF74Npdho3qP1yWSRu_12I07UGfGH0azeiDG-ZfwP5fKIH1Kj9T3F_trEwIEbAmFISzI08vErrTNLtTIwlLvkLn-N6vlf-jDrNcL_zUqVhmzBYwtilkMNPNSzhFat5il0fUc9Kgod5pFXITH4TJ2ir_dSrvyxZTh6Lzc0SM3gReJ4Pni5MNuArl9gHK9KSt_t7suSCfp8SFizdoaUxbThuzVhJONaAu_KKEXqypMJylTvlr8qBSph_zvhz_l_l-F__yo-dix20VyVdm-_pVsKypsXsMZVWmlne-6VFnd0s7sAXLdLpH54hGJLDCnhlexEohh-TNIIKrdaQQ9LcJ6uTMIsZEP5AcAjTC2ZxdsMz7wdxOR1v4jaVIZCwPMBolpZ9-Y3Fh6YatHxx4SacQA92JH3I-gKgSDqfBfHPJ8HTo74dxtod06MkyMRVL4wvOhdd1s-lNCxShEiX-f618n-YaHrp2OatLkefoGha4qKxPKgBMXRDFh-dyWze3JNmv7O8E1dVuv3KRbuhJfIaMYbJLPIhMPKguq4NJKYPgR0s3gc83KIqyfl8mNFudQOpVlqqXgsn6G07t58gG5XKJH1aa4BCYKVZ29lMQmpVRxVX0DUHZ1VyfsLQDRYLdhqFEjKND72ypo2e5LsnEx5qXJLPdbvkkd9etfkKnW_eBhUytrxJT3cdiW1DAkvtJweK-xI-5jrYksuxkU4SlgwCwN4fHjrnh3QX4K3v4doK5wqmJc-CVFhr0m0LY7PRSbYlPJmKI5Old0DMKtBnI5V2Hc5L1lENFDVtN_NBzSPA1EEkKiOmQrLXR0Iberk2Q0YnqwGKZog1NKXXKBybAJMBK81zcNq8j4oFhuV9ZqrvmyhG6qFtr_h3PRgMUokcS7P5O2bfP3V2j9HM2RqxdbencJUnKF7RZU3P7k0-QKPmXs50iChYHqUA3AhQLzz7Mf3Zd2rV5oYcTaqLadLeprJM9wVmsEV1Y9OUzh7dtQJlvY6aKWLnCPMLCKRP17mAvL819TF7yC-qMBoyl2vRTeMocvsiY2xfBGUzpZPuC5IB3JK6TpSlR-2F1Y-UVD_l3b82n1OO1Qye9Jm12ykIC2X7DRHtPrxh_xImgPwMKXnsGAO5BQurBqKWzPlQvfClA5oCU_gWhaIvPUQbG34p9UgqLi8wL7vBQ3oM_bFtlSUQQBwKLEAYbmbHrTJwALRNwq1gP7cTeS8Dnn4FjU12Aymqk1WL53wC9drF6i9WqKs562OI2dwO8ftsg8J4i0RpNDxqleAvI3dxm-02bLubmRKK5jEOmAPrnTqVXRzBOFQqNTSCFihlPuyyqM5I40IiK3NCKmyYr2BDCGUb8Bj65c5yskuUwF7d7K2Qsi13ILGVqW4ymQ0sdXGKAABWOO44fTevHuYnPUrSnbK962IEK6rMPpFLrGAZiF1pG16Thp3b42-jiqO1dtsApRxmODkgS0905fiO2O9oyXRd1RWkQwBpNqHIQSobAsDYgOaZ0XK6Xu591DJdlzGg4pQ6LYYSAZHlfLA4u3PfoZFwCdflVSTXeQyujQ6vmjeH8BHXOhYvQB6DQd3q- -SBTysRrz2WJ1yPQAv1ZQGvzxLo6vagk1QiDSZrNwPd0xyO-c4H73KN1saCsEL9Oc62Ro0Cp9rWbv_v-LFSTyQFSyS-qMidwVeAHFBOCogQImofX8dOG0I1qEPISBvhbPh7QCAskiIQTEmGK8jRRxAIGCO9fWwup8NkCJuK1yIKwhR1RkAwWc2Xsg1ukm3PQ6Qs_yGMAIQ6OBfBWqRueKo0XhQI5vXqcdK3ei-wEU5sl-ujNxy1uIrVztTLhkAMxDVKEZBTqMwkxEuqPzRQVte7nbcxVzbQKyPPUbyrlvrUxbwjPTwMwkQatDt_jxaN3VKzxkPhrLfw9xquRlnTTD-W9NNTV6j1r5v_UWV6MhgL-4PRkOjKxCDxIjUpUnlMkgdKJErQj6_HKjTu-Dp7LSVRteki6FQ7hROkJ6ZeJuxteka5VkUkiefDRTARHkxdh1JsXwssTxwfiToK-ULalw0bTRwTzLsM_55qtw0bTRqsTEh-p8vpGTTVh8xfkqDVATfRX4Lrl7ndHRRuSNJVe2TtvUuM3FYsA5YlcHZ5S8GyYLD8dPZM-Ltmd7m_JQzJ_0G00]--></g></svg>