<svg xmlns="http://www.w3.org/2000/svg" xmlns:xlink="http://www.w3.org/1999/xlink" contentStyleType="text/css" height="907px" preserveAspectRatio="none" style="width:988px;height:907px;background:#FFFFFF;" version="1.1" viewBox="0 0 988 907" width="988px" zoomAndPan="magnify"><defs/><g><!--cluster 179335348579cf937cb239a124d9dc58--><g id="cluster_179335348579cf937cb239a124d9dc58"><polygon fill="none" points="16,132.6,26,122.6,556,122.6,556,780.75,546,790.75,16,790.75,16,132.6" style="stroke:#181818;stroke-width:1.0;"/><line style="stroke:#181818;stroke-width:1.0;" x1="546" x2="556" y1="132.6" y2="122.6"/><line style="stroke:#181818;stroke-width:1.0;" x1="16" x2="546" y1="132.6" y2="132.6"/><line style="stroke:#181818;stroke-width:1.0;" x1="546" x2="546" y1="132.6" y2="790.75"/><text fill="#000000" font-family="sans-serif" font-size="14" font-weight="bold" lengthAdjust="spacing" textLength="83" x="240.5" y="148.5951">Localstack</text></g><!--entity b4196383e968b89b3805608e6784f427--><g id="elem_b4196383e968b89b3805608e6784f427"><rect fill="#F1F1F1" height="241.8594" rx="2.5" ry="2.5" style="stroke:#181818;stroke-width:0.5;" width="471" x="40.5" y="170.6"/><rect fill="#F1F1F1" height="10" style="stroke:#181818;stroke-width:0.5;" width="15" x="491.5" y="175.6"/><rect fill="#F1F1F1" height="2" style="stroke:#181818;stroke-width:0.5;" width="4" x="489.5" y="177.6"/><rect fill="#F1F1F1" height="2" style="stroke:#181818;stroke-width:0.5;" width="4" x="489.5" y="181.6"/><text fill="#000000" font-family="sans-serif" font-size="14" font-weight="bold" lengthAdjust="spacing" textLength="122" x="55.5" y="203.5951">localstack_main</text><text fill="#000000" font-family="sans-serif" font-size="14" lengthAdjust="spacing" textLength="4" x="55.5" y="219.892">&#160;</text><text fill="#000000" font-family="sans-serif" font-size="14" lengthAdjust="spacing" textLength="235" x="55.5" y="236.1889">image: localstack/localstack:latest</text><text fill="#000000" font-family="sans-serif" font-size="14" lengthAdjust="spacing" textLength="355" x="55.5" y="252.4857">environment: SERVICES=dynamodb,lambda,kinesis</text><text fill="#000000" font-family="sans-serif" font-size="14" lengthAdjust="spacing" textLength="345" x="55.5" y="268.7826">environment: LAMBDA_EXECUTOR=docker_reuse</text><text fill="#000000" font-family="sans-serif" font-size="14" lengthAdjust="spacing" textLength="400" x="55.5" y="285.0795">environment: DOCKER_HOST=unix:///var/run/docker.sock</text><text fill="#000000" font-family="sans-serif" font-size="14" lengthAdjust="spacing" textLength="338" x="55.5" y="301.3764">environment: DEFAULT_REGION=ap-southeast-2</text><text fill="#000000" font-family="sans-serif" font-size="14" lengthAdjust="spacing" textLength="168" x="55.5" y="317.6732">environment: DEBUG=1</text><text fill="#000000" font-family="sans-serif" font-size="14" lengthAdjust="spacing" textLength="317" x="55.5" y="333.9701">environment: DATA_DIR=/tmp/localstack/data</text><text fill="#000000" font-family="sans-serif" font-size="14" lengthAdjust="spacing" textLength="242" x="55.5" y="350.267">environment: PORT_WEB_UI=8080</text><text fill="#000000" font-family="sans-serif" font-size="14" lengthAdjust="spacing" textLength="431" x="55.5" y="366.5639">environment: LAMBDA_DOCKER_NETWORK=localstack-tutorial</text><text fill="#000000" font-family="sans-serif" font-size="14" lengthAdjust="spacing" textLength="304" x="55.5" y="382.8607">environment: KINESIS_PROVIDER=kinesalite</text><text fill="#000000" font-family="sans-serif" font-size="14" lengthAdjust="spacing" textLength="4" x="55.5" y="399.1576">&#160;</text></g><!--entity 32c9446f4c687abf7bb16dba851cb4f0--><g id="elem_32c9446f4c687abf7bb16dba851cb4f0"><ellipse cx="141" cy="502.46" fill="#F1F1F1" rx="8" ry="8" style="stroke:#181818;stroke-width:0.5;"/><text fill="#000000" font-family="sans-serif" font-size="14" lengthAdjust="spacing" textLength="18" x="132" y="532.4551">53</text></g><!--entity 0613a23745e13004aaf5732823276d60--><g id="elem_0613a23745e13004aaf5732823276d60"><ellipse cx="230" cy="502.46" fill="#F1F1F1" rx="8" ry="8" style="stroke:#181818;stroke-width:0.5;"/><text fill="#000000" font-family="sans-serif" font-size="14" lengthAdjust="spacing" textLength="27" x="216.5" y="532.4551">443</text></g><!--entity fe3d648f2291649f1a7f625e3c357e74--><g id="elem_fe3d648f2291649f1a7f625e3c357e74"><ellipse cx="319" cy="502.46" fill="#F1F1F1" rx="8" ry="8" style="stroke:#181818;stroke-width:0.5;"/><text fill="#000000" font-family="sans-serif" font-size="14" lengthAdjust="spacing" textLength="36" x="301" y="532.4551">4566</text></g><!--entity 79c65202c5d83c8743422eb1231013d2--><g id="elem_79c65202c5d83c8743422eb1231013d2"><ellipse cx="408" cy="502.46" fill="#F1F1F1" rx="8" ry="8" style="stroke:#181818;stroke-width:0.5;"/><text fill="#000000" font-family="sans-serif" font-size="14" lengthAdjust="spacing" textLength="36" x="390" y="532.4551">4571</text></g><!--entity ab9880bae860d343b64a834d0accf1b3--><g id="elem_ab9880bae860d343b64a834d0accf1b3"><ellipse cx="497" cy="502.46" fill="#F1F1F1" rx="8" ry="8" style="stroke:#181818;stroke-width:0.5;"/><text fill="#000000" font-family="sans-serif" font-size="14" lengthAdjust="spacing" textLength="36" x="479" y="532.4551">8080</text></g><!--entity 17b7215081d2f406961a7508126b070b--><g id="elem_17b7215081d2f406961a7508126b070b"><rect fill="#F1F1F1" height="39.2969" rx="2.5" ry="2.5" style="stroke:#181818;stroke-width:0.5;" width="173" x="40.5" y="727.46"/><polygon fill="#F1F1F1" points="196.5,732.46,196.5,746.46,208.5,746.46,208.5,738.46,202.5,732.46,196.5,732.46" style="stroke:#181818;stroke-width:0.5;"/><line style="stroke:#181818;stroke-width:0.5;" x1="202.5" x2="202.5" y1="732.46" y2="738.46"/><line style="stroke:#181818;stroke-width:0.5;" x1="208.5" x2="202.5" y1="738.46" y2="738.46"/><text fill="#000000" font-family="sans-serif" font-size="14" lengthAdjust="spacing" textLength="143" x="50.5" y="753.4551">/var/run/docker.sock</text></g><!--entity 6f2ae5cd72dc8dcda2898c4914e7d231--><g id="elem_6f2ae5cd72dc8dcda2898c4914e7d231"><rect fill="#F1F1F1" height="39.2969" rx="2.5" ry="2.5" style="stroke:#181818;stroke-width:0.5;" width="170" x="249" y="727.46"/><polygon fill="#F1F1F1" points="402,732.46,402,746.46,414,746.46,414,738.46,408,732.46,402,732.46" style="stroke:#181818;stroke-width:0.5;"/><line style="stroke:#181818;stroke-width:0.5;" x1="408" x2="408" y1="732.46" y2="738.46"/><line style="stroke:#181818;stroke-width:0.5;" x1="414" x2="408" y1="738.46" y2="738.46"/><text fill="#000000" font-family="sans-serif" font-size="14" lengthAdjust="spacing" textLength="140" x="259" y="753.4551">/tmp/localstack/data</text></g><!--entity c21f969b5f03d33d43e04f8f136e7682--><g id="elem_c21f969b5f03d33d43e04f8f136e7682"><polygon fill="#F1F1F1" points="491,16,501,6,605,6,605,58.5938,595,68.5938,491,68.5938,491,16" style="stroke:#181818;stroke-width:0.5;"/><line style="stroke:#181818;stroke-width:0.5;" x1="595" x2="605" y1="16" y2="6"/><line style="stroke:#181818;stroke-width:0.5;" x1="491" x2="595" y1="16" y2="16"/><line style="stroke:#181818;stroke-width:0.5;" x1="595" x2="595" y1="16" y2="68.5938"/><text fill="#000000" font-family="sans-serif" font-size="14" font-weight="bold" lengthAdjust="spacing" textLength="55" x="506" y="38.9951">default</text><text fill="#000000" font-family="sans-serif" font-size="14" lengthAdjust="spacing" textLength="74" x="506" y="55.292">&#171;network&#187;</text></g><!--entity 0988c8d2c551e6f66df053b4e314a991--><g id="elem_0988c8d2c551e6f66df053b4e314a991"><ellipse cx="607" cy="637.46" fill="#F1F1F1" rx="8" ry="8" style="stroke:#181818;stroke-width:0.5;"/><text fill="#000000" font-family="sans-serif" font-size="14" lengthAdjust="spacing" textLength="18" x="598" y="667.4551">53</text></g><!--entity 8a81c9bb0ec23d07684c1472053c60fe--><g id="elem_8a81c9bb0ec23d07684c1472053c60fe"><ellipse cx="696" cy="637.46" fill="#F1F1F1" rx="8" ry="8" style="stroke:#181818;stroke-width:0.5;"/><text fill="#000000" font-family="sans-serif" font-size="14" lengthAdjust="spacing" textLength="27" x="682.5" y="667.4551">443</text></g><!--entity a1f84e22ff1924cd1c7eeb4a45c396eb--><g id="elem_a1f84e22ff1924cd1c7eeb4a45c396eb"><ellipse cx="785" cy="637.46" fill="#F1F1F1" rx="8" ry="8" style="stroke:#181818;stroke-width:0.5;"/><text fill="#000000" font-family="sans-serif" font-size="14" lengthAdjust="spacing" textLength="36" x="767" y="667.4551">4566</text></g><!--entity 3d59d150a1c1edd40a04ee9bfc582253--><g id="elem_3d59d150a1c1edd40a04ee9bfc582253"><ellipse cx="874" cy="637.46" fill="#F1F1F1" rx="8" ry="8" style="stroke:#181818;stroke-width:0.5;"/><text fill="#000000" font-family="sans-serif" font-size="14" lengthAdjust="spacing" textLength="36" x="856" y="667.4551">4571</text></g><!--entity 600c44c1349e9154dce569ba37e2d70b--><g id="elem_600c44c1349e9154dce569ba37e2d70b"><ellipse cx="963" cy="637.46" fill="#F1F1F1" rx="8" ry="8" style="stroke:#181818;stroke-width:0.5;"/><text fill="#000000" font-family="sans-serif" font-size="14" lengthAdjust="spacing" textLength="36" x="945" y="667.4551">8080</text></g><!--entity d2e4048eb785166d505ec373eb6db9fc--><g id="elem_d2e4048eb785166d505ec373eb6db9fc"><rect fill="#F1F1F1" height="39.2969" rx="2.5" ry="2.5" style="stroke:#181818;stroke-width:0.5;" width="173" x="40.5" y="861.75"/><polygon fill="#F1F1F1" points="196.5,866.75,196.5,880.75,208.5,880.75,208.5,872.75,202.5,866.75,196.5,866.75" style="stroke:#181818;stroke-width:0.5;"/><line style="stroke:#181818;stroke-width:0.5;" x1="202.5" x2="202.5" y1="866.75" y2="872.75"/><line style="stroke:#181818;stroke-width:0.5;" x1="208.5" x2="202.5" y1="872.75" y2="872.75"/><text fill="#000000" font-family="sans-serif" font-size="14" lengthAdjust="spacing" textLength="143" x="50.5" y="887.7451">/var/run/docker.sock</text></g><!--entity 71381f5d6abd4169ce71446d077bc561--><g id="elem_71381f5d6abd4169ce71446d077bc561"><rect fill="#F1F1F1" height="39.2969" rx="2.5" ry="2.5" style="stroke:#181818;stroke-width:0.5;" width="135" x="266.5" y="861.75"/><polygon fill="#F1F1F1" points="384.5,866.75,384.5,880.75,396.5,880.75,396.5,872.75,390.5,866.75,384.5,866.75" style="stroke:#181818;stroke-width:0.5;"/><line style="stroke:#181818;stroke-width:0.5;" x1="390.5" x2="390.5" y1="866.75" y2="872.75"/><line style="stroke:#181818;stroke-width:0.5;" x1="396.5" x2="390.5" y1="872.75" y2="872.75"/><text fill="#000000" font-family="sans-serif" font-size="14" lengthAdjust="spacing" textLength="105" x="276.5" y="887.7451">localstack_data</text></g><!--link b4196383e968b89b3805608e6784f427 to 32c9446f4c687abf7bb16dba851cb4f0--><g id="link_b4196383e968b89b3805608e6784f427_32c9446f4c687abf7bb16dba851cb4f0"><path codeLine="34" d="M198.25,412.85 C175.98,447.32 155.23,479.43 146.01,493.7 " fill="none" id="b4196383e968b89b3805608e6784f427-32c9446f4c687abf7bb16dba851cb4f0" style="stroke:#181818;stroke-width:1.0;"/></g><!--link 32c9446f4c687abf7bb16dba851cb4f0 to 0988c8d2c551e6f66df053b4e314a991--><g id="link_32c9446f4c687abf7bb16dba851cb4f0_0988c8d2c551e6f66df053b4e314a991"><path codeLine="35" d="M149.81,510.22 C158.54,516.61 172.53,525.99 186,531.46 C335.2,591.98 386.42,560.1 540,608.46 C561.4,615.2 585.44,626.1 598.09,632.12 " fill="none" id="32c9446f4c687abf7bb16dba851cb4f0-0988c8d2c551e6f66df053b4e314a991" style="stroke:#181818;stroke-width:1.0;"/></g><!--link b4196383e968b89b3805608e6784f427 to 0613a23745e13004aaf5732823276d60--><g id="link_b4196383e968b89b3805608e6784f427_0613a23745e13004aaf5732823276d60"><path codeLine="36" d="M249.51,412.85 C241.92,447.32 234.85,479.43 231.71,493.7 " fill="none" id="b4196383e968b89b3805608e6784f427-0613a23745e13004aaf5732823276d60" style="stroke:#181818;stroke-width:1.0;"/></g><!--link 0613a23745e13004aaf5732823276d60 to 8a81c9bb0ec23d07684c1472053c60fe--><g id="link_0613a23745e13004aaf5732823276d60_8a81c9bb0ec23d07684c1472053c60fe"><path codeLine="37" d="M238.8,510.26 C247.52,516.67 261.49,526.08 275,531.46 C354.44,563.1 572.72,576.41 652,608.46 C665.1,613.75 678.57,622.99 687.1,629.4 " fill="none" id="0613a23745e13004aaf5732823276d60-8a81c9bb0ec23d07684c1472053c60fe" style="stroke:#181818;stroke-width:1.0;"/></g><!--link b4196383e968b89b3805608e6784f427 to fe3d648f2291649f1a7f625e3c357e74--><g id="link_b4196383e968b89b3805608e6784f427_fe3d648f2291649f1a7f625e3c357e74"><path codeLine="38" d="M300.76,412.85 C307.86,447.32 314.47,479.43 317.4,493.7 " fill="none" id="b4196383e968b89b3805608e6784f427-fe3d648f2291649f1a7f625e3c357e74" style="stroke:#181818;stroke-width:1.0;"/></g><!--link fe3d648f2291649f1a7f625e3c357e74 to a1f84e22ff1924cd1c7eeb4a45c396eb--><g id="link_fe3d648f2291649f1a7f625e3c357e74_a1f84e22ff1924cd1c7eeb4a45c396eb"><path codeLine="39" d="M327.78,510.31 C336.48,516.76 350.45,526.19 364,531.46 C431.43,557.68 453.08,547.13 524,561.46 C620.73,581 649.73,570.94 741,608.46 C754.06,613.83 767.55,623.05 776.08,629.44 " fill="none" id="fe3d648f2291649f1a7f625e3c357e74-a1f84e22ff1924cd1c7eeb4a45c396eb" style="stroke:#181818;stroke-width:1.0;"/></g><!--link b4196383e968b89b3805608e6784f427 to 79c65202c5d83c8743422eb1231013d2--><g id="link_b4196383e968b89b3805608e6784f427_79c65202c5d83c8743422eb1231013d2"><path codeLine="40" d="M352.02,412.85 C373.8,447.32 394.09,479.43 403.1,493.7 " fill="none" id="b4196383e968b89b3805608e6784f427-79c65202c5d83c8743422eb1231013d2" style="stroke:#181818;stroke-width:1.0;"/></g><!--link 79c65202c5d83c8743422eb1231013d2 to 3d59d150a1c1edd40a04ee9bfc582253--><g id="link_79c65202c5d83c8743422eb1231013d2_3d59d150a1c1edd40a04ee9bfc582253"><path codeLine="41" d="M416.75,510.39 C425.43,516.9 439.38,526.38 453,531.46 C532.69,561.18 558.66,544.46 642,561.46 C726.39,578.67 750.87,574.45 830,608.46 C842.98,614.03 856.48,623.21 865.04,629.53 " fill="none" id="79c65202c5d83c8743422eb1231013d2-3d59d150a1c1edd40a04ee9bfc582253" style="stroke:#181818;stroke-width:1.0;"/></g><!--link b4196383e968b89b3805608e6784f427 to ab9880bae860d343b64a834d0accf1b3--><g id="link_b4196383e968b89b3805608e6784f427_ab9880bae860d343b64a834d0accf1b3"><path codeLine="42" d="M403.28,412.85 C439.74,447.32 473.7,479.43 488.79,493.7 " fill="none" id="b4196383e968b89b3805608e6784f427-ab9880bae860d343b64a834d0accf1b3" style="stroke:#181818;stroke-width:1.0;"/></g><!--link ab9880bae860d343b64a834d0accf1b3 to 600c44c1349e9154dce569ba37e2d70b--><g id="link_ab9880bae860d343b64a834d0accf1b3_600c44c1349e9154dce569ba37e2d70b"><path codeLine="43" d="M505.98,504.54 C551.63,510.31 762.04,539.65 919,608.46 C931.94,614.13 945.45,623.28 954.03,629.57 " fill="none" id="ab9880bae860d343b64a834d0accf1b3-600c44c1349e9154dce569ba37e2d70b" style="stroke:#181818;stroke-width:1.0;"/></g><!--link 17b7215081d2f406961a7508126b070b to d2e4048eb785166d505ec373eb6db9fc--><g id="link_17b7215081d2f406961a7508126b070b_d2e4048eb785166d505ec373eb6db9fc"><path codeLine="44" d="M127,767.06 C127,792.21 127,836.35 127,861.48 " fill="none" id="17b7215081d2f406961a7508126b070b-d2e4048eb785166d505ec373eb6db9fc" style="stroke:#181818;stroke-width:1.0;"/><text fill="#000000" font-family="sans-serif" font-size="13" lengthAdjust="spacing" textLength="14" x="128" y="827.8169">rw</text></g><!--link b4196383e968b89b3805608e6784f427 to 17b7215081d2f406961a7508126b070b--><g id="link_b4196383e968b89b3805608e6784f427_17b7215081d2f406961a7508126b070b"><path codeLine="45" d="M107.96,412.88 C94.8,431.16 84.75,451.39 80,473.46 C59.63,568.07 98.1569,677.1113 116.4669,721.6113 " fill="none" id="b4196383e968b89b3805608e6784f427-to-17b7215081d2f406961a7508126b070b" style="stroke:#181818;stroke-width:1.0;stroke-dasharray:7.0,7.0;"/><polygon fill="#181818" points="118.75,727.16,119.0245,717.315,116.8475,722.5361,111.6263,720.359,118.75,727.16" style="stroke:#181818;stroke-width:1.0;"/><text fill="#000000" font-family="sans-serif" font-size="13" lengthAdjust="spacing" textLength="23" x="78" y="574.5269">use</text></g><!--link 6f2ae5cd72dc8dcda2898c4914e7d231 to 71381f5d6abd4169ce71446d077bc561--><g id="link_6f2ae5cd72dc8dcda2898c4914e7d231_71381f5d6abd4169ce71446d077bc561"><path codeLine="46" d="M334,767.06 C334,792.21 334,836.35 334,861.48 " fill="none" id="6f2ae5cd72dc8dcda2898c4914e7d231-71381f5d6abd4169ce71446d077bc561" style="stroke:#181818;stroke-width:1.0;"/><text fill="#000000" font-family="sans-serif" font-size="13" lengthAdjust="spacing" textLength="14" x="335" y="827.8169">rw</text></g><!--link b4196383e968b89b3805608e6784f427 to 6f2ae5cd72dc8dcda2898c4914e7d231--><g id="link_b4196383e968b89b3805608e6784f427_6f2ae5cd72dc8dcda2898c4914e7d231"><path codeLine="47" d="M121.54,412.92 C93.71,448.97 78.61,490 97,531.46 C138.52,625.08 238.0926,692.2522 293.3826,724.1422 " fill="none" id="b4196383e968b89b3805608e6784f427-to-6f2ae5cd72dc8dcda2898c4914e7d231" style="stroke:#181818;stroke-width:1.0;stroke-dasharray:7.0,7.0;"/><polygon fill="#181818" points="298.58,727.14,292.7823,719.1784,294.2488,724.6419,288.7853,726.1083,298.58,727.14" style="stroke:#181818;stroke-width:1.0;"/><text fill="#000000" font-family="sans-serif" font-size="13" lengthAdjust="spacing" textLength="23" x="124" y="574.5269">use</text></g><!--reverse link c21f969b5f03d33d43e04f8f136e7682 to 179335348579cf937cb239a124d9dc58--><g id="link_c21f969b5f03d33d43e04f8f136e7682_179335348579cf937cb239a124d9dc58"><path codeLine="48" d="M548,74.98 C548,83.25 548,86.8391 548,97.2974 C548,102.5265 548,107.973 548,113.5805 C548,116.3843 548,119.2283 548,122.1056 " fill="none" id="c21f969b5f03d33d43e04f8f136e7682-backto-179335348579cf937cb239a124d9dc58" style="stroke:#181818;stroke-width:1.0;"/><polygon fill="#181818" points="548,68.98,544,77.98,548,73.98,552,77.98,548,68.98" style="stroke:#181818;stroke-width:1.0;"/></g><!--SRC=[bLRRRjj647tdLn1wQeN8sjtPgn0Py8LD1BjM8Cb9WROGzZAR4fP8GwBY547-lJJjnfBXOjqdITIPipDdpWpNhbRrtRhyMbQViweEcFVw_O3HxbPDl_z7zVPjXSrTlRavFkxbTfjxHgEHneb880043aXur962H2KrU-IuhBrTRHlhRxeegWo00Aw5CZuQKDunC9Oo7apmGkVVijpNwzkwmgh97QT6WWOqKZjj76WY9D4ebUQHCvN_dlNxgnydBDUshFhzB2lNzZEEygT_XazVHolRuBR9iFfIRkfgtPupokV5xEFah9YFmz-LNTV1lLdPjGlspKrPuRRS7g8lJtuzFJzP5hyLPzUBwMmSQd-3c-K6TriyH9vFpowAsVBzTBuOxwhowsWu77wnc-5cLmqVeewsxSUpeEANa-lBnN9Ml9jChyRsTh2jTyrVQBVDW3s7dbw_6zDd3qyM9ylpoMmyRDQtUvKFWsti8VJ3TBPOVYfEbzUJiIQQl5ZdOn5NnUBJT7OnVY8SDBkctfHsTHXsCRagvfFvyiDi-d5oNip6dOXsLJQOPNzcF_sSzmHqRW3c3USoSY-riYugvwWCpcf1lUEHT5ZE7y14Kh0C51T8WH1kRHGAc6R0b0po4IoaxD0H8KYk8sE6IcuYjIfA9X0y28MAFw8LxT2j6QLWX7aHD7YjE736q546b508h4FV2zIXhJDQ4sTHInA0WvFSQk21MEyZTP3PJLD6wvkyzrAt7mV1AKO5qJImo8aqiitm_YUJZYZYzZbUQ6F78IEpA7nGB7WTVB1C6-sveHnLQ5FFlk-BJTgaMrXRew0eevGX4W6E8r1kZQ47OckhgJVE4VGC0ca7cdlA5MiZl2GH3yMsD6gEZCL83UC-KAyG7RTSU30ItQ7O48G9RUcMUeeXS689HpGkjlFFc813iIKXdhU70pTegE31esZNZWM5B3mJwh_43WmvuHgTQftL5Yw8G0yAqBLkCz7lSUnjanywAmgQHX6aTO5JQJmgsjgsbKKvBoJDadjg40PfiwS07KkoYw_A9JbBAK37aZJ9gt99JceAqB4aBVYgN99x80Luw7JAuA_A9Rrb4e2E9Ja-gKNKiQG6A1_blSrTBrtOqL4uEZfERhzxllPbsijIA-wXQudv_B_P9G_zDxlaRMQm6nmdRqh_0000]--></g></svg>