<svg xmlns="http://www.w3.org/2000/svg" xmlns:xlink="http://www.w3.org/1999/xlink" contentStyleType="text/css" height="638px" preserveAspectRatio="none" style="width:995px;height:638px;background:#FFFFFF;" version="1.1" viewBox="0 0 995 638" width="995px" zoomAndPan="magnify"><defs/><g><!--cluster 824c25065ecc00b04cf456b18e172bba--><g id="cluster_824c25065ecc00b04cf456b18e172bba"><polygon fill="none" points="16,16,26,6,547,6,547,282.49,537,292.49,16,292.49,16,16" style="stroke:#181818;stroke-width:1.0;"/><line style="stroke:#181818;stroke-width:1.0;" x1="537" x2="547" y1="16" y2="6"/><line style="stroke:#181818;stroke-width:1.0;" x1="16" x2="537" y1="16" y2="16"/><line style="stroke:#181818;stroke-width:1.0;" x1="537" x2="537" y1="16" y2="292.49"/><text fill="#000000" font-family="sans-serif" font-size="14" font-weight="bold" lengthAdjust="spacing" textLength="125" x="215" y="31.9951">Plantuml-server</text></g><!--cluster d2a57dc1d883fd21fb9951699df71cc7--><g id="cluster_d2a57dc1d883fd21fb9951699df71cc7"><polygon fill="none" points="571,24.15,581,14.15,978,14.15,978,519.78,968,529.78,571,529.78,571,24.15" style="stroke:#181818;stroke-width:1.0;"/><line style="stroke:#181818;stroke-width:1.0;" x1="968" x2="978" y1="24.15" y2="14.15"/><line style="stroke:#181818;stroke-width:1.0;" x1="571" x2="968" y1="24.15" y2="24.15"/><line style="stroke:#181818;stroke-width:1.0;" x1="968" x2="968" y1="24.15" y2="529.78"/><text fill="#000000" font-family="sans-serif" font-size="14" font-weight="bold" lengthAdjust="spacing" textLength="31" x="755" y="40.1451">App</text></g><!--entity 6cec62b19a20c63d1b6535f2688de974--><g id="elem_6cec62b19a20c63d1b6535f2688de974"><rect fill="#F1F1F1" height="111.4844" rx="2.5" ry="2.5" style="stroke:#181818;stroke-width:0.5;" width="296" x="32" y="46"/><rect fill="#F1F1F1" height="10" style="stroke:#181818;stroke-width:0.5;" width="15" x="308" y="51"/><rect fill="#F1F1F1" height="2" style="stroke:#181818;stroke-width:0.5;" width="4" x="306" y="53"/><rect fill="#F1F1F1" height="2" style="stroke:#181818;stroke-width:0.5;" width="4" x="306" y="57"/><text fill="#000000" font-family="sans-serif" font-size="14" font-weight="bold" lengthAdjust="spacing" textLength="125" x="47" y="78.9951">plantuml-server</text><text fill="#000000" font-family="sans-serif" font-size="14" lengthAdjust="spacing" textLength="4" x="47" y="95.292">&#160;</text><text fill="#000000" font-family="sans-serif" font-size="14" lengthAdjust="spacing" textLength="256" x="47" y="111.5889">image: plantuml/plantuml-server:jetty</text><text fill="#000000" font-family="sans-serif" font-size="14" lengthAdjust="spacing" textLength="247" x="47" y="127.8857">environment: BASE_URL=plantuml2</text><text fill="#000000" font-family="sans-serif" font-size="14" lengthAdjust="spacing" textLength="4" x="47" y="144.1826">&#160;</text></g><!--entity 15c81e78893024c5e2ba38d2fd08859c--><g id="elem_15c81e78893024c5e2ba38d2fd08859c"><rect fill="#F1F1F1" height="78.8906" rx="2.5" ry="2.5" style="stroke:#181818;stroke-width:0.5;" width="169" x="362.5" y="62.3"/><rect fill="#F1F1F1" height="10" style="stroke:#181818;stroke-width:0.5;" width="15" x="511.5" y="67.3"/><rect fill="#F1F1F1" height="2" style="stroke:#181818;stroke-width:0.5;" width="4" x="509.5" y="69.3"/><rect fill="#F1F1F1" height="2" style="stroke:#181818;stroke-width:0.5;" width="4" x="509.5" y="73.3"/><text fill="#000000" font-family="sans-serif" font-size="14" font-weight="bold" lengthAdjust="spacing" textLength="129" x="377.5" y="95.2951">New component</text><text fill="#000000" font-family="sans-serif" font-size="14" lengthAdjust="spacing" textLength="4" x="377.5" y="111.592">&#160;</text><text fill="#000000" font-family="sans-serif" font-size="14" lengthAdjust="spacing" textLength="4" x="377.5" y="127.8889">&#160;</text></g><!--entity 18eb8329fc6fdb6f429a02d04f286599--><g id="elem_18eb8329fc6fdb6f429a02d04f286599"><ellipse cx="180" cy="247.49" fill="#F1F1F1" rx="8" ry="8" style="stroke:#181818;stroke-width:0.5;"/><text fill="#000000" font-family="sans-serif" font-size="14" lengthAdjust="spacing" textLength="36" x="162" y="277.4851">8080</text></g><!--entity 90864b398c54ba1a31949f1dc8f522f9--><g id="elem_90864b398c54ba1a31949f1dc8f522f9"><rect fill="#F1F1F1" height="95.1875" rx="2.5" ry="2.5" style="stroke:#181818;stroke-width:0.5;" width="139" x="680.5" y="54.15"/><rect fill="#F1F1F1" height="10" style="stroke:#181818;stroke-width:0.5;" width="15" x="799.5" y="59.15"/><rect fill="#F1F1F1" height="2" style="stroke:#181818;stroke-width:0.5;" width="4" x="797.5" y="61.15"/><rect fill="#F1F1F1" height="2" style="stroke:#181818;stroke-width:0.5;" width="4" x="797.5" y="65.15"/><text fill="#000000" font-family="sans-serif" font-size="14" font-weight="bold" lengthAdjust="spacing" textLength="88" x="695.5" y="87.1451">django-app</text><text fill="#000000" font-family="sans-serif" font-size="14" lengthAdjust="spacing" textLength="4" x="695.5" y="103.442">&#160;</text><text fill="#000000" font-family="sans-serif" font-size="14" lengthAdjust="spacing" textLength="99" x="695.5" y="119.7389">restart: always</text><text fill="#000000" font-family="sans-serif" font-size="14" lengthAdjust="spacing" textLength="4" x="695.5" y="136.0357">&#160;</text></g><!--entity 48871f9ddd61de6056759e86342fe397--><g id="elem_48871f9ddd61de6056759e86342fe397"><rect fill="#F1F1F1" height="39.2969" rx="2.5" ry="2.5" style="stroke:#181818;stroke-width:0.5;" width="120" x="587" y="474.49"/><polygon fill="#F1F1F1" points="690,479.49,690,493.49,702,493.49,702,485.49,696,479.49,690,479.49" style="stroke:#181818;stroke-width:0.5;"/><line style="stroke:#181818;stroke-width:0.5;" x1="696" x2="696" y1="479.49" y2="485.49"/><line style="stroke:#181818;stroke-width:0.5;" x1="702" x2="696" y1="485.49" y2="485.49"/><text fill="#000000" font-family="sans-serif" font-size="14" lengthAdjust="spacing" textLength="90" x="597" y="500.4851">/infra_crawler</text></g><!--entity 5e07b5c6520b9f500d4b371c306e53c8--><g id="elem_5e07b5c6520b9f500d4b371c306e53c8"><rect fill="#F1F1F1" height="39.2969" rx="2.5" ry="2.5" style="stroke:#181818;stroke-width:0.5;" width="220" x="742" y="474.49"/><polygon fill="#F1F1F1" points="945,479.49,945,493.49,957,493.49,957,485.49,951,479.49,945,479.49" style="stroke:#181818;stroke-width:0.5;"/><line style="stroke:#181818;stroke-width:0.5;" x1="951" x2="951" y1="479.49" y2="485.49"/><line style="stroke:#181818;stroke-width:0.5;" x1="957" x2="951" y1="485.49" y2="485.49"/><text fill="#000000" font-family="sans-serif" font-size="14" lengthAdjust="spacing" textLength="190" x="752" y="500.4851">/infra_crawler/app/staticfiles</text></g><!--entity 600c44c1349e9154dce569ba37e2d70b--><g id="elem_600c44c1349e9154dce569ba37e2d70b"><ellipse cx="180" cy="384.49" fill="#F1F1F1" rx="8" ry="8" style="stroke:#181818;stroke-width:0.5;"/><text fill="#000000" font-family="sans-serif" font-size="14" lengthAdjust="spacing" textLength="36" x="162" y="414.4851">8080</text></g><!--entity 73d99f61cf21f8768f6271f1b1e3cb79--><g id="elem_73d99f61cf21f8768f6271f1b1e3cb79"><rect fill="#F1F1F1" height="39.2969" rx="2.5" ry="2.5" style="stroke:#181818;stroke-width:0.5;" width="124" x="585" y="592.78"/><polygon fill="#F1F1F1" points="692,597.78,692,611.78,704,611.78,704,603.78,698,597.78,692,597.78" style="stroke:#181818;stroke-width:0.5;"/><line style="stroke:#181818;stroke-width:0.5;" x1="698" x2="698" y1="597.78" y2="603.78"/><line style="stroke:#181818;stroke-width:0.5;" x1="704" x2="698" y1="603.78" y2="603.78"/><text fill="#000000" font-family="sans-serif" font-size="14" lengthAdjust="spacing" textLength="94" x="595" y="618.7751">./infra_crawler</text></g><!--entity 02333efa2bf4b0344924cb9dbec6e9b2--><g id="elem_02333efa2bf4b0344924cb9dbec6e9b2"><rect fill="#F1F1F1" height="39.2969" rx="2.5" ry="2.5" style="stroke:#181818;stroke-width:0.5;" width="124" x="790" y="592.78"/><polygon fill="#F1F1F1" points="897,597.78,897,611.78,909,611.78,909,603.78,903,597.78,897,597.78" style="stroke:#181818;stroke-width:0.5;"/><line style="stroke:#181818;stroke-width:0.5;" x1="903" x2="903" y1="597.78" y2="603.78"/><line style="stroke:#181818;stroke-width:0.5;" x1="909" x2="903" y1="603.78" y2="603.78"/><text fill="#000000" font-family="sans-serif" font-size="14" lengthAdjust="spacing" textLength="94" x="800" y="618.7751">static_volume</text></g><!--link 6cec62b19a20c63d1b6535f2688de974 to 18eb8329fc6fdb6f429a02d04f286599--><g id="link_6cec62b19a20c63d1b6535f2688de974_18eb8329fc6fdb6f429a02d04f286599"><path codeLine="30" d="M180,157.91 C180,188.63 180,223.66 180,238.82 " fill="none" id="6cec62b19a20c63d1b6535f2688de974-18eb8329fc6fdb6f429a02d04f286599" style="stroke:#181818;stroke-width:1.0;"/></g><!--link 18eb8329fc6fdb6f429a02d04f286599 to 600c44c1349e9154dce569ba37e2d70b--><g id="link_18eb8329fc6fdb6f429a02d04f286599_600c44c1349e9154dce569ba37e2d70b"><path codeLine="31" d="M180,256.13 C180,279.78 180,351.6 180,375.59 " fill="none" id="18eb8329fc6fdb6f429a02d04f286599-600c44c1349e9154dce569ba37e2d70b" style="stroke:#181818;stroke-width:1.0;"/></g><!--link 48871f9ddd61de6056759e86342fe397 to 73d99f61cf21f8768f6271f1b1e3cb79--><g id="link_48871f9ddd61de6056759e86342fe397_73d99f61cf21f8768f6271f1b1e3cb79"><path codeLine="32" d="M647,514.08 C647,535.7 647,570.87 647,592.5 " fill="none" id="48871f9ddd61de6056759e86342fe397-73d99f61cf21f8768f6271f1b1e3cb79" style="stroke:#181818;stroke-width:1.0;"/><text fill="#000000" font-family="sans-serif" font-size="13" lengthAdjust="spacing" textLength="14" x="648" y="558.8469">rw</text></g><!--link 90864b398c54ba1a31949f1dc8f522f9 to 48871f9ddd61de6056759e86342fe397--><g id="link_90864b398c54ba1a31949f1dc8f522f9_48871f9ddd61de6056759e86342fe397"><path codeLine="33" d="M737.58,149.83 C714.84,236.02 668.9706,409.8685 653.5206,468.4285 " fill="none" id="90864b398c54ba1a31949f1dc8f522f9-to-48871f9ddd61de6056759e86342fe397" style="stroke:#181818;stroke-width:1.0;stroke-dasharray:7.0,7.0;"/><polygon fill="#181818" points="651.99,474.23,658.1536,466.5482,653.2655,469.3954,650.4183,464.5074,651.99,474.23" style="stroke:#181818;stroke-width:1.0;"/><text fill="#000000" font-family="sans-serif" font-size="13" lengthAdjust="spacing" textLength="23" x="696" y="321.5569">use</text></g><!--link 5e07b5c6520b9f500d4b371c306e53c8 to 02333efa2bf4b0344924cb9dbec6e9b2--><g id="link_5e07b5c6520b9f500d4b371c306e53c8_02333efa2bf4b0344924cb9dbec6e9b2"><path codeLine="34" d="M852,514.08 C852,535.7 852,570.87 852,592.5 " fill="none" id="5e07b5c6520b9f500d4b371c306e53c8-02333efa2bf4b0344924cb9dbec6e9b2" style="stroke:#181818;stroke-width:1.0;"/><text fill="#000000" font-family="sans-serif" font-size="13" lengthAdjust="spacing" textLength="14" x="853" y="558.8469">rw</text></g><!--link 90864b398c54ba1a31949f1dc8f522f9 to 5e07b5c6520b9f500d4b371c306e53c8--><g id="link_90864b398c54ba1a31949f1dc8f522f9_5e07b5c6520b9f500d4b371c306e53c8"><path codeLine="35" d="M762.3,149.83 C784.82,236.02 830.2433,409.8649 845.5433,468.4249 " fill="none" id="90864b398c54ba1a31949f1dc8f522f9-to-5e07b5c6520b9f500d4b371c306e53c8" style="stroke:#181818;stroke-width:1.0;stroke-dasharray:7.0,7.0;"/><polygon fill="#181818" points="847.06,474.23,848.655,464.5112,845.7961,469.3924,840.9148,466.5334,847.06,474.23" style="stroke:#181818;stroke-width:1.0;"/><text fill="#000000" font-family="sans-serif" font-size="13" lengthAdjust="spacing" textLength="23" x="809" y="321.5569">use</text></g><!--SRC=[bP9FQnin4CNl-XHYJwt1jlvBOsWXXTvAAIqzXHAaqIXiME-QzIPkAFtkbRS9IKhBqgFGpBpVl7cnwuRJlltUzjUi7pBnvbCN- -bstwsFDDxHsF1uv44PL5OuIuX2966m6EkI32IzIYdo7upZi3yCFVKJTqZeL98GbK2diqpEQbkK2o4JUCClsMfrU2cpMZ7MxkCrxVZZp_QFajqDJTCze_wk7OT-NvLs_Dt5b_TNNpz_UFDOgnZxnfvGfCKWoOS0MjGTBAaKTSYgP1621PnHFjBfYVuCKaUyUisR88AOrwzxfg0L57Gb9rUCWYXK5gQeu2m0-_dWtSNXC3Ta5QtFA7C8kcGbImAmqW7auYMYV-aNYE1CqX3GcXHbr18C59an5AjKWHaotyJ-UbZ7m-5CED9nYcCr87QdU7yy4zTdMo9ElDcsVHdZ5Oxnr3qSq8JWPO6SivEPdB3EMw3Wj565DFX_Tc-huBPgJIsMjgFZFCsIyCcYiqeaA5Q8NF7hObeuiXf3zUE5Vqu8D0QbDa0WhSb8ra6zX2ULlKZFr3T_WVSw0nGdiLGdWtUXE5MtaKcInkJXMVjlqgkxeRlTqzmibDQQIbIfc2IqCL1pa22dcb62fDXYMjTvlPo0fO9vog8FIsUQfopPmNUy6KyDMupLPfCtcxUBsJZFkprImvREFjCj-Vs_T8kY3tI_0000]--></g></svg>