<?xml version="1.0" encoding="us-ascii" standalone="no"?><svg xmlns="http://www.w3.org/2000/svg" xmlns:xlink="http://www.w3.org/1999/xlink" contentStyleType="text/css" height="621px" preserveAspectRatio="none" style="width:994px;height:621px;background:#FFFFFF;" version="1.1" viewBox="0 0 994 621" width="994px" zoomAndPan="magnify"><defs/><g><!--cluster 824c25065ecc00b04cf456b18e172bba--><g id="cluster_824c25065ecc00b04cf456b18e172bba"><polygon fill="none" points="16,16,26,6,546,6,546,266.19,536,276.19,16,276.19,16,16" style="stroke:#181818;stroke-width:1.0;"/><line style="stroke:#181818;stroke-width:1.0;" x1="536" x2="546" y1="16" y2="6"/><line style="stroke:#181818;stroke-width:1.0;" x1="16" x2="536" y1="16" y2="16"/><line style="stroke:#181818;stroke-width:1.0;" x1="536" x2="536" y1="16" y2="276.19"/><text fill="#000000" font-family="sans-serif" font-size="14" font-weight="bold" lengthAdjust="spacing" textLength="67" x="243.5" y="31.9951">Plantuml</text></g><!--cluster d2a57dc1d883fd21fb9951699df71cc7--><g id="cluster_d2a57dc1d883fd21fb9951699df71cc7"><polygon fill="none" points="570,16,580,6,977,6,977,503.48,967,513.48,570,513.48,570,16" style="stroke:#181818;stroke-width:1.0;"/><line style="stroke:#181818;stroke-width:1.0;" x1="967" x2="977" y1="16" y2="6"/><line style="stroke:#181818;stroke-width:1.0;" x1="570" x2="967" y1="16" y2="16"/><line style="stroke:#181818;stroke-width:1.0;" x1="967" x2="967" y1="16" y2="513.48"/><text fill="#000000" font-family="sans-serif" font-size="14" font-weight="bold" lengthAdjust="spacing" textLength="31" x="754" y="31.9951">App</text></g><!--entity 6cec62b19a20c63d1b6535f2688de974--><g id="elem_6cec62b19a20c63d1b6535f2688de974"><rect fill="#F1F1F1" height="95.1875" rx="2.5" ry="2.5" style="stroke:#181818;stroke-width:0.5;" width="296" x="234" y="46"/><rect fill="#F1F1F1" height="10" style="stroke:#181818;stroke-width:0.5;" width="15" x="510" y="51"/><rect fill="#F1F1F1" height="2" style="stroke:#181818;stroke-width:0.5;" width="4" x="508" y="53"/><rect fill="#F1F1F1" height="2" style="stroke:#181818;stroke-width:0.5;" width="4" x="508" y="57"/><text fill="#000000" font-family="sans-serif" font-size="14" font-weight="bold" lengthAdjust="spacing" textLength="125" x="249" y="78.9951">plantuml-server</text><text fill="#000000" font-family="sans-serif" font-size="14" lengthAdjust="spacing" textLength="4" x="249" y="95.292">&#160;</text><text fill="#000000" font-family="sans-serif" font-size="14" lengthAdjust="spacing" textLength="256" x="249" y="111.5889">image: plantuml/plantuml-server:jetty</text><text fill="#000000" font-family="sans-serif" font-size="14" lengthAdjust="spacing" textLength="4" x="249" y="127.8857">&#160;</text></g><!--entity 976a3137b5495bb7219185dfb079884c--><g id="elem_976a3137b5495bb7219185dfb079884c"><rect fill="#F1F1F1" height="78.8906" rx="2.5" ry="2.5" style="stroke:#181818;stroke-width:0.5;" width="75" x="123.5" y="54.15"/><rect fill="#F1F1F1" height="10" style="stroke:#181818;stroke-width:0.5;" width="15" x="178.5" y="59.15"/><rect fill="#F1F1F1" height="2" style="stroke:#181818;stroke-width:0.5;" width="4" x="176.5" y="61.15"/><rect fill="#F1F1F1" height="2" style="stroke:#181818;stroke-width:0.5;" width="4" x="176.5" y="65.15"/><text fill="#000000" font-family="sans-serif" font-size="14" font-weight="bold" lengthAdjust="spacing" textLength="35" x="138.5" y="87.1451">Text</text><text fill="#000000" font-family="sans-serif" font-size="14" lengthAdjust="spacing" textLength="4" x="138.5" y="103.442">&#160;</text><text fill="#000000" font-family="sans-serif" font-size="14" lengthAdjust="spacing" textLength="4" x="138.5" y="119.7389">&#160;</text></g><!--entity de91e421c985b702ef47bfcb8478dabc--><g id="elem_de91e421c985b702ef47bfcb8478dabc"><rect fill="#F1F1F1" height="39.2969" rx="2.5" ry="2.5" style="stroke:#181818;stroke-width:0.5;" width="56" x="32" y="73.94"/><polygon fill="#F1F1F1" points="71,78.94,71,92.94,83,92.94,83,84.94,77,78.94,71,78.94" style="stroke:#181818;stroke-width:0.5;"/><line style="stroke:#181818;stroke-width:0.5;" x1="77" x2="77" y1="78.94" y2="84.94"/><line style="stroke:#181818;stroke-width:0.5;" x1="83" x2="77" y1="84.94" y2="84.94"/><text fill="#000000" font-family="sans-serif" font-size="14" lengthAdjust="spacing" textLength="26" x="42" y="99.9351">text</text></g><!--entity 18eb8329fc6fdb6f429a02d04f286599--><g id="elem_18eb8329fc6fdb6f429a02d04f286599"><ellipse cx="382" cy="231.19" fill="#F1F1F1" rx="8" ry="8" style="stroke:#181818;stroke-width:0.5;"/><text fill="#000000" font-family="sans-serif" font-size="14" lengthAdjust="spacing" textLength="36" x="364" y="261.1851">8080</text></g><!--entity 90864b398c54ba1a31949f1dc8f522f9--><g id="elem_90864b398c54ba1a31949f1dc8f522f9"><rect fill="#F1F1F1" height="95.1875" rx="2.5" ry="2.5" style="stroke:#181818;stroke-width:0.5;" width="139" x="679.5" y="46"/><rect fill="#F1F1F1" height="10" style="stroke:#181818;stroke-width:0.5;" width="15" x="798.5" y="51"/><rect fill="#F1F1F1" height="2" style="stroke:#181818;stroke-width:0.5;" width="4" x="796.5" y="53"/><rect fill="#F1F1F1" height="2" style="stroke:#181818;stroke-width:0.5;" width="4" x="796.5" y="57"/><text fill="#000000" font-family="sans-serif" font-size="14" font-weight="bold" lengthAdjust="spacing" textLength="88" x="694.5" y="78.9951">django-app</text><text fill="#000000" font-family="sans-serif" font-size="14" lengthAdjust="spacing" textLength="4" x="694.5" y="95.292">&#160;</text><text fill="#000000" font-family="sans-serif" font-size="14" lengthAdjust="spacing" textLength="99" x="694.5" y="111.5889">restart: always</text><text fill="#000000" font-family="sans-serif" font-size="14" lengthAdjust="spacing" textLength="4" x="694.5" y="127.8857">&#160;</text></g><!--entity 48871f9ddd61de6056759e86342fe397--><g id="elem_48871f9ddd61de6056759e86342fe397"><rect fill="#F1F1F1" height="39.2969" rx="2.5" ry="2.5" style="stroke:#181818;stroke-width:0.5;" width="120" x="586" y="458.19"/><polygon fill="#F1F1F1" points="689,463.19,689,477.19,701,477.19,701,469.19,695,463.19,689,463.19" style="stroke:#181818;stroke-width:0.5;"/><line style="stroke:#181818;stroke-width:0.5;" x1="695" x2="695" y1="463.19" y2="469.19"/><line style="stroke:#181818;stroke-width:0.5;" x1="701" x2="695" y1="469.19" y2="469.19"/><text fill="#000000" font-family="sans-serif" font-size="14" lengthAdjust="spacing" textLength="90" x="596" y="484.1851">/infra_crawler</text></g><!--entity 5e07b5c6520b9f500d4b371c306e53c8--><g id="elem_5e07b5c6520b9f500d4b371c306e53c8"><rect fill="#F1F1F1" height="39.2969" rx="2.5" ry="2.5" style="stroke:#181818;stroke-width:0.5;" width="220" x="741" y="458.19"/><polygon fill="#F1F1F1" points="944,463.19,944,477.19,956,477.19,956,469.19,950,463.19,944,463.19" style="stroke:#181818;stroke-width:0.5;"/><line style="stroke:#181818;stroke-width:0.5;" x1="950" x2="950" y1="463.19" y2="469.19"/><line style="stroke:#181818;stroke-width:0.5;" x1="956" x2="950" y1="469.19" y2="469.19"/><text fill="#000000" font-family="sans-serif" font-size="14" lengthAdjust="spacing" textLength="190" x="751" y="484.1851">/infra_crawler/app/staticfiles</text></g><!--entity 600c44c1349e9154dce569ba37e2d70b--><g id="elem_600c44c1349e9154dce569ba37e2d70b"><ellipse cx="382" cy="368.19" fill="#F1F1F1" rx="8" ry="8" style="stroke:#181818;stroke-width:0.5;"/><text fill="#000000" font-family="sans-serif" font-size="14" lengthAdjust="spacing" textLength="36" x="364" y="398.1851">8080</text></g><!--entity 73d99f61cf21f8768f6271f1b1e3cb79--><g id="elem_73d99f61cf21f8768f6271f1b1e3cb79"><rect fill="#F1F1F1" height="39.2969" rx="2.5" ry="2.5" style="stroke:#181818;stroke-width:0.5;" width="124" x="584" y="576.48"/><polygon fill="#F1F1F1" points="691,581.48,691,595.48,703,595.48,703,587.48,697,581.48,691,581.48" style="stroke:#181818;stroke-width:0.5;"/><line style="stroke:#181818;stroke-width:0.5;" x1="697" x2="697" y1="581.48" y2="587.48"/><line style="stroke:#181818;stroke-width:0.5;" x1="703" x2="697" y1="587.48" y2="587.48"/><text fill="#000000" font-family="sans-serif" font-size="14" lengthAdjust="spacing" textLength="94" x="594" y="602.4751">./infra_crawler</text></g><!--entity 02333efa2bf4b0344924cb9dbec6e9b2--><g id="elem_02333efa2bf4b0344924cb9dbec6e9b2"><rect fill="#F1F1F1" height="39.2969" rx="2.5" ry="2.5" style="stroke:#181818;stroke-width:0.5;" width="124" x="789" y="576.48"/><polygon fill="#F1F1F1" points="896,581.48,896,595.48,908,595.48,908,587.48,902,581.48,896,581.48" style="stroke:#181818;stroke-width:0.5;"/><line style="stroke:#181818;stroke-width:0.5;" x1="902" x2="902" y1="581.48" y2="587.48"/><line style="stroke:#181818;stroke-width:0.5;" x1="908" x2="902" y1="587.48" y2="587.48"/><text fill="#000000" font-family="sans-serif" font-size="14" lengthAdjust="spacing" textLength="94" x="799" y="602.4751">static_volume</text></g><!--link 6cec62b19a20c63d1b6535f2688de974 to 18eb8329fc6fdb6f429a02d04f286599--><g id="link_6cec62b19a20c63d1b6535f2688de974_18eb8329fc6fdb6f429a02d04f286599"><path codeLine="30" d="M382,141.64 C382,171.31 382,206.86 382,222.34 " fill="none" id="6cec62b19a20c63d1b6535f2688de974-18eb8329fc6fdb6f429a02d04f286599" style="stroke:#181818;stroke-width:1.0;"/></g><!--link 18eb8329fc6fdb6f429a02d04f286599 to 600c44c1349e9154dce569ba37e2d70b--><g id="link_18eb8329fc6fdb6f429a02d04f286599_600c44c1349e9154dce569ba37e2d70b"><path codeLine="31" d="M382,239.83 C382,263.48 382,335.3 382,359.29 " fill="none" id="18eb8329fc6fdb6f429a02d04f286599-600c44c1349e9154dce569ba37e2d70b" style="stroke:#181818;stroke-width:1.0;"/></g><!--link 48871f9ddd61de6056759e86342fe397 to 73d99f61cf21f8768f6271f1b1e3cb79--><g id="link_48871f9ddd61de6056759e86342fe397_73d99f61cf21f8768f6271f1b1e3cb79"><path codeLine="32" d="M646,497.78 C646,519.4 646,554.57 646,576.2 " fill="none" id="48871f9ddd61de6056759e86342fe397-73d99f61cf21f8768f6271f1b1e3cb79" style="stroke:#181818;stroke-width:1.0;"/><text fill="#000000" font-family="sans-serif" font-size="13" lengthAdjust="spacing" textLength="14" x="647" y="542.5469">rw</text></g><!--link 90864b398c54ba1a31949f1dc8f522f9 to 48871f9ddd61de6056759e86342fe397--><g id="link_90864b398c54ba1a31949f1dc8f522f9_48871f9ddd61de6056759e86342fe397"><path codeLine="33" d="M736.37,141.46 C713.59,225.99 668.1316,394.7168 652.6316,452.2168 " fill="none" id="90864b398c54ba1a31949f1dc8f522f9-to-48871f9ddd61de6056759e86342fe397" style="stroke:#181818;stroke-width:1.0;stroke-dasharray:7.0,7.0;"/><polygon fill="#181818" points="651.07,458.01,657.2746,450.3613,652.3714,453.1823,649.5503,448.2791,651.07,458.01" style="stroke:#181818;stroke-width:1.0;"/><text fill="#000000" font-family="sans-serif" font-size="13" lengthAdjust="spacing" textLength="23" x="696" y="305.2569">use</text></g><!--link 5e07b5c6520b9f500d4b371c306e53c8 to 02333efa2bf4b0344924cb9dbec6e9b2--><g id="link_5e07b5c6520b9f500d4b371c306e53c8_02333efa2bf4b0344924cb9dbec6e9b2"><path codeLine="34" d="M851,497.78 C851,519.4 851,554.57 851,576.2 " fill="none" id="5e07b5c6520b9f500d4b371c306e53c8-02333efa2bf4b0344924cb9dbec6e9b2" style="stroke:#181818;stroke-width:1.0;"/><text fill="#000000" font-family="sans-serif" font-size="13" lengthAdjust="spacing" textLength="14" x="852" y="542.5469">rw</text></g><!--link 90864b398c54ba1a31949f1dc8f522f9 to 5e07b5c6520b9f500d4b371c306e53c8--><g id="link_90864b398c54ba1a31949f1dc8f522f9_5e07b5c6520b9f500d4b371c306e53c8"><path codeLine="35" d="M761.51,141.46 C784.06,225.99 829.0825,394.713 844.4325,452.213 " fill="none" id="90864b398c54ba1a31949f1dc8f522f9-to-5e07b5c6520b9f500d4b371c306e53c8" style="stroke:#181818;stroke-width:1.0;stroke-dasharray:7.0,7.0;"/><polygon fill="#181818" points="845.98,458.01,847.5233,448.2828,844.6904,453.1792,839.794,450.3462,845.98,458.01" style="stroke:#181818;stroke-width:1.0;"/><text fill="#000000" font-family="sans-serif" font-size="13" lengthAdjust="spacing" textLength="23" x="807" y="305.2569">use</text></g><!--SRC=[bLBDRXCn4BxxAQmzGQGa_hSd1oJUW0CtX2hFU5njjTb4cstJ2l7kkDiYA0AjkDeptzzyUHXErsF_s8-tOZmLbjsd8O_p_N7ePBx8P1mPhu9d8gLGEQhE1zI9TJI8MNuJaax7ysdaSPQ1c8913Tae2hPe3DxwQa9AXI4w-KLiDkTN_Es5fmUUDXiX-cE-vOFy-RF_O-Hmn_Fy9CHNyOiAOiXMsuZUWKUCHeDElbHK4L9oj51zviVv6RzjvcdkQwPPTdDxNBmrIPgTqGJ9OrI6gujO2PEBgMGayUwzx99AQfbkbZ5P0vL2BHYgCv2LASfLau874DzVy_juFh_0c-nZ8LrIihKONH70wm1GQjH4yMrqe59mQ26HTvXrymOEgYwKgZUcmkAdtENnzhJDv_EpgualSxDra7cuvgVBMvVxVgnJlg4fNmUU5a4kfQWhb5A2BXoK3z43fs2TgMmX_dDxtmZtZMlkgVO3NnOqpwg5Jy4RXL2zKgN9RyQi2kmjfPR7c_o2KkGSQUkWvUvT8VO1CDl8faI5lx7l_Y8-sW9GWwRQaamnf1fCSwDHioMCyDlwYzARXzDmV-HbMHbhBTTii3fKrZbejKOesEhAW4Qi5dTRjkiDM1jOK5PpM3lJWh8MXpp8RhfsOhLMkrtPxJwiTkCPx_x2dLWx-w9kBU__LRTA-ghk1m00]--></g></svg>