<svg xmlns="http://www.w3.org/2000/svg" xmlns:xlink="http://www.w3.org/1999/xlink" contentStyleType="text/css" height="505px" preserveAspectRatio="none" style="width:440px;height:505px;background:#FFFFFF;" version="1.1" viewBox="0 0 440 505" width="440px" zoomAndPan="magnify"><defs/><g><!--cluster d2a57dc1d883fd21fb9951699df71cc7--><g id="cluster_d2a57dc1d883fd21fb9951699df71cc7"><polygon fill="none" points="16,16,26,6,423,6,423,387.48,413,397.48,16,397.48,16,16" style="stroke:#181818;stroke-width:1.0;"/><line style="stroke:#181818;stroke-width:1.0;" x1="413" x2="423" y1="16" y2="6"/><line style="stroke:#181818;stroke-width:1.0;" x1="16" x2="413" y1="16" y2="16"/><line style="stroke:#181818;stroke-width:1.0;" x1="413" x2="413" y1="16" y2="397.48"/><text fill="#000000" font-family="sans-serif" font-size="14" font-weight="bold" lengthAdjust="spacing" textLength="31" x="200" y="31.9951">App</text></g><!--entity 90864b398c54ba1a31949f1dc8f522f9--><g id="elem_90864b398c54ba1a31949f1dc8f522f9"><rect fill="#F1F1F1" height="95.1875" rx="2.5" ry="2.5" style="stroke:#181818;stroke-width:0.5;" width="139" x="130.5" y="46"/><rect fill="#F1F1F1" height="10" style="stroke:#181818;stroke-width:0.5;" width="15" x="249.5" y="51"/><rect fill="#F1F1F1" height="2" style="stroke:#181818;stroke-width:0.5;" width="4" x="247.5" y="53"/><rect fill="#F1F1F1" height="2" style="stroke:#181818;stroke-width:0.5;" width="4" x="247.5" y="57"/><text fill="#000000" font-family="sans-serif" font-size="14" font-weight="bold" lengthAdjust="spacing" textLength="88" x="145.5" y="78.9951">django-app</text><text fill="#000000" font-family="sans-serif" font-size="14" lengthAdjust="spacing" textLength="4" x="145.5" y="95.292">&#160;</text><text fill="#000000" font-family="sans-serif" font-size="14" lengthAdjust="spacing" textLength="99" x="145.5" y="111.5889">restart: always</text><text fill="#000000" font-family="sans-serif" font-size="14" lengthAdjust="spacing" textLength="4" x="145.5" y="127.8857">&#160;</text></g><!--entity 48871f9ddd61de6056759e86342fe397--><g id="elem_48871f9ddd61de6056759e86342fe397"><rect fill="#F1F1F1" height="39.2969" rx="2.5" ry="2.5" style="stroke:#181818;stroke-width:0.5;" width="120" x="32" y="342.19"/><polygon fill="#F1F1F1" points="135,347.19,135,361.19,147,361.19,147,353.19,141,347.19,135,347.19" style="stroke:#181818;stroke-width:0.5;"/><line style="stroke:#181818;stroke-width:0.5;" x1="141" x2="141" y1="347.19" y2="353.19"/><line style="stroke:#181818;stroke-width:0.5;" x1="147" x2="141" y1="353.19" y2="353.19"/><text fill="#000000" font-family="sans-serif" font-size="14" lengthAdjust="spacing" textLength="90" x="42" y="368.1851">/infra_crawler</text></g><!--entity 5e07b5c6520b9f500d4b371c306e53c8--><g id="elem_5e07b5c6520b9f500d4b371c306e53c8"><rect fill="#F1F1F1" height="39.2969" rx="2.5" ry="2.5" style="stroke:#181818;stroke-width:0.5;" width="220" x="187" y="342.19"/><polygon fill="#F1F1F1" points="390,347.19,390,361.19,402,361.19,402,353.19,396,347.19,390,347.19" style="stroke:#181818;stroke-width:0.5;"/><line style="stroke:#181818;stroke-width:0.5;" x1="396" x2="396" y1="347.19" y2="353.19"/><line style="stroke:#181818;stroke-width:0.5;" x1="402" x2="396" y1="353.19" y2="353.19"/><text fill="#000000" font-family="sans-serif" font-size="14" lengthAdjust="spacing" textLength="190" x="197" y="368.1851">/infra_crawler/app/staticfiles</text></g><!--entity 73d99f61cf21f8768f6271f1b1e3cb79--><g id="elem_73d99f61cf21f8768f6271f1b1e3cb79"><rect fill="#F1F1F1" height="39.2969" rx="2.5" ry="2.5" style="stroke:#181818;stroke-width:0.5;" width="124" x="30" y="460.48"/><polygon fill="#F1F1F1" points="137,465.48,137,479.48,149,479.48,149,471.48,143,465.48,137,465.48" style="stroke:#181818;stroke-width:0.5;"/><line style="stroke:#181818;stroke-width:0.5;" x1="143" x2="143" y1="465.48" y2="471.48"/><line style="stroke:#181818;stroke-width:0.5;" x1="149" x2="143" y1="471.48" y2="471.48"/><text fill="#000000" font-family="sans-serif" font-size="14" lengthAdjust="spacing" textLength="94" x="40" y="486.4751">./infra_crawler</text></g><!--entity 02333efa2bf4b0344924cb9dbec6e9b2--><g id="elem_02333efa2bf4b0344924cb9dbec6e9b2"><rect fill="#F1F1F1" height="39.2969" rx="2.5" ry="2.5" style="stroke:#181818;stroke-width:0.5;" width="124" x="235" y="460.48"/><polygon fill="#F1F1F1" points="342,465.48,342,479.48,354,479.48,354,471.48,348,465.48,342,465.48" style="stroke:#181818;stroke-width:0.5;"/><line style="stroke:#181818;stroke-width:0.5;" x1="348" x2="348" y1="465.48" y2="471.48"/><line style="stroke:#181818;stroke-width:0.5;" x1="354" x2="348" y1="471.48" y2="471.48"/><text fill="#000000" font-family="sans-serif" font-size="14" lengthAdjust="spacing" textLength="94" x="245" y="486.4751">static_volume</text></g><!--link 48871f9ddd61de6056759e86342fe397 to 73d99f61cf21f8768f6271f1b1e3cb79--><g id="link_48871f9ddd61de6056759e86342fe397_73d99f61cf21f8768f6271f1b1e3cb79"><path codeLine="14" d="M92,381.78 C92,403.4 92,438.57 92,460.2 " fill="none" id="48871f9ddd61de6056759e86342fe397-73d99f61cf21f8768f6271f1b1e3cb79" style="stroke:#181818;stroke-width:1.0;"/><text fill="#000000" font-family="sans-serif" font-size="13" lengthAdjust="spacing" textLength="14" x="93" y="426.5469">rw</text></g><!--link 90864b398c54ba1a31949f1dc8f522f9 to 48871f9ddd61de6056759e86342fe397--><g id="link_90864b398c54ba1a31949f1dc8f522f9_48871f9ddd61de6056759e86342fe397"><path codeLine="15" d="M180.94,141.58 C156.84,200.99 118.7147,294.9598 101.9347,336.3398 " fill="none" id="90864b398c54ba1a31949f1dc8f522f9-to-48871f9ddd61de6056759e86342fe397" style="stroke:#181818;stroke-width:1.0;stroke-dasharray:7.0,7.0;"/><polygon fill="#181818" points="99.68,341.9,106.7689,335.0628,101.5589,337.2665,99.3553,332.0565,99.68,341.9" style="stroke:#181818;stroke-width:1.0;"/><text fill="#000000" font-family="sans-serif" font-size="13" lengthAdjust="spacing" textLength="23" x="144" y="246.2569">use</text></g><!--link 5e07b5c6520b9f500d4b371c306e53c8 to 02333efa2bf4b0344924cb9dbec6e9b2--><g id="link_5e07b5c6520b9f500d4b371c306e53c8_02333efa2bf4b0344924cb9dbec6e9b2"><path codeLine="16" d="M297,381.78 C297,403.4 297,438.57 297,460.2 " fill="none" id="5e07b5c6520b9f500d4b371c306e53c8-02333efa2bf4b0344924cb9dbec6e9b2" style="stroke:#181818;stroke-width:1.0;"/><text fill="#000000" font-family="sans-serif" font-size="13" lengthAdjust="spacing" textLength="14" x="298" y="426.5469">rw</text></g><!--link 90864b398c54ba1a31949f1dc8f522f9 to 5e07b5c6520b9f500d4b371c306e53c8--><g id="link_90864b398c54ba1a31949f1dc8f522f9_5e07b5c6520b9f500d4b371c306e53c8"><path codeLine="17" d="M217.12,141.58 C238.76,200.99 272.9768,294.8822 288.0468,336.2622 " fill="none" id="90864b398c54ba1a31949f1dc8f522f9-to-5e07b5c6520b9f500d4b371c306e53c8" style="stroke:#181818;stroke-width:1.0;stroke-dasharray:7.0,7.0;"/><polygon fill="#181818" points="290.1,341.9,290.7787,332.0746,288.389,337.2019,283.2617,334.8121,290.1,341.9" style="stroke:#181818;stroke-width:1.0;"/><text fill="#000000" font-family="sans-serif" font-size="13" lengthAdjust="spacing" textLength="23" x="257" y="246.2569">use</text></g><!--SRC=[bP7DJiCm48JlVWehnqXD_Mzl3qWy1qALxVMYe3I9afI24EzEA1nw04KSzp0ptyp6hXikf_QrxPzOFs3XrVquLZpE75Mq7hF443IXafG0h7G0I5xcxFaxutauZKDV-eM32Cua3I5RawACMe81afW3MQK8-0EhQtoE_TEmY-DOrunDPLxYj1nux2xnRMRiaQrdIp4llDgtFKtncATuwSfq1J8XU4c0Y4vYSS8wRw44fusYei7_gTwlWVirQsapjLsPhsws29ziTbQ916I5m1L_BQQ5ArRdm3vk_9fVSBn6078oqxfDy2wGKokVJBBed3pSoB-pZoz3TpwLgrWehNMXg1AP9BGne4nEWAbaLo0fjbMMxt2tYS0Fl9ek5TjyJjDWqznjBlpbTvvBnRR6kz9jTVmltMRe3zqd]--></g></svg>