<svg xmlns="http://www.w3.org/2000/svg" xmlns:xlink="http://www.w3.org/1999/xlink" contentStyleType="text/css" height="654px" preserveAspectRatio="none" style="width:3276px;height:654px;background:#FFFFFF;" version="1.1" viewBox="0 0 3276 654" width="3276px" zoomAndPan="magnify"><defs/><g><!--cluster 824c25065ecc00b04cf456b18e172bba--><g id="cluster_824c25065ecc00b04cf456b18e172bba"><polygon fill="none" points="16,16,26,6,344,6,344,298.79,334,308.79,16,308.79,16,16" style="stroke:#181818;stroke-width:1.0;"/><line style="stroke:#181818;stroke-width:1.0;" x1="334" x2="344" y1="16" y2="6"/><line style="stroke:#181818;stroke-width:1.0;" x1="16" x2="334" y1="16" y2="16"/><line style="stroke:#181818;stroke-width:1.0;" x1="334" x2="334" y1="16" y2="308.79"/><text fill="#000000" font-family="sans-serif" font-size="14" font-weight="bold" lengthAdjust="spacing" textLength="67" x="142.5" y="31.9951">Plantuml</text></g><!--cluster 2199ace55d43ccccac9c1d7a9f4a5b7b--><g id="cluster_2199ace55d43ccccac9c1d7a9f4a5b7b"><polygon fill="none" points="368,32.3,378,22.3,720,22.3,720,298.79,710,308.79,368,308.79,368,32.3" style="stroke:#181818;stroke-width:1.0;"/><line style="stroke:#181818;stroke-width:1.0;" x1="710" x2="720" y1="32.3" y2="22.3"/><line style="stroke:#181818;stroke-width:1.0;" x1="368" x2="710" y1="32.3" y2="32.3"/><line style="stroke:#181818;stroke-width:1.0;" x1="710" x2="710" y1="32.3" y2="308.79"/><text fill="#000000" font-family="sans-serif" font-size="14" font-weight="bold" lengthAdjust="spacing" textLength="87" x="496.5" y="48.2951">Zookeeper</text></g><!--cluster 541661622185851c248b41bf0cea7ad0--><g id="cluster_541661622185851c248b41bf0cea7ad0"><polygon fill="none" points="744,32.3,754,22.3,1058,22.3,1058,298.79,1048,308.79,744,308.79,744,32.3" style="stroke:#181818;stroke-width:1.0;"/><line style="stroke:#181818;stroke-width:1.0;" x1="1048" x2="1058" y1="32.3" y2="22.3"/><line style="stroke:#181818;stroke-width:1.0;" x1="744" x2="1048" y1="32.3" y2="32.3"/><line style="stroke:#181818;stroke-width:1.0;" x1="1048" x2="1048" y1="32.3" y2="308.79"/><text fill="#000000" font-family="sans-serif" font-size="14" font-weight="bold" lengthAdjust="spacing" textLength="44" x="875" y="48.2951">Kafka</text></g><!--cluster d2a57dc1d883fd21fb9951699df71cc7--><g id="cluster_d2a57dc1d883fd21fb9951699df71cc7"><polygon fill="none" points="1082,32.3,1092,22.3,1489,22.3,1489,536.08,1479,546.08,1082,546.08,1082,32.3" style="stroke:#181818;stroke-width:1.0;"/><line style="stroke:#181818;stroke-width:1.0;" x1="1479" x2="1489" y1="32.3" y2="22.3"/><line style="stroke:#181818;stroke-width:1.0;" x1="1082" x2="1479" y1="32.3" y2="32.3"/><line style="stroke:#181818;stroke-width:1.0;" x1="1479" x2="1479" y1="32.3" y2="546.08"/><text fill="#000000" font-family="sans-serif" font-size="14" font-weight="bold" lengthAdjust="spacing" textLength="31" x="1266" y="48.2951">App</text></g><!--cluster ee434023cf89d7dfb21f63d64f0f9d74--><g id="cluster_ee434023cf89d7dfb21f63d64f0f9d74"><polygon fill="none" points="1668,32.3,1678,22.3,2463,22.3,2463,536.08,2453,546.08,1668,546.08,1668,32.3" style="stroke:#181818;stroke-width:1.0;"/><line style="stroke:#181818;stroke-width:1.0;" x1="2453" x2="2463" y1="32.3" y2="22.3"/><line style="stroke:#181818;stroke-width:1.0;" x1="1668" x2="2453" y1="32.3" y2="32.3"/><line style="stroke:#181818;stroke-width:1.0;" x1="2453" x2="2453" y1="32.3" y2="546.08"/><text fill="#000000" font-family="sans-serif" font-size="14" font-weight="bold" lengthAdjust="spacing" textLength="44" x="2039.5" y="48.2951">Nginx</text></g><!--cluster c90005181a2b6cbfffcbb134179c59b8--><g id="cluster_c90005181a2b6cbfffcbb134179c59b8"><polygon fill="none" points="2487,40.45,2497,30.45,2842,30.45,2842,536.08,2832,546.08,2487,546.08,2487,40.45" style="stroke:#181818;stroke-width:1.0;"/><line style="stroke:#181818;stroke-width:1.0;" x1="2832" x2="2842" y1="40.45" y2="30.45"/><line style="stroke:#181818;stroke-width:1.0;" x1="2487" x2="2832" y1="40.45" y2="40.45"/><line style="stroke:#181818;stroke-width:1.0;" x1="2832" x2="2832" y1="40.45" y2="546.08"/><text fill="#000000" font-family="sans-serif" font-size="14" font-weight="bold" lengthAdjust="spacing" textLength="60" x="2630.5" y="56.4451">Certbot</text></g><!--cluster 9d3bb895f22bf0afa958d68c2a58ded7--><g id="cluster_9d3bb895f22bf0afa958d68c2a58ded7"><polygon fill="none" points="2866,32.3,2876,22.3,3192,22.3,3192,536.08,3182,546.08,2866,546.08,2866,32.3" style="stroke:#181818;stroke-width:1.0;"/><line style="stroke:#181818;stroke-width:1.0;" x1="3182" x2="3192" y1="32.3" y2="22.3"/><line style="stroke:#181818;stroke-width:1.0;" x1="2866" x2="3182" y1="32.3" y2="32.3"/><line style="stroke:#181818;stroke-width:1.0;" x1="3182" x2="3182" y1="32.3" y2="546.08"/><text fill="#000000" font-family="sans-serif" font-size="14" font-weight="bold" lengthAdjust="spacing" textLength="38" x="3006" y="48.2951">Cron</text></g><!--entity 6cec62b19a20c63d1b6535f2688de974--><g id="elem_6cec62b19a20c63d1b6535f2688de974"><rect fill="#F1F1F1" height="127.7813" rx="2.5" ry="2.5" style="stroke:#181818;stroke-width:0.5;" width="296" x="32" y="46"/><rect fill="#F1F1F1" height="10" style="stroke:#181818;stroke-width:0.5;" width="15" x="308" y="51"/><rect fill="#F1F1F1" height="2" style="stroke:#181818;stroke-width:0.5;" width="4" x="306" y="53"/><rect fill="#F1F1F1" height="2" style="stroke:#181818;stroke-width:0.5;" width="4" x="306" y="57"/><text fill="#000000" font-family="sans-serif" font-size="14" font-weight="bold" lengthAdjust="spacing" textLength="125" x="47" y="78.9951">plantuml-server</text><text fill="#000000" font-family="sans-serif" font-size="14" lengthAdjust="spacing" textLength="4" x="47" y="95.292">&#160;</text><text fill="#000000" font-family="sans-serif" font-size="14" lengthAdjust="spacing" textLength="256" x="47" y="111.5889">image: plantuml/plantuml-server:jetty</text><text fill="#000000" font-family="sans-serif" font-size="14" lengthAdjust="spacing" textLength="238" x="47" y="127.8857">environment: BASE_URL=plantuml</text><text fill="#000000" font-family="sans-serif" font-size="14" lengthAdjust="spacing" textLength="61" x="47" y="144.1826">text: text</text><text fill="#000000" font-family="sans-serif" font-size="14" lengthAdjust="spacing" textLength="4" x="47" y="160.4795">&#160;</text></g><!--entity 18eb8329fc6fdb6f429a02d04f286599--><g id="elem_18eb8329fc6fdb6f429a02d04f286599"><ellipse cx="180" cy="263.79" fill="#F1F1F1" rx="8" ry="8" style="stroke:#181818;stroke-width:0.5;"/><text fill="#000000" font-family="sans-serif" font-size="14" lengthAdjust="spacing" textLength="36" x="162" y="293.7851">8080</text></g><!--entity e08de8ee1b7bd0e45201edaf78ba4697--><g id="elem_e08de8ee1b7bd0e45201edaf78ba4697"><rect fill="#F1F1F1" height="95.1875" rx="2.5" ry="2.5" style="stroke:#181818;stroke-width:0.5;" width="321" x="383.5" y="62.3"/><rect fill="#F1F1F1" height="10" style="stroke:#181818;stroke-width:0.5;" width="15" x="684.5" y="67.3"/><rect fill="#F1F1F1" height="2" style="stroke:#181818;stroke-width:0.5;" width="4" x="682.5" y="69.3"/><rect fill="#F1F1F1" height="2" style="stroke:#181818;stroke-width:0.5;" width="4" x="682.5" y="73.3"/><text fill="#000000" font-family="sans-serif" font-size="14" font-weight="bold" lengthAdjust="spacing" textLength="85" x="398.5" y="95.2951">zookeeper</text><text fill="#000000" font-family="sans-serif" font-size="14" lengthAdjust="spacing" textLength="4" x="398.5" y="111.592">&#160;</text><text fill="#000000" font-family="sans-serif" font-size="14" lengthAdjust="spacing" textLength="281" x="398.5" y="127.8889">image: confluentinc/cp-zookeeper:latest</text><text fill="#000000" font-family="sans-serif" font-size="14" lengthAdjust="spacing" textLength="4" x="398.5" y="144.1857">&#160;</text></g><!--entity ece32d11de04ea9b6e1403bb711bc958--><g id="elem_ece32d11de04ea9b6e1403bb711bc958"><ellipse cx="544" cy="263.79" fill="#F1F1F1" rx="8" ry="8" style="stroke:#181818;stroke-width:0.5;"/><text fill="#000000" font-family="sans-serif" font-size="14" lengthAdjust="spacing" textLength="36" x="526" y="293.7851">2181</text></g><!--entity 349a83bb472f89aafc32c286b36aadbc--><g id="elem_349a83bb472f89aafc32c286b36aadbc"><rect fill="#F1F1F1" height="95.1875" rx="2.5" ry="2.5" style="stroke:#181818;stroke-width:0.5;" width="282" x="760" y="62.3"/><rect fill="#F1F1F1" height="10" style="stroke:#181818;stroke-width:0.5;" width="15" x="1022" y="67.3"/><rect fill="#F1F1F1" height="2" style="stroke:#181818;stroke-width:0.5;" width="4" x="1020" y="69.3"/><rect fill="#F1F1F1" height="2" style="stroke:#181818;stroke-width:0.5;" width="4" x="1020" y="73.3"/><text fill="#000000" font-family="sans-serif" font-size="14" font-weight="bold" lengthAdjust="spacing" textLength="42" x="775" y="95.2951">kafka</text><text fill="#000000" font-family="sans-serif" font-size="14" lengthAdjust="spacing" textLength="4" x="775" y="111.592">&#160;</text><text fill="#000000" font-family="sans-serif" font-size="14" lengthAdjust="spacing" textLength="242" x="775" y="127.8889">image: confluentinc/cp-kafka:latest</text><text fill="#000000" font-family="sans-serif" font-size="14" lengthAdjust="spacing" textLength="4" x="775" y="144.1857">&#160;</text></g><!--entity 6adbba7d1bab26e0203b790ae0adb380--><g id="elem_6adbba7d1bab26e0203b790ae0adb380"><ellipse cx="901" cy="263.79" fill="#F1F1F1" rx="8" ry="8" style="stroke:#181818;stroke-width:0.5;"/><text fill="#000000" font-family="sans-serif" font-size="14" lengthAdjust="spacing" textLength="45" x="878.5" y="293.7851">29092</text></g><!--entity 90864b398c54ba1a31949f1dc8f522f9--><g id="elem_90864b398c54ba1a31949f1dc8f522f9"><rect fill="#F1F1F1" height="95.1875" rx="2.5" ry="2.5" style="stroke:#181818;stroke-width:0.5;" width="139" x="1191.5" y="62.3"/><rect fill="#F1F1F1" height="10" style="stroke:#181818;stroke-width:0.5;" width="15" x="1310.5" y="67.3"/><rect fill="#F1F1F1" height="2" style="stroke:#181818;stroke-width:0.5;" width="4" x="1308.5" y="69.3"/><rect fill="#F1F1F1" height="2" style="stroke:#181818;stroke-width:0.5;" width="4" x="1308.5" y="73.3"/><text fill="#000000" font-family="sans-serif" font-size="14" font-weight="bold" lengthAdjust="spacing" textLength="88" x="1206.5" y="95.2951">django-app</text><text fill="#000000" font-family="sans-serif" font-size="14" lengthAdjust="spacing" textLength="4" x="1206.5" y="111.592">&#160;</text><text fill="#000000" font-family="sans-serif" font-size="14" lengthAdjust="spacing" textLength="99" x="1206.5" y="127.8889">restart: always</text><text fill="#000000" font-family="sans-serif" font-size="14" lengthAdjust="spacing" textLength="4" x="1206.5" y="144.1857">&#160;</text></g><!--entity 48871f9ddd61de6056759e86342fe397--><g id="elem_48871f9ddd61de6056759e86342fe397"><rect fill="#F1F1F1" height="39.2969" rx="2.5" ry="2.5" style="stroke:#181818;stroke-width:0.5;" width="120" x="1098" y="490.79"/><polygon fill="#F1F1F1" points="1201,495.79,1201,509.79,1213,509.79,1213,501.79,1207,495.79,1201,495.79" style="stroke:#181818;stroke-width:0.5;"/><line style="stroke:#181818;stroke-width:0.5;" x1="1207" x2="1207" y1="495.79" y2="501.79"/><line style="stroke:#181818;stroke-width:0.5;" x1="1213" x2="1207" y1="501.79" y2="501.79"/><text fill="#000000" font-family="sans-serif" font-size="14" lengthAdjust="spacing" textLength="90" x="1108" y="516.7851">/infra_crawler</text></g><!--entity 5e07b5c6520b9f500d4b371c306e53c8--><g id="elem_5e07b5c6520b9f500d4b371c306e53c8"><rect fill="#F1F1F1" height="39.2969" rx="2.5" ry="2.5" style="stroke:#181818;stroke-width:0.5;" width="220" x="1253" y="490.79"/><polygon fill="#F1F1F1" points="1456,495.79,1456,509.79,1468,509.79,1468,501.79,1462,495.79,1456,495.79" style="stroke:#181818;stroke-width:0.5;"/><line style="stroke:#181818;stroke-width:0.5;" x1="1462" x2="1462" y1="495.79" y2="501.79"/><line style="stroke:#181818;stroke-width:0.5;" x1="1468" x2="1462" y1="501.79" y2="501.79"/><text fill="#000000" font-family="sans-serif" font-size="14" lengthAdjust="spacing" textLength="190" x="1263" y="516.7851">/infra_crawler/app/staticfiles</text></g><!--entity 02afd862d04e83ed8e2004eacc5b6db9--><g id="elem_02afd862d04e83ed8e2004eacc5b6db9"><rect fill="#F1F1F1" height="95.1875" rx="2.5" ry="2.5" style="stroke:#181818;stroke-width:0.5;" width="203" x="1871.5" y="62.3"/><rect fill="#F1F1F1" height="10" style="stroke:#181818;stroke-width:0.5;" width="15" x="2054.5" y="67.3"/><rect fill="#F1F1F1" height="2" style="stroke:#181818;stroke-width:0.5;" width="4" x="2052.5" y="69.3"/><rect fill="#F1F1F1" height="2" style="stroke:#181818;stroke-width:0.5;" width="4" x="2052.5" y="73.3"/><text fill="#000000" font-family="sans-serif" font-size="14" font-weight="bold" lengthAdjust="spacing" textLength="101" x="1886.5" y="95.2951">nginx-server</text><text fill="#000000" font-family="sans-serif" font-size="14" lengthAdjust="spacing" textLength="4" x="1886.5" y="111.592">&#160;</text><text fill="#000000" font-family="sans-serif" font-size="14" lengthAdjust="spacing" textLength="163" x="1886.5" y="127.8889">restart: unless-stopped</text><text fill="#000000" font-family="sans-serif" font-size="14" lengthAdjust="spacing" textLength="4" x="1886.5" y="144.1857">&#160;</text></g><!--entity 3a61031652ff80665f419f821c1ac407--><g id="elem_3a61031652ff80665f419f821c1ac407"><ellipse cx="1864" cy="263.79" fill="#F1F1F1" rx="8" ry="8" style="stroke:#181818;stroke-width:0.5;"/><text fill="#000000" font-family="sans-serif" font-size="14" lengthAdjust="spacing" textLength="27" x="1850.5" y="293.7851">443</text></g><!--entity 97b04832e42a04c7beb04c21e560b3fb--><g id="elem_97b04832e42a04c7beb04c21e560b3fb"><ellipse cx="1754" cy="263.79" fill="#F1F1F1" rx="8" ry="8" style="stroke:#181818;stroke-width:0.5;"/><text fill="#000000" font-family="sans-serif" font-size="14" lengthAdjust="spacing" textLength="18" x="1745" y="293.7851">80</text></g><!--entity feb445bcd0c040198341918ff2d4fe78--><g id="elem_feb445bcd0c040198341918ff2d4fe78"><rect fill="#F1F1F1" height="39.2969" rx="2.5" ry="2.5" style="stroke:#181818;stroke-width:0.5;" width="220" x="1684" y="490.79"/><polygon fill="#F1F1F1" points="1887,495.79,1887,509.79,1899,509.79,1899,501.79,1893,495.79,1887,495.79" style="stroke:#181818;stroke-width:0.5;"/><line style="stroke:#181818;stroke-width:0.5;" x1="1893" x2="1893" y1="495.79" y2="501.79"/><line style="stroke:#181818;stroke-width:0.5;" x1="1899" x2="1893" y1="501.79" y2="501.79"/><text fill="#000000" font-family="sans-serif" font-size="14" lengthAdjust="spacing" textLength="190" x="1694" y="516.7851">/infra_crawler/app/staticfiles</text></g><!--entity 2fa7031e2dc022b03ff52ea31d0b38a8--><g id="elem_2fa7031e2dc022b03ff52ea31d0b38a8"><rect fill="#F1F1F1" height="39.2969" rx="2.5" ry="2.5" style="stroke:#181818;stroke-width:0.5;" width="139" x="2124.5" y="490.79"/><polygon fill="#F1F1F1" points="2246.5,495.79,2246.5,509.79,2258.5,509.79,2258.5,501.79,2252.5,495.79,2246.5,495.79" style="stroke:#181818;stroke-width:0.5;"/><line style="stroke:#181818;stroke-width:0.5;" x1="2252.5" x2="2252.5" y1="495.79" y2="501.79"/><line style="stroke:#181818;stroke-width:0.5;" x1="2258.5" x2="2252.5" y1="501.79" y2="501.79"/><text fill="#000000" font-family="sans-serif" font-size="14" lengthAdjust="spacing" textLength="109" x="2134.5" y="516.7851">/etc/letsencrypt</text></g><!--entity d8a3f0fbb8decd75a2abaa2cf0995f5e--><g id="elem_d8a3f0fbb8decd75a2abaa2cf0995f5e"><rect fill="#F1F1F1" height="39.2969" rx="2.5" ry="2.5" style="stroke:#181818;stroke-width:0.5;" width="148" x="2299" y="490.79"/><polygon fill="#F1F1F1" points="2430,495.79,2430,509.79,2442,509.79,2442,501.79,2436,495.79,2430,495.79" style="stroke:#181818;stroke-width:0.5;"/><line style="stroke:#181818;stroke-width:0.5;" x1="2436" x2="2436" y1="495.79" y2="501.79"/><line style="stroke:#181818;stroke-width:0.5;" x1="2442" x2="2436" y1="501.79" y2="501.79"/><text fill="#000000" font-family="sans-serif" font-size="14" lengthAdjust="spacing" textLength="118" x="2309" y="516.7851">/var/www/certbot</text></g><!--entity 23b1b729f9899522b85a42067de034a3--><g id="elem_23b1b729f9899522b85a42067de034a3"><rect fill="#F1F1F1" height="39.2969" rx="2.5" ry="2.5" style="stroke:#181818;stroke-width:0.5;" width="150" x="1939" y="490.79"/><polygon fill="#F1F1F1" points="2072,495.79,2072,509.79,2084,509.79,2084,501.79,2078,495.79,2072,495.79" style="stroke:#181818;stroke-width:0.5;"/><line style="stroke:#181818;stroke-width:0.5;" x1="2078" x2="2078" y1="495.79" y2="501.79"/><line style="stroke:#181818;stroke-width:0.5;" x1="2084" x2="2078" y1="501.79" y2="501.79"/><text fill="#000000" font-family="sans-serif" font-size="14" lengthAdjust="spacing" textLength="120" x="1949" y="516.7851">/etc/nginx/vhosts</text></g><!--entity b2e5a6b1daa1b905edcf88ba35110a2c--><g id="elem_b2e5a6b1daa1b905edcf88ba35110a2c"><rect fill="#F1F1F1" height="78.8906" rx="2.5" ry="2.5" style="stroke:#181818;stroke-width:0.5;" width="81" x="2621.5" y="70.45"/><rect fill="#F1F1F1" height="10" style="stroke:#181818;stroke-width:0.5;" width="15" x="2682.5" y="75.45"/><rect fill="#F1F1F1" height="2" style="stroke:#181818;stroke-width:0.5;" width="4" x="2680.5" y="77.45"/><rect fill="#F1F1F1" height="2" style="stroke:#181818;stroke-width:0.5;" width="4" x="2680.5" y="81.45"/><text fill="#000000" font-family="sans-serif" font-size="14" font-weight="bold" lengthAdjust="spacing" textLength="41" x="2636.5" y="103.4451">certs</text><text fill="#000000" font-family="sans-serif" font-size="14" lengthAdjust="spacing" textLength="4" x="2636.5" y="119.742">&#160;</text><text fill="#000000" font-family="sans-serif" font-size="14" lengthAdjust="spacing" textLength="4" x="2636.5" y="136.0389">&#160;</text></g><!--entity 4f5bbfba023abcad1d457e30dd56ffa2--><g id="elem_4f5bbfba023abcad1d457e30dd56ffa2"><rect fill="#F1F1F1" height="39.2969" rx="2.5" ry="2.5" style="stroke:#181818;stroke-width:0.5;" width="139" x="2503.5" y="490.79"/><polygon fill="#F1F1F1" points="2625.5,495.79,2625.5,509.79,2637.5,509.79,2637.5,501.79,2631.5,495.79,2625.5,495.79" style="stroke:#181818;stroke-width:0.5;"/><line style="stroke:#181818;stroke-width:0.5;" x1="2631.5" x2="2631.5" y1="495.79" y2="501.79"/><line style="stroke:#181818;stroke-width:0.5;" x1="2637.5" x2="2631.5" y1="501.79" y2="501.79"/><text fill="#000000" font-family="sans-serif" font-size="14" lengthAdjust="spacing" textLength="109" x="2513.5" y="516.7851">/etc/letsencrypt</text></g><!--entity adb224ccfeb4c419f45fa9b10375c326--><g id="elem_adb224ccfeb4c419f45fa9b10375c326"><rect fill="#F1F1F1" height="39.2969" rx="2.5" ry="2.5" style="stroke:#181818;stroke-width:0.5;" width="148" x="2678" y="490.79"/><polygon fill="#F1F1F1" points="2809,495.79,2809,509.79,2821,509.79,2821,501.79,2815,495.79,2809,495.79" style="stroke:#181818;stroke-width:0.5;"/><line style="stroke:#181818;stroke-width:0.5;" x1="2815" x2="2815" y1="495.79" y2="501.79"/><line style="stroke:#181818;stroke-width:0.5;" x1="2821" x2="2815" y1="501.79" y2="501.79"/><text fill="#000000" font-family="sans-serif" font-size="14" lengthAdjust="spacing" textLength="118" x="2688" y="516.7851">/var/www/certbot</text></g><!--entity ede0da965a02d6ed8de7d7a0ab067969--><g id="elem_ede0da965a02d6ed8de7d7a0ab067969"><rect fill="#F1F1F1" height="95.1875" rx="2.5" ry="2.5" style="stroke:#181818;stroke-width:0.5;" width="203" x="2921.5" y="62.3"/><rect fill="#F1F1F1" height="10" style="stroke:#181818;stroke-width:0.5;" width="15" x="3104.5" y="67.3"/><rect fill="#F1F1F1" height="2" style="stroke:#181818;stroke-width:0.5;" width="4" x="3102.5" y="69.3"/><rect fill="#F1F1F1" height="2" style="stroke:#181818;stroke-width:0.5;" width="4" x="3102.5" y="73.3"/><text fill="#000000" font-family="sans-serif" font-size="14" font-weight="bold" lengthAdjust="spacing" textLength="36" x="2936.5" y="95.2951">cron</text><text fill="#000000" font-family="sans-serif" font-size="14" lengthAdjust="spacing" textLength="4" x="2936.5" y="111.592">&#160;</text><text fill="#000000" font-family="sans-serif" font-size="14" lengthAdjust="spacing" textLength="163" x="2936.5" y="127.8889">restart: unless-stopped</text><text fill="#000000" font-family="sans-serif" font-size="14" lengthAdjust="spacing" textLength="4" x="2936.5" y="144.1857">&#160;</text></g><!--entity 107ea90b85e17faf4f7afc86017a48ab--><g id="elem_107ea90b85e17faf4f7afc86017a48ab"><rect fill="#F1F1F1" height="39.2969" rx="2.5" ry="2.5" style="stroke:#181818;stroke-width:0.5;" width="173" x="2882.5" y="490.79"/><polygon fill="#F1F1F1" points="3038.5,495.79,3038.5,509.79,3050.5,509.79,3050.5,501.79,3044.5,495.79,3038.5,495.79" style="stroke:#181818;stroke-width:0.5;"/><line style="stroke:#181818;stroke-width:0.5;" x1="3044.5" x2="3044.5" y1="495.79" y2="501.79"/><line style="stroke:#181818;stroke-width:0.5;" x1="3050.5" x2="3044.5" y1="501.79" y2="501.79"/><text fill="#000000" font-family="sans-serif" font-size="14" lengthAdjust="spacing" textLength="143" x="2892.5" y="516.7851">/var/run/docker.sock</text></g><!--entity 4859b8c3887a1d16eb0586611fc3ae0e--><g id="elem_4859b8c3887a1d16eb0586611fc3ae0e"><rect fill="#F1F1F1" height="39.2969" rx="2.5" ry="2.5" style="stroke:#181818;stroke-width:0.5;" width="85" x="3090.5" y="490.79"/><polygon fill="#F1F1F1" points="3158.5,495.79,3158.5,509.79,3170.5,509.79,3170.5,501.79,3164.5,495.79,3158.5,495.79" style="stroke:#181818;stroke-width:0.5;"/><line style="stroke:#181818;stroke-width:0.5;" x1="3164.5" x2="3164.5" y1="495.79" y2="501.79"/><line style="stroke:#181818;stroke-width:0.5;" x1="3170.5" x2="3164.5" y1="501.79" y2="501.79"/><text fill="#000000" font-family="sans-serif" font-size="14" lengthAdjust="spacing" textLength="55" x="3100.5" y="516.7851">/workdir</text></g><!--entity 600c44c1349e9154dce569ba37e2d70b--><g id="elem_600c44c1349e9154dce569ba37e2d70b"><ellipse cx="180" cy="400.79" fill="#F1F1F1" rx="8" ry="8" style="stroke:#181818;stroke-width:0.5;"/><text fill="#000000" font-family="sans-serif" font-size="14" lengthAdjust="spacing" textLength="36" x="162" y="430.7851">8080</text></g><!--entity 09459082643d79967357df725fa5f7f3--><g id="elem_09459082643d79967357df725fa5f7f3"><ellipse cx="544" cy="400.79" fill="#F1F1F1" rx="8" ry="8" style="stroke:#181818;stroke-width:0.5;"/><text fill="#000000" font-family="sans-serif" font-size="14" lengthAdjust="spacing" textLength="45" x="521.5" y="430.7851">22181</text></g><!--entity 51644e9b83b8cfce8c3c8531f9c1db78--><g id="elem_51644e9b83b8cfce8c3c8531f9c1db78"><ellipse cx="901" cy="400.79" fill="#F1F1F1" rx="8" ry="8" style="stroke:#181818;stroke-width:0.5;"/><text fill="#000000" font-family="sans-serif" font-size="14" lengthAdjust="spacing" textLength="45" x="878.5" y="430.7851">29092</text></g><!--entity 8a81c9bb0ec23d07684c1472053c60fe--><g id="elem_8a81c9bb0ec23d07684c1472053c60fe"><ellipse cx="1625" cy="400.79" fill="#F1F1F1" rx="8" ry="8" style="stroke:#181818;stroke-width:0.5;"/><text fill="#000000" font-family="sans-serif" font-size="14" lengthAdjust="spacing" textLength="27" x="1611.5" y="430.7851">443</text></g><!--entity dba3f4d0bb5aa6fcfa18da2c1f7a9775--><g id="elem_dba3f4d0bb5aa6fcfa18da2c1f7a9775"><ellipse cx="1536" cy="400.79" fill="#F1F1F1" rx="8" ry="8" style="stroke:#181818;stroke-width:0.5;"/><text fill="#000000" font-family="sans-serif" font-size="14" lengthAdjust="spacing" textLength="18" x="1527" y="430.7851">80</text></g><!--entity 73d99f61cf21f8768f6271f1b1e3cb79--><g id="elem_73d99f61cf21f8768f6271f1b1e3cb79"><rect fill="#F1F1F1" height="39.2969" rx="2.5" ry="2.5" style="stroke:#181818;stroke-width:0.5;" width="124" x="1096" y="609.08"/><polygon fill="#F1F1F1" points="1203,614.08,1203,628.08,1215,628.08,1215,620.08,1209,614.08,1203,614.08" style="stroke:#181818;stroke-width:0.5;"/><line style="stroke:#181818;stroke-width:0.5;" x1="1209" x2="1209" y1="614.08" y2="620.08"/><line style="stroke:#181818;stroke-width:0.5;" x1="1215" x2="1209" y1="620.08" y2="620.08"/><text fill="#000000" font-family="sans-serif" font-size="14" lengthAdjust="spacing" textLength="94" x="1106" y="635.0751">./infra_crawler</text></g><!--entity 02333efa2bf4b0344924cb9dbec6e9b2--><g id="elem_02333efa2bf4b0344924cb9dbec6e9b2"><rect fill="#F1F1F1" height="39.2969" rx="2.5" ry="2.5" style="stroke:#181818;stroke-width:0.5;" width="124" x="1470" y="609.08"/><polygon fill="#F1F1F1" points="1577,614.08,1577,628.08,1589,628.08,1589,620.08,1583,614.08,1577,614.08" style="stroke:#181818;stroke-width:0.5;"/><line style="stroke:#181818;stroke-width:0.5;" x1="1583" x2="1583" y1="614.08" y2="620.08"/><line style="stroke:#181818;stroke-width:0.5;" x1="1589" x2="1583" y1="620.08" y2="620.08"/><text fill="#000000" font-family="sans-serif" font-size="14" lengthAdjust="spacing" textLength="94" x="1480" y="635.0751">static_volume</text></g><!--entity 9af05835fa384a0cf483e5aa169630e7--><g id="elem_9af05835fa384a0cf483e5aa169630e7"><rect fill="#F1F1F1" height="39.2969" rx="2.5" ry="2.5" style="stroke:#181818;stroke-width:0.5;" width="149" x="2226.5" y="609.08"/><polygon fill="#F1F1F1" points="2358.5,614.08,2358.5,628.08,2370.5,628.08,2370.5,620.08,2364.5,614.08,2358.5,614.08" style="stroke:#181818;stroke-width:0.5;"/><line style="stroke:#181818;stroke-width:0.5;" x1="2364.5" x2="2364.5" y1="614.08" y2="620.08"/><line style="stroke:#181818;stroke-width:0.5;" x1="2370.5" x2="2364.5" y1="620.08" y2="620.08"/><text fill="#000000" font-family="sans-serif" font-size="14" lengthAdjust="spacing" textLength="119" x="2236.5" y="635.0751">letsencrypt_certs</text></g><!--entity 8504fa92da4ace279fcef4b85abf09a2--><g id="elem_8504fa92da4ace279fcef4b85abf09a2"><rect fill="#F1F1F1" height="39.2969" rx="2.5" ry="2.5" style="stroke:#181818;stroke-width:0.5;" width="199" x="2424.5" y="609.08"/><polygon fill="#F1F1F1" points="2606.5,614.08,2606.5,628.08,2618.5,628.08,2618.5,620.08,2612.5,614.08,2606.5,614.08" style="stroke:#181818;stroke-width:0.5;"/><line style="stroke:#181818;stroke-width:0.5;" x1="2612.5" x2="2612.5" y1="614.08" y2="620.08"/><line style="stroke:#181818;stroke-width:0.5;" x1="2618.5" x2="2612.5" y1="620.08" y2="620.08"/><text fill="#000000" font-family="sans-serif" font-size="14" lengthAdjust="spacing" textLength="169" x="2434.5" y="635.0751">certbot_acme_challenge</text></g><!--entity 7a1e35394eba22ed61abc2695ba701c3--><g id="elem_7a1e35394eba22ed61abc2695ba701c3"><rect fill="#F1F1F1" height="39.2969" rx="2.5" ry="2.5" style="stroke:#181818;stroke-width:0.5;" width="151" x="1938.5" y="609.08"/><polygon fill="#F1F1F1" points="2072.5,614.08,2072.5,628.08,2084.5,628.08,2084.5,620.08,2078.5,614.08,2072.5,614.08" style="stroke:#181818;stroke-width:0.5;"/><line style="stroke:#181818;stroke-width:0.5;" x1="2078.5" x2="2078.5" y1="614.08" y2="620.08"/><line style="stroke:#181818;stroke-width:0.5;" x1="2084.5" x2="2078.5" y1="620.08" y2="620.08"/><text fill="#000000" font-family="sans-serif" font-size="14" lengthAdjust="spacing" textLength="121" x="1948.5" y="635.0751">./local-env/vhosts</text></g><!--entity d2e4048eb785166d505ec373eb6db9fc--><g id="elem_d2e4048eb785166d505ec373eb6db9fc"><rect fill="#F1F1F1" height="39.2969" rx="2.5" ry="2.5" style="stroke:#181818;stroke-width:0.5;" width="173" x="2882.5" y="609.08"/><polygon fill="#F1F1F1" points="3038.5,614.08,3038.5,628.08,3050.5,628.08,3050.5,620.08,3044.5,614.08,3038.5,614.08" style="stroke:#181818;stroke-width:0.5;"/><line style="stroke:#181818;stroke-width:0.5;" x1="3044.5" x2="3044.5" y1="614.08" y2="620.08"/><line style="stroke:#181818;stroke-width:0.5;" x1="3050.5" x2="3044.5" y1="620.08" y2="620.08"/><text fill="#000000" font-family="sans-serif" font-size="14" lengthAdjust="spacing" textLength="143" x="2892.5" y="635.0751">/var/run/docker.sock</text></g><!--entity 4ee4e842a5b02b96710ef6f54e60eaf4--><g id="elem_4ee4e842a5b02b96710ef6f54e60eaf4"><rect fill="#F1F1F1" height="39.2969" rx="2.5" ry="2.5" style="stroke:#181818;stroke-width:0.5;" width="39" x="3113.5" y="609.08"/><polygon fill="#F1F1F1" points="3135.5,614.08,3135.5,628.08,3147.5,628.08,3147.5,620.08,3141.5,614.08,3135.5,614.08" style="stroke:#181818;stroke-width:0.5;"/><line style="stroke:#181818;stroke-width:0.5;" x1="3141.5" x2="3141.5" y1="614.08" y2="620.08"/><line style="stroke:#181818;stroke-width:0.5;" x1="3147.5" x2="3141.5" y1="620.08" y2="620.08"/><text fill="#000000" font-family="sans-serif" font-size="14" lengthAdjust="spacing" textLength="9" x="3123.5" y="635.0751">./</text></g><!--entity b3cf1799a1bceca5cdf55b5995b6d2f4--><g id="elem_b3cf1799a1bceca5cdf55b5995b6d2f4"><rect fill="#F1F1F1" height="39.2969" rx="2.5" ry="2.5" style="stroke:#181818;stroke-width:0.5;" width="56" x="3208" y="90.25"/><polygon fill="#F1F1F1" points="3247,95.25,3247,109.25,3259,109.25,3259,101.25,3253,95.25,3247,95.25" style="stroke:#181818;stroke-width:0.5;"/><line style="stroke:#181818;stroke-width:0.5;" x1="3253" x2="3253" y1="95.25" y2="101.25"/><line style="stroke:#181818;stroke-width:0.5;" x1="3259" x2="3253" y1="101.25" y2="101.25"/><text fill="#000000" font-family="sans-serif" font-size="14" lengthAdjust="spacing" textLength="26" x="3218" y="116.2451">text</text></g><!--link 6cec62b19a20c63d1b6535f2688de974 to 18eb8329fc6fdb6f429a02d04f286599--><g id="link_6cec62b19a20c63d1b6535f2688de974_18eb8329fc6fdb6f429a02d04f286599"><path codeLine="86" d="M180,173.99 C180,205.62 180,240.3 180,255.25 " fill="none" id="6cec62b19a20c63d1b6535f2688de974-18eb8329fc6fdb6f429a02d04f286599" style="stroke:#181818;stroke-width:1.0;"/></g><!--link 18eb8329fc6fdb6f429a02d04f286599 to 600c44c1349e9154dce569ba37e2d70b--><g id="link_18eb8329fc6fdb6f429a02d04f286599_600c44c1349e9154dce569ba37e2d70b"><path codeLine="87" d="M180,272.43 C180,296.08 180,367.9 180,391.89 " fill="none" id="18eb8329fc6fdb6f429a02d04f286599-600c44c1349e9154dce569ba37e2d70b" style="stroke:#181818;stroke-width:1.0;"/></g><!--link e08de8ee1b7bd0e45201edaf78ba4697 to ece32d11de04ea9b6e1403bb711bc958--><g id="link_e08de8ee1b7bd0e45201edaf78ba4697_ece32d11de04ea9b6e1403bb711bc958"><path codeLine="88" d="M544,157.71 C544,192.57 544,237.1 544,254.91 " fill="none" id="e08de8ee1b7bd0e45201edaf78ba4697-ece32d11de04ea9b6e1403bb711bc958" style="stroke:#181818;stroke-width:1.0;"/></g><!--link ece32d11de04ea9b6e1403bb711bc958 to 09459082643d79967357df725fa5f7f3--><g id="link_ece32d11de04ea9b6e1403bb711bc958_09459082643d79967357df725fa5f7f3"><path codeLine="89" d="M544,272.43 C544,296.08 544,367.9 544,391.89 " fill="none" id="ece32d11de04ea9b6e1403bb711bc958-09459082643d79967357df725fa5f7f3" style="stroke:#181818;stroke-width:1.0;"/></g><!--link 349a83bb472f89aafc32c286b36aadbc to 6adbba7d1bab26e0203b790ae0adb380--><g id="link_349a83bb472f89aafc32c286b36aadbc_6adbba7d1bab26e0203b790ae0adb380"><path codeLine="90" d="M901,157.71 C901,192.57 901,237.1 901,254.91 " fill="none" id="349a83bb472f89aafc32c286b36aadbc-6adbba7d1bab26e0203b790ae0adb380" style="stroke:#181818;stroke-width:1.0;"/></g><!--link 6adbba7d1bab26e0203b790ae0adb380 to 51644e9b83b8cfce8c3c8531f9c1db78--><g id="link_6adbba7d1bab26e0203b790ae0adb380_51644e9b83b8cfce8c3c8531f9c1db78"><path codeLine="91" d="M901,272.43 C901,296.08 901,367.9 901,391.89 " fill="none" id="6adbba7d1bab26e0203b790ae0adb380-51644e9b83b8cfce8c3c8531f9c1db78" style="stroke:#181818;stroke-width:1.0;"/></g><!--link 48871f9ddd61de6056759e86342fe397 to 73d99f61cf21f8768f6271f1b1e3cb79--><g id="link_48871f9ddd61de6056759e86342fe397_73d99f61cf21f8768f6271f1b1e3cb79"><path codeLine="92" d="M1158,530.38 C1158,552 1158,587.17 1158,608.8 " fill="none" id="48871f9ddd61de6056759e86342fe397-73d99f61cf21f8768f6271f1b1e3cb79" style="stroke:#181818;stroke-width:1.0;"/><text fill="#000000" font-family="sans-serif" font-size="13" lengthAdjust="spacing" textLength="14" x="1159" y="575.1469">rw</text></g><!--link 90864b398c54ba1a31949f1dc8f522f9 to 48871f9ddd61de6056759e86342fe397--><g id="link_90864b398c54ba1a31949f1dc8f522f9_48871f9ddd61de6056759e86342fe397"><path codeLine="93" d="M1248.88,157.79 C1226.23,245.44 1179.8621,424.8611 1164.4121,484.6111 " fill="none" id="90864b398c54ba1a31949f1dc8f522f9-to-48871f9ddd61de6056759e86342fe397" style="stroke:#181818;stroke-width:1.0;stroke-dasharray:7.0,7.0;"/><polygon fill="#181818" points="1162.91,490.42,1169.0357,482.708,1164.1617,485.5792,1161.2905,480.7052,1162.91,490.42" style="stroke:#181818;stroke-width:1.0;"/><text fill="#000000" font-family="sans-serif" font-size="13" lengthAdjust="spacing" textLength="23" x="1206" y="337.8569">use</text></g><!--link 5e07b5c6520b9f500d4b371c306e53c8 to 02333efa2bf4b0344924cb9dbec6e9b2--><g id="link_5e07b5c6520b9f500d4b371c306e53c8_02333efa2bf4b0344924cb9dbec6e9b2"><path codeLine="94" d="M1390.53,530.38 C1421.86,551.94 1472.76,586.96 1504.2,608.6 " fill="none" id="5e07b5c6520b9f500d4b371c306e53c8-02333efa2bf4b0344924cb9dbec6e9b2" style="stroke:#181818;stroke-width:1.0;"/><text fill="#000000" font-family="sans-serif" font-size="13" lengthAdjust="spacing" textLength="14" x="1458" y="575.1469">rw</text></g><!--link 90864b398c54ba1a31949f1dc8f522f9 to 5e07b5c6520b9f500d4b371c306e53c8--><g id="link_90864b398c54ba1a31949f1dc8f522f9_5e07b5c6520b9f500d4b371c306e53c8"><path codeLine="95" d="M1273,157.79 C1295.43,245.44 1341.3525,424.8573 1356.6425,484.6073 " fill="none" id="90864b398c54ba1a31949f1dc8f522f9-to-5e07b5c6520b9f500d4b371c306e53c8" style="stroke:#181818;stroke-width:1.0;stroke-dasharray:7.0,7.0;"/><polygon fill="#181818" points="1358.13,490.42,1359.7739,480.7093,1356.8904,485.5761,1352.0237,482.6926,1358.13,490.42" style="stroke:#181818;stroke-width:1.0;"/><text fill="#000000" font-family="sans-serif" font-size="13" lengthAdjust="spacing" textLength="23" x="1320" y="337.8569">use</text></g><!--link 02afd862d04e83ed8e2004eacc5b6db9 to 3a61031652ff80665f419f821c1ac407--><g id="link_02afd862d04e83ed8e2004eacc5b6db9_3a61031652ff80665f419f821c1ac407"><path codeLine="96" d="M1939.41,157.71 C1914.39,192.57 1882.44,237.1 1869.65,254.91 " fill="none" id="02afd862d04e83ed8e2004eacc5b6db9-3a61031652ff80665f419f821c1ac407" style="stroke:#181818;stroke-width:1.0;"/></g><!--link 3a61031652ff80665f419f821c1ac407 to 8a81c9bb0ec23d07684c1472053c60fe--><g id="link_3a61031652ff80665f419f821c1ac407_8a81c9bb0ec23d07684c1472053c60fe"><path codeLine="97" d="M1855.73,272.67 C1843.9,283.64 1821.11,303.65 1799,316.79 C1744.71,349.04 1723.79,342.22 1668,371.79 C1655.72,378.29 1642.44,387.27 1633.94,393.29 " fill="none" id="3a61031652ff80665f419f821c1ac407-8a81c9bb0ec23d07684c1472053c60fe" style="stroke:#181818;stroke-width:1.0;"/></g><!--link 02afd862d04e83ed8e2004eacc5b6db9 to 97b04832e42a04c7beb04c21e560b3fb--><g id="link_02afd862d04e83ed8e2004eacc5b6db9_97b04832e42a04c7beb04c21e560b3fb"><path codeLine="98" d="M1905.21,157.91 C1853.2,193.98 1786.44,240.29 1762.78,256.7 " fill="none" id="02afd862d04e83ed8e2004eacc5b6db9-97b04832e42a04c7beb04c21e560b3fb" style="stroke:#181818;stroke-width:1.0;"/></g><!--link 97b04832e42a04c7beb04c21e560b3fb to dba3f4d0bb5aa6fcfa18da2c1f7a9775--><g id="link_97b04832e42a04c7beb04c21e560b3fb_dba3f4d0bb5aa6fcfa18da2c1f7a9775"><path codeLine="99" d="M1745.13,265.77 C1717.9,269.18 1634.21,282.73 1582,324.79 C1558.92,343.38 1544.41,376.86 1538.73,391.99 " fill="none" id="97b04832e42a04c7beb04c21e560b3fb-dba3f4d0bb5aa6fcfa18da2c1f7a9775" style="stroke:#181818;stroke-width:1.0;"/></g><!--link feb445bcd0c040198341918ff2d4fe78 to 02333efa2bf4b0344924cb9dbec6e9b2--><g id="link_feb445bcd0c040198341918ff2d4fe78_02333efa2bf4b0344924cb9dbec6e9b2"><path codeLine="100" d="M1751.03,530.51 C1702.4,552.1 1623.64,587.06 1574.99,608.65 " fill="none" id="feb445bcd0c040198341918ff2d4fe78-02333efa2bf4b0344924cb9dbec6e9b2" style="stroke:#181818;stroke-width:1.0;"/><text fill="#000000" font-family="sans-serif" font-size="13" lengthAdjust="spacing" textLength="14" x="1679" y="575.1469">rw</text></g><!--link 02afd862d04e83ed8e2004eacc5b6db9 to feb445bcd0c040198341918ff2d4fe78--><g id="link_02afd862d04e83ed8e2004eacc5b6db9_feb445bcd0c040198341918ff2d4fe78"><path codeLine="101" d="M1961.8,157.84 C1950.88,200.33 1932.49,264.15 1909,316.79 C1879.08,383.84 1834.2855,451.657 1810.9455,485.367 " fill="none" id="02afd862d04e83ed8e2004eacc5b6db9-to-feb445bcd0c040198341918ff2d4fe78" style="stroke:#181818;stroke-width:1.0;stroke-dasharray:7.0,7.0;"/><polygon fill="#181818" points="1807.53,490.3,1815.9419,485.1775,1810.3762,486.1892,1809.3646,480.6235,1807.53,490.3" style="stroke:#181818;stroke-width:1.0;"/><text fill="#000000" font-family="sans-serif" font-size="13" lengthAdjust="spacing" textLength="23" x="1906" y="337.8569">use</text></g><!--link 2fa7031e2dc022b03ff52ea31d0b38a8 to 9af05835fa384a0cf483e5aa169630e7--><g id="link_2fa7031e2dc022b03ff52ea31d0b38a8_9af05835fa384a0cf483e5aa169630e7"><path codeLine="102" d="M2211.43,530.38 C2231.33,552 2263.68,587.17 2283.58,608.8 " fill="none" id="2fa7031e2dc022b03ff52ea31d0b38a8-9af05835fa384a0cf483e5aa169630e7" style="stroke:#181818;stroke-width:1.0;"/><text fill="#000000" font-family="sans-serif" font-size="13" lengthAdjust="spacing" textLength="14" x="2254" y="575.1469">rw</text></g><!--link 02afd862d04e83ed8e2004eacc5b6db9 to 2fa7031e2dc022b03ff52ea31d0b38a8--><g id="link_02afd862d04e83ed8e2004eacc5b6db9_2fa7031e2dc022b03ff52ea31d0b38a8"><path codeLine="103" d="M1999,157.79 C2047.61,245.44 2147.4098,425.423 2180.5498,485.173 " fill="none" id="02afd862d04e83ed8e2004eacc5b6db9-to-2fa7031e2dc022b03ff52ea31d0b38a8" style="stroke:#181818;stroke-width:1.0;stroke-dasharray:7.0,7.0;"/><polygon fill="#181818" points="2183.46,490.42,2182.5927,480.6094,2181.0348,486.0475,2175.5967,484.4897,2183.46,490.42" style="stroke:#181818;stroke-width:1.0;"/><text fill="#000000" font-family="sans-serif" font-size="13" lengthAdjust="spacing" textLength="23" x="2101" y="337.8569">use</text></g><!--link d8a3f0fbb8decd75a2abaa2cf0995f5e to 8504fa92da4ace279fcef4b85abf09a2--><g id="link_d8a3f0fbb8decd75a2abaa2cf0995f5e_8504fa92da4ace279fcef4b85abf09a2"><path codeLine="104" d="M2397.6,530.38 C2425.59,551.94 2471.07,586.96 2499.16,608.6 " fill="none" id="d8a3f0fbb8decd75a2abaa2cf0995f5e-8504fa92da4ace279fcef4b85abf09a2" style="stroke:#181818;stroke-width:1.0;"/><text fill="#000000" font-family="sans-serif" font-size="13" lengthAdjust="spacing" textLength="14" x="2458" y="575.1469">rw</text></g><!--link 02afd862d04e83ed8e2004eacc5b6db9 to d8a3f0fbb8decd75a2abaa2cf0995f5e--><g id="link_02afd862d04e83ed8e2004eacc5b6db9_d8a3f0fbb8decd75a2abaa2cf0995f5e"><path codeLine="105" d="M2020.06,157.79 C2108.04,245.44 2289.6996,426.4352 2349.6696,486.1852 " fill="none" id="02afd862d04e83ed8e2004eacc5b6db9-to-d8a3f0fbb8decd75a2abaa2cf0995f5e" style="stroke:#181818;stroke-width:1.0;stroke-dasharray:7.0,7.0;"/><polygon fill="#181818" points="2353.92,490.42,2350.3676,481.2341,2350.378,486.891,2344.7211,486.9014,2353.92,490.42" style="stroke:#181818;stroke-width:1.0;"/><text fill="#000000" font-family="sans-serif" font-size="13" lengthAdjust="spacing" textLength="23" x="2205" y="337.8569">use</text></g><!--link 23b1b729f9899522b85a42067de034a3 to 7a1e35394eba22ed61abc2695ba701c3--><g id="link_23b1b729f9899522b85a42067de034a3_7a1e35394eba22ed61abc2695ba701c3"><path codeLine="106" d="M2014,530.38 C2014,552 2014,587.17 2014,608.8 " fill="none" id="23b1b729f9899522b85a42067de034a3-7a1e35394eba22ed61abc2695ba701c3" style="stroke:#181818;stroke-width:1.0;"/><text fill="#000000" font-family="sans-serif" font-size="13" lengthAdjust="spacing" textLength="14" x="2015" y="575.1469">rw</text></g><!--link 02afd862d04e83ed8e2004eacc5b6db9 to 23b1b729f9899522b85a42067de034a3--><g id="link_02afd862d04e83ed8e2004eacc5b6db9_23b1b729f9899522b85a42067de034a3"><path codeLine="107" d="M1977.82,157.79 C1986.84,245.44 2005.2867,424.7014 2011.4267,484.4514 " fill="none" id="02afd862d04e83ed8e2004eacc5b6db9-to-23b1b729f9899522b85a42067de034a3" style="stroke:#181818;stroke-width:1.0;stroke-dasharray:7.0,7.0;"/><polygon fill="#181818" points="2012.04,490.42,2015.099,481.0583,2011.5289,485.4462,2007.1409,481.876,2012.04,490.42" style="stroke:#181818;stroke-width:1.0;"/><text fill="#000000" font-family="sans-serif" font-size="13" lengthAdjust="spacing" textLength="23" x="1997" y="337.8569">use</text></g><!--link 4f5bbfba023abcad1d457e30dd56ffa2 to 9af05835fa384a0cf483e5aa169630e7--><g id="link_4f5bbfba023abcad1d457e30dd56ffa2_9af05835fa384a0cf483e5aa169630e7"><path codeLine="108" d="M2552.17,530.29 C2534.41,545.45 2507.61,566.26 2481,579.08 C2448.05,594.96 2409.11,606.3 2375.9,614.01 " fill="none" id="4f5bbfba023abcad1d457e30dd56ffa2-9af05835fa384a0cf483e5aa169630e7" style="stroke:#181818;stroke-width:1.0;"/><text fill="#000000" font-family="sans-serif" font-size="13" lengthAdjust="spacing" textLength="14" x="2509" y="575.1469">rw</text></g><!--link b2e5a6b1daa1b905edcf88ba35110a2c to 4f5bbfba023abcad1d457e30dd56ffa2--><g id="link_b2e5a6b1daa1b905edcf88ba35110a2c_4f5bbfba023abcad1d457e30dd56ffa2"><path codeLine="109" d="M2653.3,149.83 C2634.58,233.66 2592.3585,422.7744 2578.5685,484.4844 " fill="none" id="b2e5a6b1daa1b905edcf88ba35110a2c-to-4f5bbfba023abcad1d457e30dd56ffa2" style="stroke:#181818;stroke-width:1.0;stroke-dasharray:7.0,7.0;"/><polygon fill="#181818" points="2577.26,490.34,2583.1265,482.429,2578.3504,485.4604,2575.3191,480.6843,2577.26,490.34" style="stroke:#181818;stroke-width:1.0;"/><text fill="#000000" font-family="sans-serif" font-size="13" lengthAdjust="spacing" textLength="23" x="2615" y="337.8569">use</text></g><!--link adb224ccfeb4c419f45fa9b10375c326 to 8504fa92da4ace279fcef4b85abf09a2--><g id="link_adb224ccfeb4c419f45fa9b10375c326_8504fa92da4ace279fcef4b85abf09a2"><path codeLine="110" d="M2714.61,530.51 C2672.28,552.1 2603.74,587.06 2561.41,608.65 " fill="none" id="adb224ccfeb4c419f45fa9b10375c326-8504fa92da4ace279fcef4b85abf09a2" style="stroke:#181818;stroke-width:1.0;"/><text fill="#000000" font-family="sans-serif" font-size="13" lengthAdjust="spacing" textLength="14" x="2652" y="575.1469">rw</text></g><!--link b2e5a6b1daa1b905edcf88ba35110a2c to adb224ccfeb4c419f45fa9b10375c326--><g id="link_b2e5a6b1daa1b905edcf88ba35110a2c_adb224ccfeb4c419f45fa9b10375c326"><path codeLine="111" d="M2670.79,149.83 C2689.72,233.66 2732.4279,422.7775 2746.3679,484.4875 " fill="none" id="b2e5a6b1daa1b905edcf88ba35110a2c-to-adb224ccfeb4c419f45fa9b10375c326" style="stroke:#181818;stroke-width:1.0;stroke-dasharray:7.0,7.0;"/><polygon fill="#181818" points="2747.69,490.34,2749.6086,480.6798,2746.5883,485.4629,2741.8052,482.4426,2747.69,490.34" style="stroke:#181818;stroke-width:1.0;"/><text fill="#000000" font-family="sans-serif" font-size="13" lengthAdjust="spacing" textLength="23" x="2714" y="337.8569">use</text></g><!--link 107ea90b85e17faf4f7afc86017a48ab to d2e4048eb785166d505ec373eb6db9fc--><g id="link_107ea90b85e17faf4f7afc86017a48ab_d2e4048eb785166d505ec373eb6db9fc"><path codeLine="112" d="M2969,530.38 C2969,552 2969,587.17 2969,608.8 " fill="none" id="107ea90b85e17faf4f7afc86017a48ab-d2e4048eb785166d505ec373eb6db9fc" style="stroke:#181818;stroke-width:1.0;"/><text fill="#000000" font-family="sans-serif" font-size="13" lengthAdjust="spacing" textLength="14" x="2970" y="575.1469">rw</text></g><!--link ede0da965a02d6ed8de7d7a0ab067969 to 107ea90b85e17faf4f7afc86017a48ab--><g id="link_ede0da965a02d6ed8de7d7a0ab067969_107ea90b85e17faf4f7afc86017a48ab"><path codeLine="113" d="M3016.66,157.63 C3010.78,200.96 3001.8,267.23 2994,324.79 C2985.81,385.21 2976.9348,450.8142 2972.3948,484.3542 " fill="none" id="ede0da965a02d6ed8de7d7a0ab067969-to-107ea90b85e17faf4f7afc86017a48ab" style="stroke:#181818;stroke-width:1.0;stroke-dasharray:7.0,7.0;"/><polygon fill="#181818" points="2971.59,490.3,2976.7611,481.9179,2972.2607,485.3452,2968.8334,480.8448,2971.59,490.3" style="stroke:#181818;stroke-width:1.0;"/><text fill="#000000" font-family="sans-serif" font-size="13" lengthAdjust="spacing" textLength="23" x="2995" y="337.8569">use</text></g><!--link 4859b8c3887a1d16eb0586611fc3ae0e to 4ee4e842a5b02b96710ef6f54e60eaf4--><g id="link_4859b8c3887a1d16eb0586611fc3ae0e_4ee4e842a5b02b96710ef6f54e60eaf4"><path codeLine="114" d="M3133,530.38 C3133,552 3133,587.17 3133,608.8 " fill="none" id="4859b8c3887a1d16eb0586611fc3ae0e-4ee4e842a5b02b96710ef6f54e60eaf4" style="stroke:#181818;stroke-width:1.0;"/><text fill="#000000" font-family="sans-serif" font-size="13" lengthAdjust="spacing" textLength="13" x="3134" y="575.1469">ro</text></g><!--link ede0da965a02d6ed8de7d7a0ab067969 to 4859b8c3887a1d16eb0586611fc3ae0e--><g id="link_ede0da965a02d6ed8de7d7a0ab067969_4859b8c3887a1d16eb0586611fc3ae0e"><path codeLine="115" d="M3035.94,157.79 C3060.14,245.44 3109.6638,424.8862 3126.1538,484.6362 " fill="none" id="ede0da965a02d6ed8de7d7a0ab067969-to-4859b8c3887a1d16eb0586611fc3ae0e" style="stroke:#181818;stroke-width:1.0;stroke-dasharray:7.0,7.0;"/><polygon fill="#181818" points="3127.75,490.42,3129.2115,480.6802,3126.4198,485.6002,3121.4998,482.8085,3127.75,490.42" style="stroke:#181818;stroke-width:1.0;"/><text fill="#000000" font-family="sans-serif" font-size="13" lengthAdjust="spacing" textLength="23" x="3087" y="337.8569">use</text></g><!--SRC=[bLXTJoj74dtthx1ushqIkBy_a7Qb9CfJeYXAj2-xMg7gwchYO6pBDd1lelptd9d1ZesIz8K744nFrQcgKwUFeTLgy_Au_BXSty_Mcohpg-zNj3uyFQwkvhIV9-FOU1MyC2jLbEFcV2WwYOwc59h_Eflpvd6xMSlwC0yi74pHcOpYOAikmLlVJ4YfIevk_h_PXm_Rr_ZNUzazo-x3Xzbi-KZtSZi_FbcyENBxinmEdsQoVbxkDkj7PBgTV_d5Zr_V_UU7R_zrF3ixo4VyVVW-c_r_zez_pg-IIcgi0d1BiYOt3gsMq9p9f4nLhfaKVCwptrvh_-zcyo2obTtucj4v4ultrLd65t5cNIFbviYNM2wB5uKYauZ6awh4UQEqL6en5N8Xnx7uNuu9pihcpRgjdX1YkUO5RwzFPsvNT93zgHoZanvn2OirLUigoWdb4aGxPKk9MXVEFftA-ORQ0uslUAT3qC4WXazUit6fE5sQOg58LLsMObscX80kcfOoKMDh6AqgDX3LmcCf3qFmlobZVFwsXAoo6G45n2aKGH4g9eWoA21cHQBmm2Prgk6BxNPyeHhoiQB_ATbMZMubPwz3phL5pHmlAyWg1LTiJknT8KrMPvURhfoQDwRbiOBwCwtlDzUqtGvbx82JTg0GhLxeqtw0Z5-NZVWmlreirsr7TxoZbzKhErnAKRTSQmsOH50-H9yb1UjC4vlZNxwzGC85SXsMt9OhsKy34XMBvm3MbDoyKXNmKPXLGRpbFsRwtVro_N6YWJZhbB6C6TLOMq5Ji7J1DGLOsBQBZYX3hQOmi5wIbPh4g84-pBw4MgQEh8VWPujvwidJ6a3tr_l3PhkLUXodStP4OYbePJN0jvPK2BuvdLiocZMnK_5r6yUpEK95i8pY345EOf51LOmM7rInhRolRKsASxvmLQoSqZbPPDQfDLDTavZEeyc15oivx6NDkq_RmxJYZIAGYwciZ2dADl13G9SAC8aktd-ctUBbvMN1iZkKpVH-JMJHxbAm-roZ9qE5o71JO6VpyZR_sE35yq-R_M4gmDW2mO0qvOGt025vSaQ5YEMsZknfxb-TPUMibFAG0p8bS6cjSIaQfSVCFfTqEVbYn1CqknBfafMN2iP0bApNMW7hEFcXgFqmyalQ_rdFNFEbj085jLIOggxEHx6gLXzQ8zFh6HRSu5hXONOy4CNv1XK3WwA7q8G_IeRQJvof4AE4Xg8_JH5E-rH3OaW2-bxVxBwWTPLoy8F61p2zIeHgAofeQmuJqncnEmn_KyRkQRse6twGtSqUFwQBHKK8iCBGS1ysQgv5Y6KAIaToYIx8_BBPFTJbKJk6CR65X92kEc07V890QoWj953GWeiBB2Z5pZ56d2LhxofkfP0nmWZcHbKcSJrT42ex3mKqmTaQSmxHGZfRDEYpRx7PDreC6NLE0CW2KsC1C4xUGjmWjmLBTBxhM0hDkHGbR6nLCIJWmaMXe591DJdVzGg4pM6LYYSAZHlfLC4uZJRb6FrPUsx-H66ZhJcteBb1sH8ojM0WkRfeiOpRukprIHVkdZUhfqUPUc2ijG8wbkQmryvbSAxaMc1HKEivIyy8VZVkmKGwQXWAx0lPv4Z1-40sKGVkd62LdElxAxllY1_bZd-YrKhMznECvE4oA9jA3bR2H7WG0I1iEPYSBvRbPh7QCAskuNFE5G8C4UjjTbB86C5jWwqp8NjSdmeNnEVmj49keRg2OMBOeNge0DjePPJ-nXSe9eRYTf44ZVP5cG8AQIKjDEzmqmc8FkjwlUjwtJTUlGDZb2xxkzPhYD9rJRq3OvJkQdMzqrXHp_tq3enHkdlRioXZbDwMpM_dLxkNgrdNKjtSr9kRVtTzqH3lQIzNivxbcVhTMUFtekicFQBh-gK1NTVuz0wCKRgI-bbOkiQgTs2CqfNidkDwrzIwXRrEhPlqEBMUdviwrL7szwBh9ZsYwxd5YGsT6-EzwBf9JxthMD59BJgtqRjxrqjwHDTpdU-QRDSI7xMib_I8hkTftpNPpqNNJNf4rxEfq-PtFC8HNTTUlwBh9ZrDjcE6HtGzFpAYstm-kcxIqsHFpcZurzBeZGe-SkEZLiPqO8B8SstU5xYLWTgckTy1]--></g></svg>