<svg xmlns="http://www.w3.org/2000/svg" xmlns:xlink="http://www.w3.org/1999/xlink" contentStyleType="text/css" height="638px" preserveAspectRatio="none" style="width:792px;height:638px;background:#FFFFFF;" version="1.1" viewBox="0 0 792 638" width="792px" zoomAndPan="magnify"><defs/><g><!--cluster d5ae37e34fa67717c36f0e9a4e35f022--><g id="cluster_d5ae37e34fa67717c36f0e9a4e35f022"><polygon fill="none" points="16,16,26,6,344,6,344,282.49,334,292.49,16,292.49,16,16" style="stroke:#181818;stroke-width:1.0;"/><line style="stroke:#181818;stroke-width:1.0;" x1="334" x2="344" y1="16" y2="6"/><line style="stroke:#181818;stroke-width:1.0;" x1="16" x2="334" y1="16" y2="16"/><line style="stroke:#181818;stroke-width:1.0;" x1="334" x2="334" y1="16" y2="292.49"/><text fill="#000000" font-family="sans-serif" font-size="14" font-weight="bold" lengthAdjust="spacing" textLength="67" x="142.5" y="31.9951">Plantuml</text></g><!--cluster d2a57dc1d883fd21fb9951699df71cc7--><g id="cluster_d2a57dc1d883fd21fb9951699df71cc7"><polygon fill="none" points="368,24.15,378,14.15,775,14.15,775,519.78,765,529.78,368,529.78,368,24.15" style="stroke:#181818;stroke-width:1.0;"/><line style="stroke:#181818;stroke-width:1.0;" x1="765" x2="775" y1="24.15" y2="14.15"/><line style="stroke:#181818;stroke-width:1.0;" x1="368" x2="765" y1="24.15" y2="24.15"/><line style="stroke:#181818;stroke-width:1.0;" x1="765" x2="765" y1="24.15" y2="529.78"/><text fill="#000000" font-family="sans-serif" font-size="14" font-weight="bold" lengthAdjust="spacing" textLength="31" x="552" y="40.1451">App</text></g><!--entity f37b44656e478eff5a344b421d7c553d--><g id="elem_f37b44656e478eff5a344b421d7c553d"><rect fill="#F1F1F1" height="111.4844" rx="2.5" ry="2.5" style="stroke:#181818;stroke-width:0.5;" width="296" x="32" y="46"/><rect fill="#F1F1F1" height="10" style="stroke:#181818;stroke-width:0.5;" width="15" x="308" y="51"/><rect fill="#F1F1F1" height="2" style="stroke:#181818;stroke-width:0.5;" width="4" x="306" y="53"/><rect fill="#F1F1F1" height="2" style="stroke:#181818;stroke-width:0.5;" width="4" x="306" y="57"/><text fill="#000000" font-family="sans-serif" font-size="14" font-weight="bold" lengthAdjust="spacing" textLength="67" x="47" y="78.9951">plantuml</text><text fill="#000000" font-family="sans-serif" font-size="14" lengthAdjust="spacing" textLength="4" x="47" y="95.292">&#160;</text><text fill="#000000" font-family="sans-serif" font-size="14" lengthAdjust="spacing" textLength="256" x="47" y="111.5889">image: plantuml/plantuml-server:jetty</text><text fill="#000000" font-family="sans-serif" font-size="14" lengthAdjust="spacing" textLength="247" x="47" y="127.8857">environment: BASE_URL=plantuml2</text><text fill="#000000" font-family="sans-serif" font-size="14" lengthAdjust="spacing" textLength="4" x="47" y="144.1826">&#160;</text></g><!--entity 43a402e38e55e6f5ce80372aa49dae85--><g id="elem_43a402e38e55e6f5ce80372aa49dae85"><ellipse cx="180" cy="247.49" fill="#F1F1F1" rx="8" ry="8" style="stroke:#181818;stroke-width:0.5;"/><text fill="#000000" font-family="sans-serif" font-size="14" lengthAdjust="spacing" textLength="36" x="162" y="277.4851">8080</text></g><!--entity 90864b398c54ba1a31949f1dc8f522f9--><g id="elem_90864b398c54ba1a31949f1dc8f522f9"><rect fill="#F1F1F1" height="95.1875" rx="2.5" ry="2.5" style="stroke:#181818;stroke-width:0.5;" width="139" x="477.5" y="54.15"/><rect fill="#F1F1F1" height="10" style="stroke:#181818;stroke-width:0.5;" width="15" x="596.5" y="59.15"/><rect fill="#F1F1F1" height="2" style="stroke:#181818;stroke-width:0.5;" width="4" x="594.5" y="61.15"/><rect fill="#F1F1F1" height="2" style="stroke:#181818;stroke-width:0.5;" width="4" x="594.5" y="65.15"/><text fill="#000000" font-family="sans-serif" font-size="14" font-weight="bold" lengthAdjust="spacing" textLength="88" x="492.5" y="87.1451">django-app</text><text fill="#000000" font-family="sans-serif" font-size="14" lengthAdjust="spacing" textLength="4" x="492.5" y="103.442">&#160;</text><text fill="#000000" font-family="sans-serif" font-size="14" lengthAdjust="spacing" textLength="99" x="492.5" y="119.7389">restart: always</text><text fill="#000000" font-family="sans-serif" font-size="14" lengthAdjust="spacing" textLength="4" x="492.5" y="136.0357">&#160;</text></g><!--entity 48871f9ddd61de6056759e86342fe397--><g id="elem_48871f9ddd61de6056759e86342fe397"><rect fill="#F1F1F1" height="39.2969" rx="2.5" ry="2.5" style="stroke:#181818;stroke-width:0.5;" width="120" x="384" y="474.49"/><polygon fill="#F1F1F1" points="487,479.49,487,493.49,499,493.49,499,485.49,493,479.49,487,479.49" style="stroke:#181818;stroke-width:0.5;"/><line style="stroke:#181818;stroke-width:0.5;" x1="493" x2="493" y1="479.49" y2="485.49"/><line style="stroke:#181818;stroke-width:0.5;" x1="499" x2="493" y1="485.49" y2="485.49"/><text fill="#000000" font-family="sans-serif" font-size="14" lengthAdjust="spacing" textLength="90" x="394" y="500.4851">/infra_crawler</text></g><!--entity 5e07b5c6520b9f500d4b371c306e53c8--><g id="elem_5e07b5c6520b9f500d4b371c306e53c8"><rect fill="#F1F1F1" height="39.2969" rx="2.5" ry="2.5" style="stroke:#181818;stroke-width:0.5;" width="220" x="539" y="474.49"/><polygon fill="#F1F1F1" points="742,479.49,742,493.49,754,493.49,754,485.49,748,479.49,742,479.49" style="stroke:#181818;stroke-width:0.5;"/><line style="stroke:#181818;stroke-width:0.5;" x1="748" x2="748" y1="479.49" y2="485.49"/><line style="stroke:#181818;stroke-width:0.5;" x1="754" x2="748" y1="485.49" y2="485.49"/><text fill="#000000" font-family="sans-serif" font-size="14" lengthAdjust="spacing" textLength="190" x="549" y="500.4851">/infra_crawler/app/staticfiles</text></g><!--entity 600c44c1349e9154dce569ba37e2d70b--><g id="elem_600c44c1349e9154dce569ba37e2d70b"><ellipse cx="180" cy="384.49" fill="#F1F1F1" rx="8" ry="8" style="stroke:#181818;stroke-width:0.5;"/><text fill="#000000" font-family="sans-serif" font-size="14" lengthAdjust="spacing" textLength="36" x="162" y="414.4851">8080</text></g><!--entity 73d99f61cf21f8768f6271f1b1e3cb79--><g id="elem_73d99f61cf21f8768f6271f1b1e3cb79"><rect fill="#F1F1F1" height="39.2969" rx="2.5" ry="2.5" style="stroke:#181818;stroke-width:0.5;" width="124" x="382" y="592.78"/><polygon fill="#F1F1F1" points="489,597.78,489,611.78,501,611.78,501,603.78,495,597.78,489,597.78" style="stroke:#181818;stroke-width:0.5;"/><line style="stroke:#181818;stroke-width:0.5;" x1="495" x2="495" y1="597.78" y2="603.78"/><line style="stroke:#181818;stroke-width:0.5;" x1="501" x2="495" y1="603.78" y2="603.78"/><text fill="#000000" font-family="sans-serif" font-size="14" lengthAdjust="spacing" textLength="94" x="392" y="618.7751">./infra_crawler</text></g><!--entity 02333efa2bf4b0344924cb9dbec6e9b2--><g id="elem_02333efa2bf4b0344924cb9dbec6e9b2"><rect fill="#F1F1F1" height="39.2969" rx="2.5" ry="2.5" style="stroke:#181818;stroke-width:0.5;" width="124" x="587" y="592.78"/><polygon fill="#F1F1F1" points="694,597.78,694,611.78,706,611.78,706,603.78,700,597.78,694,597.78" style="stroke:#181818;stroke-width:0.5;"/><line style="stroke:#181818;stroke-width:0.5;" x1="700" x2="700" y1="597.78" y2="603.78"/><line style="stroke:#181818;stroke-width:0.5;" x1="706" x2="700" y1="603.78" y2="603.78"/><text fill="#000000" font-family="sans-serif" font-size="14" lengthAdjust="spacing" textLength="94" x="597" y="618.7751">static_volume</text></g><!--link f37b44656e478eff5a344b421d7c553d to 43a402e38e55e6f5ce80372aa49dae85--><g id="link_f37b44656e478eff5a344b421d7c553d_43a402e38e55e6f5ce80372aa49dae85"><path codeLine="25" d="M180,157.91 C180,188.63 180,223.66 180,238.82 " fill="none" id="f37b44656e478eff5a344b421d7c553d-43a402e38e55e6f5ce80372aa49dae85" style="stroke:#181818;stroke-width:1.0;"/></g><!--link 43a402e38e55e6f5ce80372aa49dae85 to 600c44c1349e9154dce569ba37e2d70b--><g id="link_43a402e38e55e6f5ce80372aa49dae85_600c44c1349e9154dce569ba37e2d70b"><path codeLine="26" d="M180,256.13 C180,279.78 180,351.6 180,375.59 " fill="none" id="43a402e38e55e6f5ce80372aa49dae85-600c44c1349e9154dce569ba37e2d70b" style="stroke:#181818;stroke-width:1.0;"/></g><!--link 48871f9ddd61de6056759e86342fe397 to 73d99f61cf21f8768f6271f1b1e3cb79--><g id="link_48871f9ddd61de6056759e86342fe397_73d99f61cf21f8768f6271f1b1e3cb79"><path codeLine="27" d="M444,514.08 C444,535.7 444,570.87 444,592.5 " fill="none" id="48871f9ddd61de6056759e86342fe397-73d99f61cf21f8768f6271f1b1e3cb79" style="stroke:#181818;stroke-width:1.0;"/><text fill="#000000" font-family="sans-serif" font-size="13" lengthAdjust="spacing" textLength="14" x="445" y="558.8469">rw</text></g><!--link 90864b398c54ba1a31949f1dc8f522f9 to 48871f9ddd61de6056759e86342fe397--><g id="link_90864b398c54ba1a31949f1dc8f522f9_48871f9ddd61de6056759e86342fe397"><path codeLine="28" d="M534.58,149.83 C511.84,236.02 465.9706,409.8685 450.5206,468.4285 " fill="none" id="90864b398c54ba1a31949f1dc8f522f9-to-48871f9ddd61de6056759e86342fe397" style="stroke:#181818;stroke-width:1.0;stroke-dasharray:7.0,7.0;"/><polygon fill="#181818" points="448.99,474.23,455.1536,466.5482,450.2655,469.3954,447.4183,464.5074,448.99,474.23" style="stroke:#181818;stroke-width:1.0;"/><text fill="#000000" font-family="sans-serif" font-size="13" lengthAdjust="spacing" textLength="23" x="493" y="321.5569">use</text></g><!--link 5e07b5c6520b9f500d4b371c306e53c8 to 02333efa2bf4b0344924cb9dbec6e9b2--><g id="link_5e07b5c6520b9f500d4b371c306e53c8_02333efa2bf4b0344924cb9dbec6e9b2"><path codeLine="29" d="M649,514.08 C649,535.7 649,570.87 649,592.5 " fill="none" id="5e07b5c6520b9f500d4b371c306e53c8-02333efa2bf4b0344924cb9dbec6e9b2" style="stroke:#181818;stroke-width:1.0;"/><text fill="#000000" font-family="sans-serif" font-size="13" lengthAdjust="spacing" textLength="14" x="650" y="558.8469">rw</text></g><!--link 90864b398c54ba1a31949f1dc8f522f9 to 5e07b5c6520b9f500d4b371c306e53c8--><g id="link_90864b398c54ba1a31949f1dc8f522f9_5e07b5c6520b9f500d4b371c306e53c8"><path codeLine="30" d="M559.3,149.83 C581.82,236.02 627.2433,409.8649 642.5433,468.4249 " fill="none" id="90864b398c54ba1a31949f1dc8f522f9-to-5e07b5c6520b9f500d4b371c306e53c8" style="stroke:#181818;stroke-width:1.0;stroke-dasharray:7.0,7.0;"/><polygon fill="#181818" points="644.06,474.23,645.655,464.5112,642.7961,469.3924,637.9148,466.5334,644.06,474.23" style="stroke:#181818;stroke-width:1.0;"/><text fill="#000000" font-family="sans-serif" font-size="13" lengthAdjust="spacing" textLength="23" x="606" y="321.5569">use</text></g><!--SRC=[bL9BgnCn5DxdLuHPQQ5jte-2mXNSkH35bKWvIKxANER5TDfw4V-xwVGMxWLbS9U4SxvNFcYQ_jBMF-lkGBe-8Qq-Dz1DfxQfA1nfqe3IebGPZBNSHcaoGmyAfSvC2FgBqDYtGzzXDz4iRL3AQ8FAEinPWrGgAC6JZLhBHB-JrMfunb-j2AbREE2Etf-szyFwYECPnzqZJjCJmUvSZttN5eeT_V3mzUF-svTFx-wpWf0VvCrRMZdcs2nQIL1Ce7IeDPgi8pechG1GFW4wJNu_MtqOXfjB0Tgco9DpCYV1S_1US-DzofR7Q5-xzCmP5QHtKQi072JtocUUeijQYEndb-aHkaE_Xc6u-XpnEC5Or4DpWQVZLN6vrXdYHAjjtUKHzd64IuFZpO5pbcUVKZ8yeM7QMEtH6Qb4HkdjFxUtXN1RkAOwvhh1uuocaTcWez621PyrOwd8ByOaCwXbT2MFL_aPng9IaKlbqNEjKaHjV81I194i2o_ODtyHRsNoFXiUSqdIMUEo4SKD3nnb3DQ_MByftP_xvjJYlCo4b18pY91LOAK-NgWOV0eO3VeWo6B7rcczt82bWHbbCOUbRvfHbkAWErgDbueircgpIPlD-yLkNF5EHwp8qhVFwfRo_bzrYwJFwlu0]--></g></svg>