<svg xmlns="http://www.w3.org/2000/svg" xmlns:xlink="http://www.w3.org/1999/xlink" contentStyleType="text/css" height="522px" preserveAspectRatio="none" style="width:440px;height:522px;background:#FFFFFF;" version="1.1" viewBox="0 0 440 522" width="440px" zoomAndPan="magnify"><defs/><g><!--cluster d2a57dc1d883fd21fb9951699df71cc7--><g id="cluster_d2a57dc1d883fd21fb9951699df71cc7"><polygon fill="none" points="16,16,26,6,423,6,423,403.78,413,413.78,16,413.78,16,16" style="stroke:#181818;stroke-width:1.0;"/><line style="stroke:#181818;stroke-width:1.0;" x1="413" x2="423" y1="16" y2="6"/><line style="stroke:#181818;stroke-width:1.0;" x1="16" x2="413" y1="16" y2="16"/><line style="stroke:#181818;stroke-width:1.0;" x1="413" x2="413" y1="16" y2="413.78"/><text fill="#000000" font-family="sans-serif" font-size="14" font-weight="bold" lengthAdjust="spacing" textLength="31" x="200" y="31.9951">App</text></g><!--entity 90864b398c54ba1a31949f1dc8f522f9--><g id="elem_90864b398c54ba1a31949f1dc8f522f9"><rect fill="#F1F1F1" height="111.4844" rx="2.5" ry="2.5" style="stroke:#181818;stroke-width:0.5;" width="139" x="84.5" y="46"/><rect fill="#F1F1F1" height="10" style="stroke:#181818;stroke-width:0.5;" width="15" x="203.5" y="51"/><rect fill="#F1F1F1" height="2" style="stroke:#181818;stroke-width:0.5;" width="4" x="201.5" y="53"/><rect fill="#F1F1F1" height="2" style="stroke:#181818;stroke-width:0.5;" width="4" x="201.5" y="57"/><text fill="#000000" font-family="sans-serif" font-size="14" font-weight="bold" lengthAdjust="spacing" textLength="83" x="99.5" y="78.9951">New name</text><text fill="#000000" font-family="sans-serif" font-size="14" lengthAdjust="spacing" textLength="4" x="99.5" y="95.292">&#160;</text><text fill="#000000" font-family="sans-serif" font-size="14" lengthAdjust="spacing" textLength="99" x="99.5" y="111.5889">restart: always</text><text fill="#000000" font-family="sans-serif" font-size="14" lengthAdjust="spacing" textLength="93" x="99.5" y="127.8857">props: to text</text><text fill="#000000" font-family="sans-serif" font-size="14" lengthAdjust="spacing" textLength="4" x="99.5" y="144.1826">&#160;</text></g><!--entity 397d342b614308fae8dbf2bcca59bc91--><g id="elem_397d342b614308fae8dbf2bcca59bc91"><rect fill="#F1F1F1" height="39.2969" rx="2.5" ry="2.5" style="stroke:#181818;stroke-width:0.5;" width="109" x="276.5" y="82.1"/><polygon fill="#F1F1F1" points="368.5,87.1,368.5,101.1,380.5,101.1,380.5,93.1,374.5,87.1,368.5,87.1" style="stroke:#181818;stroke-width:0.5;"/><line style="stroke:#181818;stroke-width:0.5;" x1="374.5" x2="374.5" y1="87.1" y2="93.1"/><line style="stroke:#181818;stroke-width:0.5;" x1="380.5" x2="374.5" y1="93.1" y2="93.1"/><text fill="#000000" font-family="sans-serif" font-size="14" lengthAdjust="spacing" textLength="79" x="286.5" y="108.0951">new artifact</text></g><!--entity 48871f9ddd61de6056759e86342fe397--><g id="elem_48871f9ddd61de6056759e86342fe397"><rect fill="#F1F1F1" height="39.2969" rx="2.5" ry="2.5" style="stroke:#181818;stroke-width:0.5;" width="120" x="32" y="358.49"/><polygon fill="#F1F1F1" points="135,363.49,135,377.49,147,377.49,147,369.49,141,363.49,135,363.49" style="stroke:#181818;stroke-width:0.5;"/><line style="stroke:#181818;stroke-width:0.5;" x1="141" x2="141" y1="363.49" y2="369.49"/><line style="stroke:#181818;stroke-width:0.5;" x1="147" x2="141" y1="369.49" y2="369.49"/><text fill="#000000" font-family="sans-serif" font-size="14" lengthAdjust="spacing" textLength="90" x="42" y="384.4851">/infra_crawler</text></g><!--entity 5e07b5c6520b9f500d4b371c306e53c8--><g id="elem_5e07b5c6520b9f500d4b371c306e53c8"><rect fill="#F1F1F1" height="39.2969" rx="2.5" ry="2.5" style="stroke:#181818;stroke-width:0.5;" width="220" x="187" y="358.49"/><polygon fill="#F1F1F1" points="390,363.49,390,377.49,402,377.49,402,369.49,396,363.49,390,363.49" style="stroke:#181818;stroke-width:0.5;"/><line style="stroke:#181818;stroke-width:0.5;" x1="396" x2="396" y1="363.49" y2="369.49"/><line style="stroke:#181818;stroke-width:0.5;" x1="402" x2="396" y1="369.49" y2="369.49"/><text fill="#000000" font-family="sans-serif" font-size="14" lengthAdjust="spacing" textLength="190" x="197" y="384.4851">/infra_crawler/app/staticfiles</text></g><!--entity 73d99f61cf21f8768f6271f1b1e3cb79--><g id="elem_73d99f61cf21f8768f6271f1b1e3cb79"><rect fill="#F1F1F1" height="39.2969" rx="2.5" ry="2.5" style="stroke:#181818;stroke-width:0.5;" width="124" x="30" y="476.78"/><polygon fill="#F1F1F1" points="137,481.78,137,495.78,149,495.78,149,487.78,143,481.78,137,481.78" style="stroke:#181818;stroke-width:0.5;"/><line style="stroke:#181818;stroke-width:0.5;" x1="143" x2="143" y1="481.78" y2="487.78"/><line style="stroke:#181818;stroke-width:0.5;" x1="149" x2="143" y1="487.78" y2="487.78"/><text fill="#000000" font-family="sans-serif" font-size="14" lengthAdjust="spacing" textLength="94" x="40" y="502.7751">./infra_crawler</text></g><!--entity 02333efa2bf4b0344924cb9dbec6e9b2--><g id="elem_02333efa2bf4b0344924cb9dbec6e9b2"><rect fill="#F1F1F1" height="39.2969" rx="2.5" ry="2.5" style="stroke:#181818;stroke-width:0.5;" width="124" x="235" y="476.78"/><polygon fill="#F1F1F1" points="342,481.78,342,495.78,354,495.78,354,487.78,348,481.78,342,481.78" style="stroke:#181818;stroke-width:0.5;"/><line style="stroke:#181818;stroke-width:0.5;" x1="348" x2="348" y1="481.78" y2="487.78"/><line style="stroke:#181818;stroke-width:0.5;" x1="354" x2="348" y1="487.78" y2="487.78"/><text fill="#000000" font-family="sans-serif" font-size="14" lengthAdjust="spacing" textLength="94" x="245" y="502.7751">static_volume</text></g><!--link 48871f9ddd61de6056759e86342fe397 to 73d99f61cf21f8768f6271f1b1e3cb79--><g id="link_48871f9ddd61de6056759e86342fe397_73d99f61cf21f8768f6271f1b1e3cb79"><path codeLine="16" d="M92,398.08 C92,419.7 92,454.87 92,476.5 " fill="none" id="48871f9ddd61de6056759e86342fe397-73d99f61cf21f8768f6271f1b1e3cb79" style="stroke:#181818;stroke-width:1.0;"/><text fill="#000000" font-family="sans-serif" font-size="13" lengthAdjust="spacing" textLength="14" x="93" y="442.8469">rw</text></g><!--link 90864b398c54ba1a31949f1dc8f522f9 to 48871f9ddd61de6056759e86342fe397--><g id="link_90864b398c54ba1a31949f1dc8f522f9_48871f9ddd61de6056759e86342fe397"><path codeLine="17" d="M139.98,157.67 C133.09,185.18 124.84,219.03 118,249.49 C109.38,287.88 101.6082,327.1589 96.7782,352.1589 " fill="none" id="90864b398c54ba1a31949f1dc8f522f9-to-48871f9ddd61de6056759e86342fe397" style="stroke:#181818;stroke-width:1.0;stroke-dasharray:7.0,7.0;"/><polygon fill="#181818" points="95.64,358.05,101.2746,349.9722,96.5885,353.1408,93.4199,348.4546,95.64,358.05" style="stroke:#181818;stroke-width:1.0;"/><text fill="#000000" font-family="sans-serif" font-size="13" lengthAdjust="spacing" textLength="23" x="119" y="262.5569">use</text></g><!--link 5e07b5c6520b9f500d4b371c306e53c8 to 02333efa2bf4b0344924cb9dbec6e9b2--><g id="link_5e07b5c6520b9f500d4b371c306e53c8_02333efa2bf4b0344924cb9dbec6e9b2"><path codeLine="18" d="M297,398.08 C297,419.7 297,454.87 297,476.5 " fill="none" id="5e07b5c6520b9f500d4b371c306e53c8-02333efa2bf4b0344924cb9dbec6e9b2" style="stroke:#181818;stroke-width:1.0;"/><text fill="#000000" font-family="sans-serif" font-size="13" lengthAdjust="spacing" textLength="14" x="298" y="442.8469">rw</text></g><!--link 90864b398c54ba1a31949f1dc8f522f9 to 5e07b5c6520b9f500d4b371c306e53c8--><g id="link_90864b398c54ba1a31949f1dc8f522f9_5e07b5c6520b9f500d4b371c306e53c8"><path codeLine="19" d="M182.77,157.94 C215.06,219.91 262.967,311.8292 284.267,352.6992 " fill="none" id="90864b398c54ba1a31949f1dc8f522f9-to-5e07b5c6520b9f500d4b371c306e53c8" style="stroke:#181818;stroke-width:1.0;stroke-dasharray:7.0,7.0;"/><polygon fill="#181818" points="287.04,358.02,286.4277,348.1902,284.7292,353.586,279.3333,351.8875,287.04,358.02" style="stroke:#181818;stroke-width:1.0;"/><text fill="#000000" font-family="sans-serif" font-size="13" lengthAdjust="spacing" textLength="23" x="240" y="262.5569">use</text></g><!--SRC=[bP5DYjmm44RtEeNmic7S-fUg5u5SO2uGmY2fgeB1RHlRCvuGSlSuJWAzI31P2l6-UlLLxljnktVltV1532EIR3vEKoFp8j5a7x5gJCao6iq5mEi0W1nrhL5-4xAEzsaSQ5Wbg1HSiP2gToNhR3KuO8qriJU6GNuIbyipRNB8TxfSX9XfMVEytcJkj_nr4TCyJijDhgDSwNqLuhFOVplETPNDi7D_NeURXOZMcHAqiofnfeI5JQarUoWLz0DxxGQUyqkTyzRJVD0kfQWP435efA1yY1ueXJsHQO_-9ttDqtJTjTUkSjVJSgHvKh7u6hnH1TWhXNiFUqDM1VAs9l7z8Q_zYqwq2C11LzvBJZ4a3cRtqqMJhIN20_vhzilRsB_UwO2LiTOIPrFO5MMT0-Dg0InK0q4nucnP-OHFfmho9fjvQyJfbTiMs_R3QSC_yruNQiHPUOVTsOx_QtSwzBVT3m00]--></g></svg>