<svg xmlns="http://www.w3.org/2000/svg" xmlns:xlink="http://www.w3.org/1999/xlink" contentStyleType="text/css" height="661px" preserveAspectRatio="none" style="width:3379px;height:661px;background:#FFFFFF;" version="1.1" viewBox="0 0 3379 661" width="3379px" zoomAndPan="magnify"><defs/><g><!--cluster 824c25065ecc00b04cf456b18e172bba--><g id="cluster_824c25065ecc00b04cf456b18e172bba"><polygon fill="none" points="16,16,26,6,433,6,433,298.78,423,308.78,16,308.78,16,16" style="stroke:#181818;stroke-width:1.0;"/><line style="stroke:#181818;stroke-width:1.0;" x1="423" x2="433" y1="16" y2="6"/><line style="stroke:#181818;stroke-width:1.0;" x1="16" x2="423" y1="16" y2="16"/><line style="stroke:#181818;stroke-width:1.0;" x1="423" x2="423" y1="16" y2="308.78"/><text fill="#000000" font-family="sans-serif" font-size="14" font-weight="bold" lengthAdjust="spacing" textLength="67" x="187" y="31.9951">Plantuml</text></g><!--cluster 2199ace55d43ccccac9c1d7a9f4a5b7b--><g id="cluster_2199ace55d43ccccac9c1d7a9f4a5b7b"><polygon fill="none" points="457,32.3,467,22.3,809,22.3,809,298.78,799,308.78,457,308.78,457,32.3" style="stroke:#181818;stroke-width:1.0;"/><line style="stroke:#181818;stroke-width:1.0;" x1="799" x2="809" y1="32.3" y2="22.3"/><line style="stroke:#181818;stroke-width:1.0;" x1="457" x2="799" y1="32.3" y2="32.3"/><line style="stroke:#181818;stroke-width:1.0;" x1="799" x2="799" y1="32.3" y2="308.78"/><text fill="#000000" font-family="sans-serif" font-size="14" font-weight="bold" lengthAdjust="spacing" textLength="87" x="585.5" y="48.2951">Zookeeper</text></g><!--cluster 541661622185851c248b41bf0cea7ad0--><g id="cluster_541661622185851c248b41bf0cea7ad0"><polygon fill="none" points="833,32.3,843,22.3,1147,22.3,1147,298.78,1137,308.78,833,308.78,833,32.3" style="stroke:#181818;stroke-width:1.0;"/><line style="stroke:#181818;stroke-width:1.0;" x1="1137" x2="1147" y1="32.3" y2="22.3"/><line style="stroke:#181818;stroke-width:1.0;" x1="833" x2="1137" y1="32.3" y2="32.3"/><line style="stroke:#181818;stroke-width:1.0;" x1="1137" x2="1137" y1="32.3" y2="308.78"/><text fill="#000000" font-family="sans-serif" font-size="14" font-weight="bold" lengthAdjust="spacing" textLength="44" x="964" y="48.2951">Kafka</text></g><!--cluster d2a57dc1d883fd21fb9951699df71cc7--><g id="cluster_d2a57dc1d883fd21fb9951699df71cc7"><polygon fill="none" points="1171,32.3,1181,22.3,1423,22.3,1423,540.43,1413,550.43,1171,550.43,1171,32.3" style="stroke:#181818;stroke-width:1.0;"/><line style="stroke:#181818;stroke-width:1.0;" x1="1413" x2="1423" y1="32.3" y2="22.3"/><line style="stroke:#181818;stroke-width:1.0;" x1="1171" x2="1413" y1="32.3" y2="32.3"/><line style="stroke:#181818;stroke-width:1.0;" x1="1413" x2="1413" y1="32.3" y2="550.43"/><text fill="#000000" font-family="sans-serif" font-size="14" font-weight="bold" lengthAdjust="spacing" textLength="31" x="1277.5" y="48.2951">App</text></g><!--cluster ee434023cf89d7dfb21f63d64f0f9d74--><g id="cluster_ee434023cf89d7dfb21f63d64f0f9d74"><polygon fill="none" points="1771,32.3,1781,22.3,2566,22.3,2566,540.43,2556,550.43,1771,550.43,1771,32.3" style="stroke:#181818;stroke-width:1.0;"/><line style="stroke:#181818;stroke-width:1.0;" x1="2556" x2="2566" y1="32.3" y2="22.3"/><line style="stroke:#181818;stroke-width:1.0;" x1="1771" x2="2556" y1="32.3" y2="32.3"/><line style="stroke:#181818;stroke-width:1.0;" x1="2556" x2="2556" y1="32.3" y2="550.43"/><text fill="#000000" font-family="sans-serif" font-size="14" font-weight="bold" lengthAdjust="spacing" textLength="44" x="2142.5" y="48.2951">Nginx</text></g><!--cluster c90005181a2b6cbfffcbb134179c59b8--><g id="cluster_c90005181a2b6cbfffcbb134179c59b8"><polygon fill="none" points="2590,40.45,2600,30.45,2945,30.45,2945,540.43,2935,550.43,2590,550.43,2590,40.45" style="stroke:#181818;stroke-width:1.0;"/><line style="stroke:#181818;stroke-width:1.0;" x1="2935" x2="2945" y1="40.45" y2="30.45"/><line style="stroke:#181818;stroke-width:1.0;" x1="2590" x2="2935" y1="40.45" y2="40.45"/><line style="stroke:#181818;stroke-width:1.0;" x1="2935" x2="2935" y1="40.45" y2="550.43"/><text fill="#000000" font-family="sans-serif" font-size="14" font-weight="bold" lengthAdjust="spacing" textLength="60" x="2733.5" y="56.4451">Certbot</text></g><!--cluster 9d3bb895f22bf0afa958d68c2a58ded7--><g id="cluster_9d3bb895f22bf0afa958d68c2a58ded7"><polygon fill="none" points="2969,32.3,2979,22.3,3295,22.3,3295,540.43,3285,550.43,2969,550.43,2969,32.3" style="stroke:#181818;stroke-width:1.0;"/><line style="stroke:#181818;stroke-width:1.0;" x1="3285" x2="3295" y1="32.3" y2="22.3"/><line style="stroke:#181818;stroke-width:1.0;" x1="2969" x2="3285" y1="32.3" y2="32.3"/><line style="stroke:#181818;stroke-width:1.0;" x1="3285" x2="3285" y1="32.3" y2="550.43"/><text fill="#000000" font-family="sans-serif" font-size="14" font-weight="bold" lengthAdjust="spacing" textLength="38" x="3109" y="48.2951">Cron</text></g><!--entity 6cec62b19a20c63d1b6535f2688de974--><g id="elem_6cec62b19a20c63d1b6535f2688de974"><rect fill="#F1F1F1" height="127.7813" rx="2.5" ry="2.5" style="stroke:#181818;stroke-width:0.5;" width="296" x="32" y="46"/><rect fill="#F1F1F1" height="10" style="stroke:#181818;stroke-width:0.5;" width="15" x="308" y="51"/><rect fill="#F1F1F1" height="2" style="stroke:#181818;stroke-width:0.5;" width="4" x="306" y="53"/><rect fill="#F1F1F1" height="2" style="stroke:#181818;stroke-width:0.5;" width="4" x="306" y="57"/><text fill="#000000" font-family="sans-serif" font-size="14" font-weight="bold" lengthAdjust="spacing" textLength="125" x="47" y="78.9951">plantuml-server</text><text fill="#000000" font-family="sans-serif" font-size="14" lengthAdjust="spacing" textLength="4" x="47" y="95.292">&#160;</text><text fill="#000000" font-family="sans-serif" font-size="14" lengthAdjust="spacing" textLength="256" x="47" y="111.5889">image: plantuml/plantuml-server:jetty</text><text fill="#000000" font-family="sans-serif" font-size="14" lengthAdjust="spacing" textLength="238" x="47" y="127.8857">environment: BASE_URL=plantuml</text><text fill="#000000" font-family="sans-serif" font-size="14" lengthAdjust="spacing" textLength="61" x="47" y="144.1826">text: text</text><text fill="#000000" font-family="sans-serif" font-size="14" lengthAdjust="spacing" textLength="4" x="47" y="160.4795">&#160;</text></g><!--entity aaee332a25271c5ec6458256e009a64b--><g id="elem_aaee332a25271c5ec6458256e009a64b"><ellipse cx="390" cy="109.89" fill="#F1F1F1" rx="8" ry="8" style="stroke:#181818;stroke-width:0.5;"/><text fill="#000000" font-family="sans-serif" font-size="14" lengthAdjust="spacing" textLength="36" x="372" y="139.8851">9999</text></g><!--entity 18eb8329fc6fdb6f429a02d04f286599--><g id="elem_18eb8329fc6fdb6f429a02d04f286599"><ellipse cx="180" cy="263.78" fill="#F1F1F1" rx="8" ry="8" style="stroke:#181818;stroke-width:0.5;"/><text fill="#000000" font-family="sans-serif" font-size="14" lengthAdjust="spacing" textLength="36" x="162" y="293.7751">8080</text></g><!--entity e08de8ee1b7bd0e45201edaf78ba4697--><g id="elem_e08de8ee1b7bd0e45201edaf78ba4697"><rect fill="#F1F1F1" height="95.1875" rx="2.5" ry="2.5" style="stroke:#181818;stroke-width:0.5;" width="321" x="472.5" y="62.3"/><rect fill="#F1F1F1" height="10" style="stroke:#181818;stroke-width:0.5;" width="15" x="773.5" y="67.3"/><rect fill="#F1F1F1" height="2" style="stroke:#181818;stroke-width:0.5;" width="4" x="771.5" y="69.3"/><rect fill="#F1F1F1" height="2" style="stroke:#181818;stroke-width:0.5;" width="4" x="771.5" y="73.3"/><text fill="#000000" font-family="sans-serif" font-size="14" font-weight="bold" lengthAdjust="spacing" textLength="85" x="487.5" y="95.2951">zookeeper</text><text fill="#000000" font-family="sans-serif" font-size="14" lengthAdjust="spacing" textLength="4" x="487.5" y="111.592">&#160;</text><text fill="#000000" font-family="sans-serif" font-size="14" lengthAdjust="spacing" textLength="281" x="487.5" y="127.8889">image: confluentinc/cp-zookeeper:latest</text><text fill="#000000" font-family="sans-serif" font-size="14" lengthAdjust="spacing" textLength="4" x="487.5" y="144.1857">&#160;</text></g><!--entity ece32d11de04ea9b6e1403bb711bc958--><g id="elem_ece32d11de04ea9b6e1403bb711bc958"><ellipse cx="633" cy="263.78" fill="#F1F1F1" rx="8" ry="8" style="stroke:#181818;stroke-width:0.5;"/><text fill="#000000" font-family="sans-serif" font-size="14" lengthAdjust="spacing" textLength="36" x="615" y="293.7751">2181</text></g><!--entity 349a83bb472f89aafc32c286b36aadbc--><g id="elem_349a83bb472f89aafc32c286b36aadbc"><rect fill="#F1F1F1" height="95.1875" rx="2.5" ry="2.5" style="stroke:#181818;stroke-width:0.5;" width="282" x="849" y="62.3"/><rect fill="#F1F1F1" height="10" style="stroke:#181818;stroke-width:0.5;" width="15" x="1111" y="67.3"/><rect fill="#F1F1F1" height="2" style="stroke:#181818;stroke-width:0.5;" width="4" x="1109" y="69.3"/><rect fill="#F1F1F1" height="2" style="stroke:#181818;stroke-width:0.5;" width="4" x="1109" y="73.3"/><text fill="#000000" font-family="sans-serif" font-size="14" font-weight="bold" lengthAdjust="spacing" textLength="42" x="864" y="95.2951">kafka</text><text fill="#000000" font-family="sans-serif" font-size="14" lengthAdjust="spacing" textLength="4" x="864" y="111.592">&#160;</text><text fill="#000000" font-family="sans-serif" font-size="14" lengthAdjust="spacing" textLength="242" x="864" y="127.8889">image: confluentinc/cp-kafka:latest</text><text fill="#000000" font-family="sans-serif" font-size="14" lengthAdjust="spacing" textLength="4" x="864" y="144.1857">&#160;</text></g><!--entity 6adbba7d1bab26e0203b790ae0adb380--><g id="elem_6adbba7d1bab26e0203b790ae0adb380"><ellipse cx="990" cy="263.78" fill="#F1F1F1" rx="8" ry="8" style="stroke:#181818;stroke-width:0.5;"/><text fill="#000000" font-family="sans-serif" font-size="14" lengthAdjust="spacing" textLength="45" x="967.5" y="293.7751">29092</text></g><!--entity 90864b398c54ba1a31949f1dc8f522f9--><g id="elem_90864b398c54ba1a31949f1dc8f522f9"><rect fill="#F1F1F1" height="95.1875" rx="2.5" ry="2.5" style="stroke:#181818;stroke-width:0.5;" width="139" x="1247.5" y="62.3"/><rect fill="#F1F1F1" height="10" style="stroke:#181818;stroke-width:0.5;" width="15" x="1366.5" y="67.3"/><rect fill="#F1F1F1" height="2" style="stroke:#181818;stroke-width:0.5;" width="4" x="1364.5" y="69.3"/><rect fill="#F1F1F1" height="2" style="stroke:#181818;stroke-width:0.5;" width="4" x="1364.5" y="73.3"/><text fill="#000000" font-family="sans-serif" font-size="14" font-weight="bold" lengthAdjust="spacing" textLength="88" x="1262.5" y="95.2951">django-app</text><text fill="#000000" font-family="sans-serif" font-size="14" lengthAdjust="spacing" textLength="4" x="1262.5" y="111.592">&#160;</text><text fill="#000000" font-family="sans-serif" font-size="14" lengthAdjust="spacing" textLength="99" x="1262.5" y="127.8889">restart: always</text><text fill="#000000" font-family="sans-serif" font-size="14" lengthAdjust="spacing" textLength="4" x="1262.5" y="144.1857">&#160;</text></g><!--entity 5e07b5c6520b9f500d4b371c306e53c8--><g id="elem_5e07b5c6520b9f500d4b371c306e53c8"><rect fill="#F1F1F1" height="39.2969" rx="2.5" ry="2.5" style="stroke:#181818;stroke-width:0.5;" width="220" x="1187" y="495.13"/><polygon fill="#F1F1F1" points="1390,500.13,1390,514.13,1402,514.13,1402,506.13,1396,500.13,1390,500.13" style="stroke:#181818;stroke-width:0.5;"/><line style="stroke:#181818;stroke-width:0.5;" x1="1396" x2="1396" y1="500.13" y2="506.13"/><line style="stroke:#181818;stroke-width:0.5;" x1="1402" x2="1396" y1="506.13" y2="506.13"/><text fill="#000000" font-family="sans-serif" font-size="14" lengthAdjust="spacing" textLength="190" x="1197" y="521.1251">/infra_crawler/app/staticfiles</text></g><!--entity 02afd862d04e83ed8e2004eacc5b6db9--><g id="elem_02afd862d04e83ed8e2004eacc5b6db9"><rect fill="#F1F1F1" height="95.1875" rx="2.5" ry="2.5" style="stroke:#181818;stroke-width:0.5;" width="203" x="1974.5" y="62.3"/><rect fill="#F1F1F1" height="10" style="stroke:#181818;stroke-width:0.5;" width="15" x="2157.5" y="67.3"/><rect fill="#F1F1F1" height="2" style="stroke:#181818;stroke-width:0.5;" width="4" x="2155.5" y="69.3"/><rect fill="#F1F1F1" height="2" style="stroke:#181818;stroke-width:0.5;" width="4" x="2155.5" y="73.3"/><text fill="#000000" font-family="sans-serif" font-size="14" font-weight="bold" lengthAdjust="spacing" textLength="101" x="1989.5" y="95.2951">nginx-server</text><text fill="#000000" font-family="sans-serif" font-size="14" lengthAdjust="spacing" textLength="4" x="1989.5" y="111.592">&#160;</text><text fill="#000000" font-family="sans-serif" font-size="14" lengthAdjust="spacing" textLength="163" x="1989.5" y="127.8889">restart: unless-stopped</text><text fill="#000000" font-family="sans-serif" font-size="14" lengthAdjust="spacing" textLength="4" x="1989.5" y="144.1857">&#160;</text></g><!--entity 3a61031652ff80665f419f821c1ac407--><g id="elem_3a61031652ff80665f419f821c1ac407"><ellipse cx="1857" cy="263.78" fill="#F1F1F1" rx="8" ry="8" style="stroke:#181818;stroke-width:0.5;"/><text fill="#000000" font-family="sans-serif" font-size="14" lengthAdjust="spacing" textLength="27" x="1843.5" y="293.7751">443</text></g><!--entity 97b04832e42a04c7beb04c21e560b3fb--><g id="elem_97b04832e42a04c7beb04c21e560b3fb"><ellipse cx="1967" cy="263.78" fill="#F1F1F1" rx="8" ry="8" style="stroke:#181818;stroke-width:0.5;"/><text fill="#000000" font-family="sans-serif" font-size="14" lengthAdjust="spacing" textLength="18" x="1958" y="293.7751">80</text></g><!--entity feb445bcd0c040198341918ff2d4fe78--><g id="elem_feb445bcd0c040198341918ff2d4fe78"><rect fill="#F1F1F1" height="39.2969" rx="2.5" ry="2.5" style="stroke:#181818;stroke-width:0.5;" width="220" x="1787" y="495.13"/><polygon fill="#F1F1F1" points="1990,500.13,1990,514.13,2002,514.13,2002,506.13,1996,500.13,1990,500.13" style="stroke:#181818;stroke-width:0.5;"/><line style="stroke:#181818;stroke-width:0.5;" x1="1996" x2="1996" y1="500.13" y2="506.13"/><line style="stroke:#181818;stroke-width:0.5;" x1="2002" x2="1996" y1="506.13" y2="506.13"/><text fill="#000000" font-family="sans-serif" font-size="14" lengthAdjust="spacing" textLength="190" x="1797" y="521.1251">/infra_crawler/app/staticfiles</text></g><!--entity 2fa7031e2dc022b03ff52ea31d0b38a8--><g id="elem_2fa7031e2dc022b03ff52ea31d0b38a8"><rect fill="#F1F1F1" height="39.2969" rx="2.5" ry="2.5" style="stroke:#181818;stroke-width:0.5;" width="139" x="2227.5" y="495.13"/><polygon fill="#F1F1F1" points="2349.5,500.13,2349.5,514.13,2361.5,514.13,2361.5,506.13,2355.5,500.13,2349.5,500.13" style="stroke:#181818;stroke-width:0.5;"/><line style="stroke:#181818;stroke-width:0.5;" x1="2355.5" x2="2355.5" y1="500.13" y2="506.13"/><line style="stroke:#181818;stroke-width:0.5;" x1="2361.5" x2="2355.5" y1="506.13" y2="506.13"/><text fill="#000000" font-family="sans-serif" font-size="14" lengthAdjust="spacing" textLength="109" x="2237.5" y="521.1251">/etc/letsencrypt</text></g><!--entity d8a3f0fbb8decd75a2abaa2cf0995f5e--><g id="elem_d8a3f0fbb8decd75a2abaa2cf0995f5e"><rect fill="#F1F1F1" height="39.2969" rx="2.5" ry="2.5" style="stroke:#181818;stroke-width:0.5;" width="148" x="2402" y="495.13"/><polygon fill="#F1F1F1" points="2533,500.13,2533,514.13,2545,514.13,2545,506.13,2539,500.13,2533,500.13" style="stroke:#181818;stroke-width:0.5;"/><line style="stroke:#181818;stroke-width:0.5;" x1="2539" x2="2539" y1="500.13" y2="506.13"/><line style="stroke:#181818;stroke-width:0.5;" x1="2545" x2="2539" y1="506.13" y2="506.13"/><text fill="#000000" font-family="sans-serif" font-size="14" lengthAdjust="spacing" textLength="118" x="2412" y="521.1251">/var/www/certbot</text></g><!--entity 23b1b729f9899522b85a42067de034a3--><g id="elem_23b1b729f9899522b85a42067de034a3"><rect fill="#F1F1F1" height="39.2969" rx="2.5" ry="2.5" style="stroke:#181818;stroke-width:0.5;" width="150" x="2042" y="495.13"/><polygon fill="#F1F1F1" points="2175,500.13,2175,514.13,2187,514.13,2187,506.13,2181,500.13,2175,500.13" style="stroke:#181818;stroke-width:0.5;"/><line style="stroke:#181818;stroke-width:0.5;" x1="2181" x2="2181" y1="500.13" y2="506.13"/><line style="stroke:#181818;stroke-width:0.5;" x1="2187" x2="2181" y1="506.13" y2="506.13"/><text fill="#000000" font-family="sans-serif" font-size="14" lengthAdjust="spacing" textLength="120" x="2052" y="521.1251">/etc/nginx/vhosts</text></g><!--entity b2e5a6b1daa1b905edcf88ba35110a2c--><g id="elem_b2e5a6b1daa1b905edcf88ba35110a2c"><rect fill="#F1F1F1" height="78.8906" rx="2.5" ry="2.5" style="stroke:#181818;stroke-width:0.5;" width="81" x="2724.5" y="70.45"/><rect fill="#F1F1F1" height="10" style="stroke:#181818;stroke-width:0.5;" width="15" x="2785.5" y="75.45"/><rect fill="#F1F1F1" height="2" style="stroke:#181818;stroke-width:0.5;" width="4" x="2783.5" y="77.45"/><rect fill="#F1F1F1" height="2" style="stroke:#181818;stroke-width:0.5;" width="4" x="2783.5" y="81.45"/><text fill="#000000" font-family="sans-serif" font-size="14" font-weight="bold" lengthAdjust="spacing" textLength="41" x="2739.5" y="103.4451">certs</text><text fill="#000000" font-family="sans-serif" font-size="14" lengthAdjust="spacing" textLength="4" x="2739.5" y="119.742">&#160;</text><text fill="#000000" font-family="sans-serif" font-size="14" lengthAdjust="spacing" textLength="4" x="2739.5" y="136.0389">&#160;</text></g><!--entity 4f5bbfba023abcad1d457e30dd56ffa2--><g id="elem_4f5bbfba023abcad1d457e30dd56ffa2"><rect fill="#F1F1F1" height="39.2969" rx="2.5" ry="2.5" style="stroke:#181818;stroke-width:0.5;" width="139" x="2606.5" y="495.13"/><polygon fill="#F1F1F1" points="2728.5,500.13,2728.5,514.13,2740.5,514.13,2740.5,506.13,2734.5,500.13,2728.5,500.13" style="stroke:#181818;stroke-width:0.5;"/><line style="stroke:#181818;stroke-width:0.5;" x1="2734.5" x2="2734.5" y1="500.13" y2="506.13"/><line style="stroke:#181818;stroke-width:0.5;" x1="2740.5" x2="2734.5" y1="506.13" y2="506.13"/><text fill="#000000" font-family="sans-serif" font-size="14" lengthAdjust="spacing" textLength="109" x="2616.5" y="521.1251">/etc/letsencrypt</text></g><!--entity adb224ccfeb4c419f45fa9b10375c326--><g id="elem_adb224ccfeb4c419f45fa9b10375c326"><rect fill="#F1F1F1" height="39.2969" rx="2.5" ry="2.5" style="stroke:#181818;stroke-width:0.5;" width="148" x="2781" y="495.13"/><polygon fill="#F1F1F1" points="2912,500.13,2912,514.13,2924,514.13,2924,506.13,2918,500.13,2912,500.13" style="stroke:#181818;stroke-width:0.5;"/><line style="stroke:#181818;stroke-width:0.5;" x1="2918" x2="2918" y1="500.13" y2="506.13"/><line style="stroke:#181818;stroke-width:0.5;" x1="2924" x2="2918" y1="506.13" y2="506.13"/><text fill="#000000" font-family="sans-serif" font-size="14" lengthAdjust="spacing" textLength="118" x="2791" y="521.1251">/var/www/certbot</text></g><!--entity ede0da965a02d6ed8de7d7a0ab067969--><g id="elem_ede0da965a02d6ed8de7d7a0ab067969"><rect fill="#F1F1F1" height="95.1875" rx="2.5" ry="2.5" style="stroke:#181818;stroke-width:0.5;" width="203" x="3024.5" y="62.3"/><rect fill="#F1F1F1" height="10" style="stroke:#181818;stroke-width:0.5;" width="15" x="3207.5" y="67.3"/><rect fill="#F1F1F1" height="2" style="stroke:#181818;stroke-width:0.5;" width="4" x="3205.5" y="69.3"/><rect fill="#F1F1F1" height="2" style="stroke:#181818;stroke-width:0.5;" width="4" x="3205.5" y="73.3"/><text fill="#000000" font-family="sans-serif" font-size="14" font-weight="bold" lengthAdjust="spacing" textLength="36" x="3039.5" y="95.2951">cron</text><text fill="#000000" font-family="sans-serif" font-size="14" lengthAdjust="spacing" textLength="4" x="3039.5" y="111.592">&#160;</text><text fill="#000000" font-family="sans-serif" font-size="14" lengthAdjust="spacing" textLength="163" x="3039.5" y="127.8889">restart: unless-stopped</text><text fill="#000000" font-family="sans-serif" font-size="14" lengthAdjust="spacing" textLength="4" x="3039.5" y="144.1857">&#160;</text></g><!--entity 107ea90b85e17faf4f7afc86017a48ab--><g id="elem_107ea90b85e17faf4f7afc86017a48ab"><rect fill="#F1F1F1" height="39.2969" rx="2.5" ry="2.5" style="stroke:#181818;stroke-width:0.5;" width="173" x="2985.5" y="495.13"/><polygon fill="#F1F1F1" points="3141.5,500.13,3141.5,514.13,3153.5,514.13,3153.5,506.13,3147.5,500.13,3141.5,500.13" style="stroke:#181818;stroke-width:0.5;"/><line style="stroke:#181818;stroke-width:0.5;" x1="3147.5" x2="3147.5" y1="500.13" y2="506.13"/><line style="stroke:#181818;stroke-width:0.5;" x1="3153.5" x2="3147.5" y1="506.13" y2="506.13"/><text fill="#000000" font-family="sans-serif" font-size="14" lengthAdjust="spacing" textLength="143" x="2995.5" y="521.1251">/var/run/docker.sock</text></g><!--entity 4859b8c3887a1d16eb0586611fc3ae0e--><g id="elem_4859b8c3887a1d16eb0586611fc3ae0e"><rect fill="#F1F1F1" height="39.2969" rx="2.5" ry="2.5" style="stroke:#181818;stroke-width:0.5;" width="85" x="3193.5" y="495.13"/><polygon fill="#F1F1F1" points="3261.5,500.13,3261.5,514.13,3273.5,514.13,3273.5,506.13,3267.5,500.13,3261.5,500.13" style="stroke:#181818;stroke-width:0.5;"/><line style="stroke:#181818;stroke-width:0.5;" x1="3267.5" x2="3267.5" y1="500.13" y2="506.13"/><line style="stroke:#181818;stroke-width:0.5;" x1="3273.5" x2="3267.5" y1="506.13" y2="506.13"/><text fill="#000000" font-family="sans-serif" font-size="14" lengthAdjust="spacing" textLength="55" x="3203.5" y="521.1251">/workdir</text></g><!--entity 600c44c1349e9154dce569ba37e2d70b--><g id="elem_600c44c1349e9154dce569ba37e2d70b"><ellipse cx="180" cy="400.78" fill="#F1F1F1" rx="8" ry="8" style="stroke:#181818;stroke-width:0.5;"/><text fill="#000000" font-family="sans-serif" font-size="14" lengthAdjust="spacing" textLength="36" x="162" y="430.7751">8080</text></g><!--entity 09459082643d79967357df725fa5f7f3--><g id="elem_09459082643d79967357df725fa5f7f3"><ellipse cx="633" cy="400.78" fill="#F1F1F1" rx="8" ry="8" style="stroke:#181818;stroke-width:0.5;"/><text fill="#000000" font-family="sans-serif" font-size="14" lengthAdjust="spacing" textLength="45" x="610.5" y="430.7751">22181</text></g><!--entity 51644e9b83b8cfce8c3c8531f9c1db78--><g id="elem_51644e9b83b8cfce8c3c8531f9c1db78"><ellipse cx="990" cy="400.78" fill="#F1F1F1" rx="8" ry="8" style="stroke:#181818;stroke-width:0.5;"/><text fill="#000000" font-family="sans-serif" font-size="14" lengthAdjust="spacing" textLength="45" x="967.5" y="430.7751">29092</text></g><!--entity 8a81c9bb0ec23d07684c1472053c60fe--><g id="elem_8a81c9bb0ec23d07684c1472053c60fe"><ellipse cx="1639" cy="400.78" fill="#F1F1F1" rx="8" ry="8" style="stroke:#181818;stroke-width:0.5;"/><text fill="#000000" font-family="sans-serif" font-size="14" lengthAdjust="spacing" textLength="27" x="1625.5" y="430.7751">443</text></g><!--entity dba3f4d0bb5aa6fcfa18da2c1f7a9775--><g id="elem_dba3f4d0bb5aa6fcfa18da2c1f7a9775"><ellipse cx="1728" cy="400.78" fill="#F1F1F1" rx="8" ry="8" style="stroke:#181818;stroke-width:0.5;"/><text fill="#000000" font-family="sans-serif" font-size="14" lengthAdjust="spacing" textLength="18" x="1719" y="430.7751">80</text></g><!--entity 73d99f61cf21f8768f6271f1b1e3cb79--><g id="elem_73d99f61cf21f8768f6271f1b1e3cb79"><rect fill="#F1F1F1" height="39.2969" rx="2.5" ry="2.5" style="stroke:#181818;stroke-width:0.5;" width="124" x="1535" y="615.78"/><polygon fill="#F1F1F1" points="1642,620.78,1642,634.78,1654,634.78,1654,626.78,1648,620.78,1642,620.78" style="stroke:#181818;stroke-width:0.5;"/><line style="stroke:#181818;stroke-width:0.5;" x1="1648" x2="1648" y1="620.78" y2="626.78"/><line style="stroke:#181818;stroke-width:0.5;" x1="1654" x2="1648" y1="626.78" y2="626.78"/><text fill="#000000" font-family="sans-serif" font-size="14" lengthAdjust="spacing" textLength="94" x="1545" y="641.7751">./infra_crawler</text></g><!--entity 02333efa2bf4b0344924cb9dbec6e9b2--><g id="elem_02333efa2bf4b0344924cb9dbec6e9b2"><rect fill="#F1F1F1" height="39.2969" rx="2.5" ry="2.5" style="stroke:#181818;stroke-width:0.5;" width="124" x="1730" y="615.78"/><polygon fill="#F1F1F1" points="1837,620.78,1837,634.78,1849,634.78,1849,626.78,1843,620.78,1837,620.78" style="stroke:#181818;stroke-width:0.5;"/><line style="stroke:#181818;stroke-width:0.5;" x1="1843" x2="1843" y1="620.78" y2="626.78"/><line style="stroke:#181818;stroke-width:0.5;" x1="1849" x2="1843" y1="626.78" y2="626.78"/><text fill="#000000" font-family="sans-serif" font-size="14" lengthAdjust="spacing" textLength="94" x="1740" y="641.7751">static_volume</text></g><!--entity 9af05835fa384a0cf483e5aa169630e7--><g id="elem_9af05835fa384a0cf483e5aa169630e7"><rect fill="#F1F1F1" height="39.2969" rx="2.5" ry="2.5" style="stroke:#181818;stroke-width:0.5;" width="149" x="2348.5" y="615.78"/><polygon fill="#F1F1F1" points="2480.5,620.78,2480.5,634.78,2492.5,634.78,2492.5,626.78,2486.5,620.78,2480.5,620.78" style="stroke:#181818;stroke-width:0.5;"/><line style="stroke:#181818;stroke-width:0.5;" x1="2486.5" x2="2486.5" y1="620.78" y2="626.78"/><line style="stroke:#181818;stroke-width:0.5;" x1="2492.5" x2="2486.5" y1="626.78" y2="626.78"/><text fill="#000000" font-family="sans-serif" font-size="14" lengthAdjust="spacing" textLength="119" x="2358.5" y="641.7751">letsencrypt_certs</text></g><!--entity 8504fa92da4ace279fcef4b85abf09a2--><g id="elem_8504fa92da4ace279fcef4b85abf09a2"><rect fill="#F1F1F1" height="39.2969" rx="2.5" ry="2.5" style="stroke:#181818;stroke-width:0.5;" width="199" x="2559.5" y="615.78"/><polygon fill="#F1F1F1" points="2741.5,620.78,2741.5,634.78,2753.5,634.78,2753.5,626.78,2747.5,620.78,2741.5,620.78" style="stroke:#181818;stroke-width:0.5;"/><line style="stroke:#181818;stroke-width:0.5;" x1="2747.5" x2="2747.5" y1="620.78" y2="626.78"/><line style="stroke:#181818;stroke-width:0.5;" x1="2753.5" x2="2747.5" y1="626.78" y2="626.78"/><text fill="#000000" font-family="sans-serif" font-size="14" lengthAdjust="spacing" textLength="169" x="2569.5" y="641.7751">certbot_acme_challenge</text></g><!--entity 7a1e35394eba22ed61abc2695ba701c3--><g id="elem_7a1e35394eba22ed61abc2695ba701c3"><rect fill="#F1F1F1" height="39.2969" rx="2.5" ry="2.5" style="stroke:#181818;stroke-width:0.5;" width="151" x="2041.5" y="615.78"/><polygon fill="#F1F1F1" points="2175.5,620.78,2175.5,634.78,2187.5,634.78,2187.5,626.78,2181.5,620.78,2175.5,620.78" style="stroke:#181818;stroke-width:0.5;"/><line style="stroke:#181818;stroke-width:0.5;" x1="2181.5" x2="2181.5" y1="620.78" y2="626.78"/><line style="stroke:#181818;stroke-width:0.5;" x1="2187.5" x2="2181.5" y1="626.78" y2="626.78"/><text fill="#000000" font-family="sans-serif" font-size="14" lengthAdjust="spacing" textLength="121" x="2051.5" y="641.7751">./local-env/vhosts</text></g><!--entity d2e4048eb785166d505ec373eb6db9fc--><g id="elem_d2e4048eb785166d505ec373eb6db9fc"><rect fill="#F1F1F1" height="39.2969" rx="2.5" ry="2.5" style="stroke:#181818;stroke-width:0.5;" width="173" x="2985.5" y="615.78"/><polygon fill="#F1F1F1" points="3141.5,620.78,3141.5,634.78,3153.5,634.78,3153.5,626.78,3147.5,620.78,3141.5,620.78" style="stroke:#181818;stroke-width:0.5;"/><line style="stroke:#181818;stroke-width:0.5;" x1="3147.5" x2="3147.5" y1="620.78" y2="626.78"/><line style="stroke:#181818;stroke-width:0.5;" x1="3153.5" x2="3147.5" y1="626.78" y2="626.78"/><text fill="#000000" font-family="sans-serif" font-size="14" lengthAdjust="spacing" textLength="143" x="2995.5" y="641.7751">/var/run/docker.sock</text></g><!--entity 4ee4e842a5b02b96710ef6f54e60eaf4--><g id="elem_4ee4e842a5b02b96710ef6f54e60eaf4"><rect fill="#F1F1F1" height="39.2969" rx="2.5" ry="2.5" style="stroke:#181818;stroke-width:0.5;" width="39" x="3216.5" y="615.78"/><polygon fill="#F1F1F1" points="3238.5,620.78,3238.5,634.78,3250.5,634.78,3250.5,626.78,3244.5,620.78,3238.5,620.78" style="stroke:#181818;stroke-width:0.5;"/><line style="stroke:#181818;stroke-width:0.5;" x1="3244.5" x2="3244.5" y1="620.78" y2="626.78"/><line style="stroke:#181818;stroke-width:0.5;" x1="3250.5" x2="3244.5" y1="626.78" y2="626.78"/><text fill="#000000" font-family="sans-serif" font-size="14" lengthAdjust="spacing" textLength="9" x="3226.5" y="641.7751">./</text></g><!--class 48871f9ddd61de6056759e86342fe397--><g id="elem_48871f9ddd61de6056759e86342fe397"><rect fill="#F1F1F1" height="48" id="48871f9ddd61de6056759e86342fe397" rx="2.5" ry="2.5" style="stroke:#181818;stroke-width:0.5;" width="310" x="1442" y="490.78"/><ellipse cx="1457" cy="506.78" fill="#ADD1B2" rx="11" ry="11" style="stroke:#181818;stroke-width:1.0;"/><path d="M1459.9688,512.4206 Q1459.3906,512.7175 1458.75,512.8581 Q1458.1094,513.0144 1457.4063,513.0144 Q1454.9063,513.0144 1453.5781,511.3738 Q1452.2656,509.7175 1452.2656,506.5925 Q1452.2656,503.4675 1453.5781,501.8113 Q1454.9063,500.155 1457.4063,500.155 Q1458.1094,500.155 1458.75,500.3113 Q1459.4063,500.4675 1459.9688,500.7644 L1459.9688,503.4831 Q1459.3438,502.905 1458.75,502.6394 Q1458.1563,502.3581 1457.5313,502.3581 Q1456.1875,502.3581 1455.5,503.4363 Q1454.8125,504.4988 1454.8125,506.5925 Q1454.8125,508.6863 1455.5,509.7644 Q1456.1875,510.8269 1457.5313,510.8269 Q1458.1563,510.8269 1458.75,510.5613 Q1459.3438,510.28 1459.9688,509.7019 L1459.9688,512.4206 Z " fill="#000000"/><text fill="#000000" font-family="sans-serif" font-size="14" lengthAdjust="spacing" textLength="278" x="1471" y="511.6267">48871f9ddd61de6056759e86342fe397</text><line style="stroke:#181818;stroke-width:0.5;" x1="1443" x2="1751" y1="522.78" y2="522.78"/><line style="stroke:#181818;stroke-width:0.5;" x1="1443" x2="1751" y1="530.78" y2="530.78"/></g><!--entity e1ef43bd1ae7ec64932a0d253b46b0f4--><g id="elem_e1ef43bd1ae7ec64932a0d253b46b0f4"><rect fill="#F1F1F1" height="39.2969" rx="2.5" ry="2.5" style="stroke:#181818;stroke-width:0.5;" width="56" x="3311" y="90.24"/><polygon fill="#F1F1F1" points="3350,95.24,3350,109.24,3362,109.24,3362,101.24,3356,95.24,3350,95.24" style="stroke:#181818;stroke-width:0.5;"/><line style="stroke:#181818;stroke-width:0.5;" x1="3356" x2="3356" y1="95.24" y2="101.24"/><line style="stroke:#181818;stroke-width:0.5;" x1="3362" x2="3356" y1="101.24" y2="101.24"/><text fill="#000000" font-family="sans-serif" font-size="14" lengthAdjust="spacing" textLength="26" x="3321" y="116.2351">text</text></g><!--link 6cec62b19a20c63d1b6535f2688de974 to 18eb8329fc6fdb6f429a02d04f286599--><g id="link_6cec62b19a20c63d1b6535f2688de974_18eb8329fc6fdb6f429a02d04f286599"><path codeLine="86" d="M180,173.99 C180,205.61 180,240.3 180,255.25 " fill="none" id="6cec62b19a20c63d1b6535f2688de974-18eb8329fc6fdb6f429a02d04f286599" style="stroke:#181818;stroke-width:1.0;"/></g><!--link 18eb8329fc6fdb6f429a02d04f286599 to 600c44c1349e9154dce569ba37e2d70b--><g id="link_18eb8329fc6fdb6f429a02d04f286599_600c44c1349e9154dce569ba37e2d70b"><path codeLine="87" d="M180,272.43 C180,296.08 180,367.9 180,391.89 " fill="none" id="18eb8329fc6fdb6f429a02d04f286599-600c44c1349e9154dce569ba37e2d70b" style="stroke:#181818;stroke-width:1.0;"/></g><!--link e08de8ee1b7bd0e45201edaf78ba4697 to ece32d11de04ea9b6e1403bb711bc958--><g id="link_e08de8ee1b7bd0e45201edaf78ba4697_ece32d11de04ea9b6e1403bb711bc958"><path codeLine="88" d="M633,157.7 C633,192.57 633,237.09 633,254.9 " fill="none" id="e08de8ee1b7bd0e45201edaf78ba4697-ece32d11de04ea9b6e1403bb711bc958" style="stroke:#181818;stroke-width:1.0;"/></g><!--link ece32d11de04ea9b6e1403bb711bc958 to 09459082643d79967357df725fa5f7f3--><g id="link_ece32d11de04ea9b6e1403bb711bc958_09459082643d79967357df725fa5f7f3"><path codeLine="89" d="M633,272.43 C633,296.08 633,367.9 633,391.89 " fill="none" id="ece32d11de04ea9b6e1403bb711bc958-09459082643d79967357df725fa5f7f3" style="stroke:#181818;stroke-width:1.0;"/></g><!--link 349a83bb472f89aafc32c286b36aadbc to 6adbba7d1bab26e0203b790ae0adb380--><g id="link_349a83bb472f89aafc32c286b36aadbc_6adbba7d1bab26e0203b790ae0adb380"><path codeLine="90" d="M990,157.7 C990,192.57 990,237.09 990,254.9 " fill="none" id="349a83bb472f89aafc32c286b36aadbc-6adbba7d1bab26e0203b790ae0adb380" style="stroke:#181818;stroke-width:1.0;"/></g><!--link 6adbba7d1bab26e0203b790ae0adb380 to 51644e9b83b8cfce8c3c8531f9c1db78--><g id="link_6adbba7d1bab26e0203b790ae0adb380_51644e9b83b8cfce8c3c8531f9c1db78"><path codeLine="91" d="M990,272.43 C990,296.08 990,367.9 990,391.89 " fill="none" id="6adbba7d1bab26e0203b790ae0adb380-51644e9b83b8cfce8c3c8531f9c1db78" style="stroke:#181818;stroke-width:1.0;"/></g><!--link 48871f9ddd61de6056759e86342fe397 to 73d99f61cf21f8768f6271f1b1e3cb79--><g id="link_48871f9ddd61de6056759e86342fe397_73d99f61cf21f8768f6271f1b1e3cb79"><path codeLine="92" d="M1597,539.22 C1597,561.51 1597,594.62 1597,615.34 " fill="none" id="48871f9ddd61de6056759e86342fe397-73d99f61cf21f8768f6271f1b1e3cb79" style="stroke:#181818;stroke-width:1.0;"/><text fill="#000000" font-family="sans-serif" font-size="13" lengthAdjust="spacing" textLength="14" x="1598" y="581.8469">rw</text></g><!--link 90864b398c54ba1a31949f1dc8f522f9 to 48871f9ddd61de6056759e86342fe397--><g id="link_90864b398c54ba1a31949f1dc8f522f9_48871f9ddd61de6056759e86342fe397"><path codeLine="93" d="M1349.67,157.9 C1409.82,244.46 1532.6359,421.163 1577.4059,485.583 " fill="none" id="90864b398c54ba1a31949f1dc8f522f9-to-48871f9ddd61de6056759e86342fe397" style="stroke:#181818;stroke-width:1.0;stroke-dasharray:7.0,7.0;"/><polygon fill="#181818" points="1580.83,490.51,1578.9785,480.8367,1577.9766,486.4042,1572.4091,485.4022,1580.83,490.51" style="stroke:#181818;stroke-width:1.0;"/><text fill="#000000" font-family="sans-serif" font-size="13" lengthAdjust="spacing" textLength="23" x="1478" y="337.8469">use</text></g><!--link 5e07b5c6520b9f500d4b371c306e53c8 to 02333efa2bf4b0344924cb9dbec6e9b2--><g id="link_5e07b5c6520b9f500d4b371c306e53c8_02333efa2bf4b0344924cb9dbec6e9b2"><path codeLine="94" d="M1349.09,534.85 C1371.89,542.79 1399.08,551.7 1424,558.43 C1530.12,587.1 1655.97,610.95 1729.61,623.91 " fill="none" id="5e07b5c6520b9f500d4b371c306e53c8-02333efa2bf4b0344924cb9dbec6e9b2" style="stroke:#181818;stroke-width:1.0;"/><text fill="#000000" font-family="sans-serif" font-size="13" lengthAdjust="spacing" textLength="14" x="1535" y="581.8469">rw</text></g><!--link 90864b398c54ba1a31949f1dc8f522f9 to 5e07b5c6520b9f500d4b371c306e53c8--><g id="link_90864b398c54ba1a31949f1dc8f522f9_5e07b5c6520b9f500d4b371c306e53c8"><path codeLine="95" d="M1314.67,157.9 C1310.27,246.53 1301.2172,428.8674 1298.2372,488.9474 " fill="none" id="90864b398c54ba1a31949f1dc8f522f9-to-5e07b5c6520b9f500d4b371c306e53c8" style="stroke:#181818;stroke-width:1.0;stroke-dasharray:7.0,7.0;"/><polygon fill="#181818" points="1297.94,494.94,1302.3809,486.1492,1298.1877,489.9461,1294.3908,485.7529,1297.94,494.94" style="stroke:#181818;stroke-width:1.0;"/><text fill="#000000" font-family="sans-serif" font-size="13" lengthAdjust="spacing" textLength="23" x="1307" y="337.8469">use</text></g><!--link 02afd862d04e83ed8e2004eacc5b6db9 to 3a61031652ff80665f419f821c1ac407--><g id="link_02afd862d04e83ed8e2004eacc5b6db9_3a61031652ff80665f419f821c1ac407"><path codeLine="96" d="M2008.21,157.91 C1956.2,193.98 1889.44,240.29 1865.78,256.69 " fill="none" id="02afd862d04e83ed8e2004eacc5b6db9-3a61031652ff80665f419f821c1ac407" style="stroke:#181818;stroke-width:1.0;"/></g><!--link 3a61031652ff80665f419f821c1ac407 to 8a81c9bb0ec23d07684c1472053c60fe--><g id="link_3a61031652ff80665f419f821c1ac407_8a81c9bb0ec23d07684c1472053c60fe"><path codeLine="97" d="M1848.13,265.76 C1820.9,269.18 1737.21,282.72 1685,324.78 C1661.92,343.37 1647.41,376.86 1641.73,391.99 " fill="none" id="3a61031652ff80665f419f821c1ac407-8a81c9bb0ec23d07684c1472053c60fe" style="stroke:#181818;stroke-width:1.0;"/></g><!--link 02afd862d04e83ed8e2004eacc5b6db9 to 97b04832e42a04c7beb04c21e560b3fb--><g id="link_02afd862d04e83ed8e2004eacc5b6db9_97b04832e42a04c7beb04c21e560b3fb"><path codeLine="98" d="M2042.41,157.7 C2017.39,192.57 1985.44,237.09 1972.65,254.9 " fill="none" id="02afd862d04e83ed8e2004eacc5b6db9-97b04832e42a04c7beb04c21e560b3fb" style="stroke:#181818;stroke-width:1.0;"/></g><!--link 97b04832e42a04c7beb04c21e560b3fb to dba3f4d0bb5aa6fcfa18da2c1f7a9775--><g id="link_97b04832e42a04c7beb04c21e560b3fb_dba3f4d0bb5aa6fcfa18da2c1f7a9775"><path codeLine="99" d="M1958.73,272.66 C1946.9,283.64 1924.11,303.64 1902,316.78 C1847.71,349.04 1826.79,342.21 1771,371.78 C1758.72,378.29 1745.44,387.26 1736.94,393.28 " fill="none" id="97b04832e42a04c7beb04c21e560b3fb-dba3f4d0bb5aa6fcfa18da2c1f7a9775" style="stroke:#181818;stroke-width:1.0;"/></g><!--link feb445bcd0c040198341918ff2d4fe78 to 02333efa2bf4b0344924cb9dbec6e9b2--><g id="link_feb445bcd0c040198341918ff2d4fe78_02333efa2bf4b0344924cb9dbec6e9b2"><path codeLine="100" d="M1880.13,534.85 C1860.54,556.99 1828.4,593.3 1808.83,615.42 " fill="none" id="feb445bcd0c040198341918ff2d4fe78-02333efa2bf4b0344924cb9dbec6e9b2" style="stroke:#181818;stroke-width:1.0;"/><text fill="#000000" font-family="sans-serif" font-size="13" lengthAdjust="spacing" textLength="14" x="1848" y="581.8469">rw</text></g><!--link 02afd862d04e83ed8e2004eacc5b6db9 to feb445bcd0c040198341918ff2d4fe78--><g id="link_02afd862d04e83ed8e2004eacc5b6db9_feb445bcd0c040198341918ff2d4fe78"><path codeLine="101" d="M2064.68,157.78 C2053.68,200.24 2035.24,264.03 2012,316.78 C1981.75,385.46 1936.6266,455.4367 1913.4766,489.7367 " fill="none" id="02afd862d04e83ed8e2004eacc5b6db9-to-feb445bcd0c040198341918ff2d4fe78" style="stroke:#181818;stroke-width:1.0;stroke-dasharray:7.0,7.0;"/><polygon fill="#181818" points="1910.12,494.71,1918.4704,489.4878,1912.9172,490.5656,1911.8394,485.0124,1910.12,494.71" style="stroke:#181818;stroke-width:1.0;"/><text fill="#000000" font-family="sans-serif" font-size="13" lengthAdjust="spacing" textLength="23" x="2009" y="337.8469">use</text></g><!--link 2fa7031e2dc022b03ff52ea31d0b38a8 to 9af05835fa384a0cf483e5aa169630e7--><g id="link_2fa7031e2dc022b03ff52ea31d0b38a8_9af05835fa384a0cf483e5aa169630e7"><path codeLine="102" d="M2317.24,534.85 C2340.76,556.99 2379.31,593.3 2402.81,615.42 " fill="none" id="2fa7031e2dc022b03ff52ea31d0b38a8-9af05835fa384a0cf483e5aa169630e7" style="stroke:#181818;stroke-width:1.0;"/><text fill="#000000" font-family="sans-serif" font-size="13" lengthAdjust="spacing" textLength="14" x="2372" y="581.8469">rw</text></g><!--link 02afd862d04e83ed8e2004eacc5b6db9 to 2fa7031e2dc022b03ff52ea31d0b38a8--><g id="link_02afd862d04e83ed8e2004eacc5b6db9_2fa7031e2dc022b03ff52ea31d0b38a8"><path codeLine="103" d="M2101.78,157.9 C2150.4,246.53 2250.8241,429.5996 2283.7841,489.6796 " fill="none" id="02afd862d04e83ed8e2004eacc5b6db9-to-2fa7031e2dc022b03ff52ea31d0b38a8" style="stroke:#181818;stroke-width:1.0;stroke-dasharray:7.0,7.0;"/><polygon fill="#181818" points="2286.67,494.94,2285.8481,485.1255,2284.2651,490.5563,2278.8343,488.9733,2286.67,494.94" style="stroke:#181818;stroke-width:1.0;"/><text fill="#000000" font-family="sans-serif" font-size="13" lengthAdjust="spacing" textLength="23" x="2203" y="337.8469">use</text></g><!--link d8a3f0fbb8decd75a2abaa2cf0995f5e to 8504fa92da4ace279fcef4b85abf09a2--><g id="link_d8a3f0fbb8decd75a2abaa2cf0995f5e_8504fa92da4ace279fcef4b85abf09a2"><path codeLine="104" d="M2496.86,534.64 C2513.93,549.54 2539.06,570.33 2563,585.78 C2579.95,596.73 2599.69,607.1 2616.84,615.43 " fill="none" id="d8a3f0fbb8decd75a2abaa2cf0995f5e-8504fa92da4ace279fcef4b85abf09a2" style="stroke:#181818;stroke-width:1.0;"/><text fill="#000000" font-family="sans-serif" font-size="13" lengthAdjust="spacing" textLength="14" x="2564" y="581.8469">rw</text></g><!--link 02afd862d04e83ed8e2004eacc5b6db9 to d8a3f0fbb8decd75a2abaa2cf0995f5e--><g id="link_02afd862d04e83ed8e2004eacc5b6db9_d8a3f0fbb8decd75a2abaa2cf0995f5e"><path codeLine="105" d="M2122.67,157.9 C2210.67,246.53 2393.4126,430.6021 2453.0626,490.6821 " fill="none" id="02afd862d04e83ed8e2004eacc5b6db9-to-d8a3f0fbb8decd75a2abaa2cf0995f5e" style="stroke:#181818;stroke-width:1.0;stroke-dasharray:7.0,7.0;"/><polygon fill="#181818" points="2457.29,494.94,2453.7875,485.735,2453.7672,491.3918,2448.1104,491.3715,2457.29,494.94" style="stroke:#181818;stroke-width:1.0;"/><text fill="#000000" font-family="sans-serif" font-size="13" lengthAdjust="spacing" textLength="23" x="2305" y="337.8469">use</text></g><!--link 23b1b729f9899522b85a42067de034a3 to 7a1e35394eba22ed61abc2695ba701c3--><g id="link_23b1b729f9899522b85a42067de034a3_7a1e35394eba22ed61abc2695ba701c3"><path codeLine="106" d="M2117,534.85 C2117,556.99 2117,593.3 2117,615.42 " fill="none" id="23b1b729f9899522b85a42067de034a3-7a1e35394eba22ed61abc2695ba701c3" style="stroke:#181818;stroke-width:1.0;"/><text fill="#000000" font-family="sans-serif" font-size="13" lengthAdjust="spacing" textLength="14" x="2118" y="581.8469">rw</text></g><!--link 02afd862d04e83ed8e2004eacc5b6db9 to 23b1b729f9899522b85a42067de034a3--><g id="link_02afd862d04e83ed8e2004eacc5b6db9_23b1b729f9899522b85a42067de034a3"><path codeLine="107" d="M2080.78,157.9 C2089.8,246.53 2108.3629,428.8908 2114.4729,488.9708 " fill="none" id="02afd862d04e83ed8e2004eacc5b6db9-to-23b1b729f9899522b85a42067de034a3" style="stroke:#181818;stroke-width:1.0;stroke-dasharray:7.0,7.0;"/><polygon fill="#181818" points="2115.08,494.94,2118.1489,485.5815,2114.5741,489.9657,2110.1899,486.3909,2115.08,494.94" style="stroke:#181818;stroke-width:1.0;"/><text fill="#000000" font-family="sans-serif" font-size="13" lengthAdjust="spacing" textLength="23" x="2100" y="337.8469">use</text></g><!--link 4f5bbfba023abcad1d457e30dd56ffa2 to 9af05835fa384a0cf483e5aa169630e7--><g id="link_4f5bbfba023abcad1d457e30dd56ffa2_9af05835fa384a0cf483e5aa169630e7"><path codeLine="108" d="M2655.27,534.78 C2637.31,550.38 2610.02,572.05 2583,585.78 C2556.47,599.27 2525.53,609.75 2497.98,617.48 " fill="none" id="4f5bbfba023abcad1d457e30dd56ffa2-9af05835fa384a0cf483e5aa169630e7" style="stroke:#181818;stroke-width:1.0;"/><text fill="#000000" font-family="sans-serif" font-size="13" lengthAdjust="spacing" textLength="14" x="2611" y="581.8469">rw</text></g><!--link b2e5a6b1daa1b905edcf88ba35110a2c to 4f5bbfba023abcad1d457e30dd56ffa2--><g id="link_b2e5a6b1daa1b905edcf88ba35110a2c_4f5bbfba023abcad1d457e30dd56ffa2"><path codeLine="109" d="M2756.47,149.52 C2737.8,234.02 2695.2137,426.7911 2681.4837,488.9711 " fill="none" id="b2e5a6b1daa1b905edcf88ba35110a2c-to-4f5bbfba023abcad1d457e30dd56ffa2" style="stroke:#181818;stroke-width:1.0;stroke-dasharray:7.0,7.0;"/><polygon fill="#181818" points="2680.19,494.83,2686.0365,486.9042,2681.2681,489.9476,2678.2246,485.1792,2680.19,494.83" style="stroke:#181818;stroke-width:1.0;"/><text fill="#000000" font-family="sans-serif" font-size="13" lengthAdjust="spacing" textLength="23" x="2718" y="337.8469">use</text></g><!--link adb224ccfeb4c419f45fa9b10375c326 to 8504fa92da4ace279fcef4b85abf09a2--><g id="link_adb224ccfeb4c419f45fa9b10375c326_8504fa92da4ace279fcef4b85abf09a2"><path codeLine="110" d="M2823.51,534.85 C2786.93,556.99 2726.95,593.3 2690.41,615.42 " fill="none" id="adb224ccfeb4c419f45fa9b10375c326-8504fa92da4ace279fcef4b85abf09a2" style="stroke:#181818;stroke-width:1.0;"/><text fill="#000000" font-family="sans-serif" font-size="13" lengthAdjust="spacing" textLength="14" x="2763" y="581.8469">rw</text></g><!--link b2e5a6b1daa1b905edcf88ba35110a2c to adb224ccfeb4c419f45fa9b10375c326--><g id="link_b2e5a6b1daa1b905edcf88ba35110a2c_adb224ccfeb4c419f45fa9b10375c326"><path codeLine="111" d="M2773.63,149.52 C2792.5,234.02 2835.5719,426.7943 2849.4619,488.9743 " fill="none" id="b2e5a6b1daa1b905edcf88ba35110a2c-to-adb224ccfeb4c419f45fa9b10375c326" style="stroke:#181818;stroke-width:1.0;stroke-dasharray:7.0,7.0;"/><polygon fill="#181818" points="2850.77,494.83,2852.7117,485.1744,2849.6799,489.9503,2844.9041,486.9185,2850.77,494.83" style="stroke:#181818;stroke-width:1.0;"/><text fill="#000000" font-family="sans-serif" font-size="13" lengthAdjust="spacing" textLength="23" x="2817" y="337.8469">use</text></g><!--link 107ea90b85e17faf4f7afc86017a48ab to d2e4048eb785166d505ec373eb6db9fc--><g id="link_107ea90b85e17faf4f7afc86017a48ab_d2e4048eb785166d505ec373eb6db9fc"><path codeLine="112" d="M3072,534.85 C3072,556.99 3072,593.3 3072,615.42 " fill="none" id="107ea90b85e17faf4f7afc86017a48ab-d2e4048eb785166d505ec373eb6db9fc" style="stroke:#181818;stroke-width:1.0;"/><text fill="#000000" font-family="sans-serif" font-size="13" lengthAdjust="spacing" textLength="14" x="3073" y="581.8469">rw</text></g><!--link ede0da965a02d6ed8de7d7a0ab067969 to 107ea90b85e17faf4f7afc86017a48ab--><g id="link_ede0da965a02d6ed8de7d7a0ab067969_107ea90b85e17faf4f7afc86017a48ab"><path codeLine="113" d="M3119.62,157.62 C3113.72,200.95 3104.71,267.21 3097,324.78 C3088.67,386.95 3079.7618,454.6911 3075.2818,488.7811 " fill="none" id="ede0da965a02d6ed8de7d7a0ab067969-to-107ea90b85e17faf4f7afc86017a48ab" style="stroke:#181818;stroke-width:1.0;stroke-dasharray:7.0,7.0;"/><polygon fill="#181818" points="3074.5,494.73,3079.6386,486.3279,3075.1515,489.7726,3071.7068,485.2855,3074.5,494.73" style="stroke:#181818;stroke-width:1.0;"/><text fill="#000000" font-family="sans-serif" font-size="13" lengthAdjust="spacing" textLength="23" x="3098" y="337.8469">use</text></g><!--link 4859b8c3887a1d16eb0586611fc3ae0e to 4ee4e842a5b02b96710ef6f54e60eaf4--><g id="link_4859b8c3887a1d16eb0586611fc3ae0e_4ee4e842a5b02b96710ef6f54e60eaf4"><path codeLine="114" d="M3236,534.85 C3236,556.99 3236,593.3 3236,615.42 " fill="none" id="4859b8c3887a1d16eb0586611fc3ae0e-4ee4e842a5b02b96710ef6f54e60eaf4" style="stroke:#181818;stroke-width:1.0;"/><text fill="#000000" font-family="sans-serif" font-size="13" lengthAdjust="spacing" textLength="13" x="3237" y="581.8469">ro</text></g><!--link ede0da965a02d6ed8de7d7a0ab067969 to 4859b8c3887a1d16eb0586611fc3ae0e--><g id="link_ede0da965a02d6ed8de7d7a0ab067969_4859b8c3887a1d16eb0586611fc3ae0e"><path codeLine="115" d="M3138.83,157.9 C3163.03,246.53 3212.8691,429.072 3229.2791,489.152 " fill="none" id="ede0da965a02d6ed8de7d7a0ab067969-to-4859b8c3887a1d16eb0586611fc3ae0e" style="stroke:#181818;stroke-width:1.0;stroke-dasharray:7.0,7.0;"/><polygon fill="#181818" points="3230.86,494.94,3232.3473,485.2041,3229.5426,490.1167,3224.63,487.312,3230.86,494.94" style="stroke:#181818;stroke-width:1.0;"/><text fill="#000000" font-family="sans-serif" font-size="13" lengthAdjust="spacing" textLength="23" x="3189" y="337.8469">use</text></g><!--SRC=[bLXTRsjB3NtFhuZw14TgCzyVbK2w89v0285u0Q7ACsFtvZRTYPAqFGTq_pjhxzta9XLYJlFGAjapzhAzlEo4Dfljs_FwwtfuN0pRnikRlsneEBuyRswMT5WcuwhnAdYkLQcYN1NdGz69TJIbqF8_YsNTFk-s0m_7PQXSWoawar4rsAPByDQB2Iarpj4j_xduycNtRl_smFjNtd_vibYid-cHxvUd9wiFH-v_ukFnsuA7r_L-Epp3q_toTp_yxGyFV__hdtvpEhiuybTyFlvTBFwr-DMlbpSPhoaA8cPh3Hblegw89JYVZ0-iLARWodGwgQIcqmYk96kor22j174cap9DEJ4f-9mNFxzdwX_RxHFpZlVJDQDpfihUDsShNbHprIrI5aU-n7ATAbP8IMBMUD8KEs-KvaOIKo4NSfnIzU-JWuiarUqWcnUOM0zrLNUtvpFt6phouHoyqKbFkBYoDKthnienvH9OEsLBYLgNcdqwX_D7aYUQhdYdGz31m8PFNbVZKd6wYAfCaPgw3iMwJ0a6NJIICf5KQofILMmWQgLEeJoDnlzF6DFpZo5abSq4AC1EeGX2KJ4ecq40CIjYXGSsgNCCF-nsquLcoCU6_ATafHaj9MUlGyvDm80QhoF8Ae45DgVgNI5DLcUNHRUQn1iZUOgW_KJ3u_QMThinZ3rmqXw4eyqRVJkCaF5sBLIFovlLUf0zFTGzlMrulyAL5KuVrrNM6pxCAMOLYwy1TIzPl58D003Dgi3Urb-gykV7zV1rBYGxwvIn5LbkiKb1M6You4G9Fd3NCIb3qb8OUSl9Sajir4Y0Mdq9hSmn3QFnYqOyH_Ko0EZXzd3SxdRSJWLnpav8B0Mjh0PuaQH2yE9qbcHqrLITYk_zD9tD4Qg1Tc9d2F8H2uygOZJxe8gLyhcq2HVdVAbDLUMKpid2iquYfZdXc2wjyR6kDdmyy53tttR7kKc58f2pQLKPKvGLL9XHy0OmYQxklz9-zVRsjggyFvRjVBybiaXtAUZUsg8dGuN8L57WbtZ-w7zAyEhrn-tXE0TWR47BGrnomWr0I9wSKI6YFQqZUwxxxo-yrgoKycXeCYNK8YAr58tGOwu-btHT-MBO4pIw4UcIbUS6na1MhDTQ0UjK-J6emrZoQ-B-hvmvyQL8WGPQAfMQRiv7jger7qJ8z7A65ZKO8tMiNHs9uhn0Xy2Ww24LuPUGeUupPnha926Xo8yemccVMaWLJOsyjm_ToqXTenpygD81J6ySeRkA2jAQmypq2jiTXdy8O_yohDgsFl7-xe1_ysXG4HAgK3JCFo5n4Y5tAIWToIMw8lFRTl_KrlDiS6aiKxKfHT9D1_I0Jv1O3Qs4Y35IS3M2WbBLkOeIPyxQkuQv4Z9A6C7SgEQ1PSuIhxBpq30Jd6qnvn0jn4-YGPwzHB4Vr1H2w1m3a0KcgGnWDNchPHnO1KrqsUje2brpAOghiKt5a80BKg-WKa49N_Pw0q9nQANYYO9K8PqQ6AUHfXoZlqZFtNMpJzUZRJbBq5MWR0cU961UYowQRONUNroVTU7XTRjvUUOv1yPQow1Z4OU-TYw3SoMtWccFM2zPUa7mXwaFPjAHe2XOLyWcHmgB3cGJSM1g1AiuNXXuP_S3rMT-g3_IPiF3ummZUUm9b4qZXsN0H6mH343eSZ0vNpNBtMgphRIvnLvpgH1W25jli-D2nd0B6brdGlOOW0e3udjusY2tK5r6CL7iq3nKeDfeUP9-gLSePePYkd22HlkYJ065j689uXq7nI3wehlRtRRR_khKEp1PwRA_kpoDLhfxJ-_0PANRMjtjPugejx_q3anMkdthe2zurnf8qr0u7wBFd89rHjY-vwNNPSlxvSt-xMRHNOhkxjhTtM-NNQUmztBWcqLlvPdptMdZpwBhEZsXw-vB8xhkujCxC5dfIkftOUakLhq3avMkPFSshazLhHlOUzMwJazLw-rpSwOwolvPT5sd9tIzRN5cGsTYV1PTr-avTvrLT5QBpZJwTEvwJa_eUbldfohRNObFMjPpUaBNssa_LTdlHTTrUaBNMrFdpk_i22TqtVNw7LtNwRcodMLuGjVRHoPqs-z7rtLwhknvCnf_Ifg_U6kKpPQcYUFusr6s4DHcl2qk52Nklm00]--></g></svg>